<mxfile host="65bd71144e">
    <diagram id="XkjEZRDg3sCbZeYO0-Lz" name="Page-1">
        <mxGraphModel dx="2666" dy="1175" grid="1" gridSize="10" guides="1" tooltips="1" connect="1" arrows="1" fold="1" page="1" pageScale="1" pageWidth="850" pageHeight="1100" math="0" shadow="0">
            <root>
                <mxCell id="0"/>
                <mxCell id="1" parent="0"/>
                <mxCell id="3" value="0" style="shape=image;verticalLabelPosition=bottom;labelBackgroundColor=default;verticalAlign=top;aspect=fixed;imageAspect=0;image=data:image/png,iVBORw0KGgoAAAANSUhEUgAAA8kAAAJaCAYAAAAcSQXAAAAAAXNSR0IArs4c6QAAAARnQU1BAACxjwv8YQUAAAAJcEhZcwAADsMAAA7DAcdvqGQAAMrvSURBVHhe7P0LfBzVfTf+fyVbtsHSYsmubBRIYuOAILYLsWXTEG4ttgkBO6QkCEJoSGkaBSd1+rQQCIWHlJDA8/s/kNSgNqWl5WoTnpAYcrGdPuAnkGKvHYitgCC+JIEoWLG1trQGX9Ff37PnWKP17O7Mznd258x83q+XmDkrIX915nKuc6amr69vcAgx3jr3zdb5eTVFIQa/ohIzx3Ho0CF6++23aWBggN7znvfo75R28OBBta2rq1PbUtx+vlg++P39rKenh1paWnSqOIn4i/H785wXNsfPkhj/6NGj1baUqMZve/4jfneIvzjEXxz/fE1NjdXxsyTGz8etlCjH74XX32/ywtb4jaA/7+Wc+N3vfkfvete7dKq4AwcOqO2YMWPUtpRyfp5j9vrzLIz4Tb5xO4mNHTtWfTbq+uuv/5/8AVfcTUPmnXfeOZI2n5ltNUUhBr+iEjPHwceVL6j9+/fTcccdp78zEv9c/tfhw4fVtra29qjvuX25/Xwx/POMf94rbug3NDQc+f3FviTiL/bl9+ed8XvhN3+kfz7/fsBf/f39VF9ff9Tnbl980+Et33Dyv+f2FfbP81c58Yd1Pvj9ef7yE3/Y8SD+4l/lxMPXXNTO/1K/n/E2DvnP26TFX+3zx3x5+XlzrvFXXPK/nPid+VDoq9x4Ro0apX5/KfzzjH+/V2HUf/Ljl8p/NzbV39z4iZ/LIub195f7817PN8bnv9/893M+83E3gyI1f/jDH9RZwB9ysNyAymQyasRx79696oblV6ETy2Z8w44Sc2J5ZY4v96rwMW5qatLfKa2ck4yF9fNs9+7dNGHCBJ0qLinxm+uuEvHv2bOnYEdLvrDjQfzFIf7iEH9xiL84xF8c4i9efywnftR/CrMl/kLnRND4vbRVkpL/nBd+fz837o855hh1f+B/o+b3v//9IDeeuIK9c+dO6u3tVdMIuJXOPVV+hsABAAAAAAAAbMIDidlslt566y168803qaa7u3uofZx7RpIbxCeffDIde+yx+scBAAAAAAAAkmHfvn1Uu3XrVtq8ebNKnH766WggAwAAAAAAQCKNGzeOak963/soddwEamtr0x8DAAAAAAAAJFPtnt176F0tLepBZQAAAAAAAIAkq+VVrBsackvJAwAAAAAAACRZLa/gVep9U/y+qPwvXk6bl8rmJbZ5FezxQ1+/+MUv6Gu3XkW/Wn8jffO2xfS1f/yf9Nbb+/RvAQAAAAAAAIi2Wn4Pst/XPPF7p8aMGasW+Ro/fjz99LkNdPttf0tTjvkJnXlaHT30nR469YNfoq994/+jCcel9P8FAAAAAAAAEG01K596evD8887VSXc8cmzwO5W5cbxt62u0Y8cu+u8X/psO9v+UzmgdS2t/tosajp9Pf/nZz9EfTUyp90w5X+YMAAAAAAAAEGW1gzSod0t7Z3BQNZAfW76cPvapL9CnPvMZOnniepqceod+8sJxtPjq/01fvvF6mtAwlvbu3XtkOjYAAAAAAABEx9/93d/Rcccdpx69dfvi7/HPRM2sPz6d/t9Pf6pTR+Pv/fHpZ+hUeWq+/9RTg3963nk66Y5HkgeHGsijR9fR1l91059/8tNU19RKBwd66NQ/ytK1S75GCz48n2qHGty50eORjWOe0l0IH4CBgQGdAgAAAAAAgLBxI/iFF16glpYW/clIu3btojPOOIP27NmjP4kGbgR/5jOfoX//93+nc84+W3+aU+x7ftTqbUk8zbqubjSlN75IJzX10OD+Ppp2+gX06/3vo/985CG6/OOX0bJ7O4d+ZoxqUAMAAAAAAEA0cfuOG8jcWHb7mjZtmvqZqOHGLzeCuTHsHFGWaiAzz41kXs36wIEDdMmixXTuwiV02nv/iAYG+um0Pz6DJjdPoc9d90X62X+/QDv/0KsWAkNDGQAAAAAAAKTlN5QlG8jMcyOZ8QJc48aOof9x/U309//jS/T7TT+mv/7E+XTen/4prVjxOP3VtddSfWqCml5dzrPITzzxxIh58P/93/+tvzPye1/60pdo1qxZ9Otf/7rk93hrvsdf5nP+uXvuuUd9xlsAAAAAAACwg7OhLNlAZr4aybwQFy/e1X7ZYvrsNVfSiY1EDy+7lf5///A52vXrl+j/+8cb6O+++NdUUztq6Kf9jSRzg/iaa65Rzyfz1+bNm2nBggWqUctf/D3+jL931lln0fbt29X/V+x7bObMmepz8zu5cWxwRvLnS5cu1Z8AAAAAAAD44xyUK/YFdvDcSObp06OGGsnZvftowpj99Ccn19OsqcfRJXMn0z/89UX0kTNPpPdPPkxjDvfT/gP+R5LXrVtH//iP/6hTRO9973vp2muvpQ0bNqgv3ufP2GWXXUZTp05V+8W+Z0aizUnJDeaf/OQn6jN2yy236D0AAAAAAIDymEG5Ul8gxznF2owoO59RDqLWz7PDtbU16tVOY0bX0IIPzaJZJ59Ibx0YpJ27szT+2GNo1invptPf/z4aM2Y0HTp4SOS55He9611q+573vEdt3RT73gUXXICTEwAAAAAAICbyn0HOf0Y5KF+rW9eOGj3USM7SoQNv0+hRo+i4+rG5hvPbB2jNC900sek4evanz9ObO3bR+Pp6qqur89xQnjdvHv3DP/yDTuWmUd9///30J3/yJ6qh7PweP4NsplQX+x7/vzxy7Hy2GQAAAAAAIOn4UVp+zVMhPT096meiptAiXZINZU9/NS/ENXbsWHp7/yFal/45TZ4whl7v3UOvbO9VU7BHj6ql/fsP0ht/yNKk1Bi649b/QTd/5UZ6/Xc9alVsL7hB+8ADD4yYGs3PEJvv8VRs873nn3/+yJTqYt9jq1evVs82m+87n0kGAAAAAABIor/6q79S70E27aT8r1NPPVX9TJTwAOwXvvDFoxrIhmkoL1nyBf1JeWq+t3Ll4J+df75Ouquvr6cN6Q207M6baNyoQ3R8Yx1l3zpAW17fSZec+346YfIEevK/NlFNbQ2NHzeGTnrXcbSnbyd1726i+x9bSW+/ldW/SQ4fuEJTp4t9DwAAAAAAAOzEDeVy3qTkh6eR5P/9zf9Nt371KzTQ30NjxtXQqo2/pg1bd9Cb2f20asN2+t7zr9Grv99Dv3qzn57d/Dr96Odv0B8O19Ovtr1Cf3fD3+nfIodHg/lZYzfFvgcAAAAAAAD2CruBzDyNJN/95DfouAkTaLBmNB04eJCOGZt71pgDPHjoMB1+Z5DG1o3iiNUzyocOHqYDQ5+PP2Ys/Xp7L93yqS/r31Q+Hh02eDr1pk2bdKr49wAAAAAAAAC88tRIBgAAAAAAAEiC6C1XBgAAAAAAAFAlaCQDAAAAAAAAaGgkAwAAAAAAAGhoJAMAAAAAAABoaCQDAAAAAAAAaGgkAwAAAAAAAGhoJAMAAAAAAABoaCQDAAAAAAAAaGgkAwAAAAAAAGhoJAMAAAAAAABoaCQDAAAAAAAAaGgkAwAAAAAAAGhoJAMAAAAAAABoaCQDAAAAAAAAaGgkAwAAAAAAAGhoJAMAAAAAAABotdmBvXoXAAAAAAAAINlq6xvG610AAAAAAACAZKv53sqVg392/vk6WVp9fb3eC09nZyd1dHToFAAAAAAAAICMbDar99xZ+0xyJpPRezJ6enr0nhzpGNPptN6Tk8R8tCFGJh1nUmOUvm5wrGXYECOTjtOGGFHWyECMcqTjDCNGlDUyEKMMG67tqJc1tTQ4qHcBAAAAAAAAkg2rWwMAAAAAAABoaCQDAAAAAAAAaDXf+/73B//sT/9UJ0ur1MJdixcv1il3AwMD1NDQoFPB7dq1iyZOnKhTMqRj7O7uptbWVp2SkcR8tCFGJh1nUmOUvm5wrGXYECOTjtOGGFHWyECMcqTjDCNGlDUyEKMMG67tapc1qVRK77mLbCO51OrW/GB2Y2OjTgXHD7i3tLTolAzpGPkB97a2Np2SkcR8tCFGJh1nUmOUvm5wrGXYECOTjtOGGFHWyECMcqTjDCNGlDUyEKMMG67tapc1sV3dGgAAAAAAAEAaGskAAAAAAAAAGhrJAAAAAAAAABoayQAAAAAAAAAaGskAAAAAAAAAGhrJAAAAAAAAABoayQAAAAAAAAAaGskAAAAAAAAAWs33vv/9wT/70z/VydLq6+v1Xng6Ozupvb1dp9z19/dTKpXSqeB6e3upublZp2RIx9jV1UUzZszQKRlJzEcbYmTScSY1RunrBsdahg0xMuk4bYgRZY0MxChHOs4wYkRZIwMxyrDh2q52WVNXV6f33NX853/+5+DHPvYxnSytUo3kjo4OnXKXyWSosbFRp4Lr6emhlpYWnZIhHWM6naa2tjadkpHEfLQhRiYdZ1JjlL5ucKxl2BAjk47ThhhR1shAjHKk4wwjRpQ1MhCjDBuu7WqXNdlsVu+5q5XuZQAAAAAAAACwFZ5JBgAAAAAAANDQSAYAAAAAAADQ0EgGAAAAAAAA0NBIBgAAAAAAANDQSAYAAAAAAADQ0EgGAAAAAAAA0Gp+9KMfDX7oQx/SydIq9Z7kxYsX65S7gYEBamho0Kngdu3aRRMnTtQpGdIxdnd3U2trq07JSGI+2hAjk44zqTFKXzc41jJsiJFJx2lDjChrZCBGOdJxhhEjyhoZiFGGDdd2tcuaVCql99xFtpHc0dGhU+6kX2iNl27LsCEfbYiRJfFl9WHEKH3d4FjLsCFGJh2nDTGirJGBGOVIxxlGjChrZCBGGTZc29Uua7LZrN5zh+nWAAAAAAAAABoayQAAAAAAAAAaGskAAAAAAAAAWu3g4KDeBQAAAAAAAEg2jCQDAAAAAAAAaGgkAwAAAAAAAGhoJAMAAAAAAABoaCQDAAAAAAAAaDU//OEPB88++2ydLK2+vl7vhaezs5Pa29t1yl1/fz+lUimdCq63t5eam5t1SoZ0jF1dXTRjxgydkpHEfLQhRiYdZ1JjlL5ucKxl2BAjk47ThhhR1shAjHKk4wwjRpQ1MhCjDBuu7WqXNXV1dXrPXWQbyR0dHTrlLpPJUGNjo04F19PTQy0tLTolQzrGdDpNbW1tOiUjifloQ4xMOs6kxih93eBYy7AhRiYdpw0xoqyRgRjlSMcZRowoa2QgRhk2XNvVLmuy2azec4fp1gAAAAAAAAAaGskAAAAAAAAAGhrJAAAAAAAAABoayQAAAAAAAAAaGskAAAAAAAAAGhrJAAAAAAAAAFrt4OCg3gUAAAAAAABINowkAwAAAAAAAGg1P/jBDwbPOeccnSytvr5e74Wns7OTFi9erFPuBgYGqKGhQaeC27VrF02cOFGnZEjH2N3dTa2trTolI4n5aEOMTDrOpMYofd3gWMuwIUYmHacNMaKskYEY5UjHGUaMKGtkIEYZNlzb1S5rUqmU3nMX2UZyR0eHTrnLZDLU2NioU8H19PRQS0uLTsmQjjGdTlNbW5tOyUhiPtoQI5OOM6kxSl83ONYybIiRScdpQ4woa2QgRjnScYYRI8oaGYhRhg3XdrXLmmw2q/fcYbo1AAAAAAAAgFbb29urdwEAAAAAAACSrfa4CRP0Lkh55KM/UF9Pf2Gt2oZp25pOWrExo1Oy+Hd3rtmmUyPx9wp8izIbVxT8/4IqFhP/u+XkRbG/BQAAAAAAkgXTrSsgzIbytPkddPls2ecYhlqN6rnwrTRdf5Ans5HSfXNpzjSdztM4+3LqmF/gm+UqFRNtow3rm6hNOi8AAAAAACBR0Ej2yYwSF/ty4/Zzzq9ImTZfLZw2/ySdzpPZtoWa2mZTRZujJWKibVupb+4cEm6aAwAAAABAwqCRbJF9v/+lGk1VX3p+8PBU4QxtXLGCNm7bSCv0z4yYepwZ/ryzcw2VP7s4Q9u2NNFJujWqplab36tjck57zsW3jdbk/UyO4/POodgDzBrftrWPpk8barbziPOKjUNRGvxv5P5eE+v3v//9oa1bHug8PPI/56XF8hAAAAAAAKIKjWSfPvm9j3j+uvifznX93O2rtG3U87tjaGFHhxpRdZ/O3Efr00QL+Pvtc4nWb8g15Lhxt1p/zl8LiVaV+xDutg20vukkPWKbm+JcPCaiLau20knqZxbS9C1p3ejkxqv5fOirfTptWe1s3Pqgpn9PJ24j07Q5NJe20Dbzi7ZtpS3Tc/GqaeBD/xa/g7t9bh+l/bTKJfMQAAAAAAAiC41kazTSMcf00aoRo6T5mmjuAj0NunEaTW/qowz/cKaP+vrW03IzCrpqy1B7OlNWg5RHbOceeRi5kZqatpSIiWj6wvm6UT2NTpo+FIuKKTPUpB/6f01My9cPxTgUr/o5f0ZO/26kadOHGua6lTwy3tzINY8kL1/PeeLjXxPMQwAAAAAAiK6a7z755OD8Cy7QydLq6+v1Xni4EdLe3q5T7vr7+ymVSulUcPwqrObmZp2SIR1jV1cXzXh3Df3oh5tpz7vPovYPnkiv/2w5vX5iO33wxH765Y+eJzrrw/R+9U860nt+RstfP1H9fL6iMb6e9//1/5Jyv/L9NOL/4M91TH86fSyN+8NGep7Oog8PBTIcX+5Hj6SPK/C7XIyIMT8mep1+tvx1OrH9g3TkrzNxnkX0/JF/g3+ui4676MP0R/uGjvX+LUd+T9A8ZNLHmkmfk0mNUV03M2boVHA41jJsiJFJx2lDjNLXDEtiPiJGOdJxhhEjyhoZiFGGDdd2tcuauro6vVfAd4cayQMDA56/KuG+++7Te4X19fXpPRm/+93v9J4c6RjXr1+v97YOrr5v9dB/h/ZW3ze4mncG+wY3LF8+uOHIP+lI920YXH6f83vDisa4dfXgfblfrvRtWK7/LTe5mDYM5SP/3HL9jw3HlzOc5p8f+b1CRsSYFxOnzb/ltHX1UKz8ZX5U5UEuz/hYcxzm9zhj5P0jv8+Zb0XykEkfayZ9TiY1xuHrRgaOtQwbYmTScdoQo/Q1w5KYj4hRjnScYcSIskYGYpRhw7Vd7bLGrZ3r/MJ0a2tso20bNuSm+nauIjoyhdmDxtl0+cImWr9cTxUe+vL/PuGRC3blOBfeysV0vP5OadNofvtc6ls1HFM571Y+smBXnmknNdEWZ7xDedA2PTe9m6dbF3qV1LQ5/Cz38lw8q/uoqUl/QyQPAQAAAAAg6iI73ZoXRyomk8lQY+PRjaNy9fT0UEtLi07JkI4xnU5TW1ubTsnwHOO2NbQiM6fkO5krmo+8mNaGRrrc5zuZbTjWTDrOpMYofd3gWMuwIUYmHacNMVa1rPEIx1qGDTEy6TjDiBFljQzEKMOGa7vaZU02m9V77jCSnGD8eqbly/Woqf4qOJg7bX7JBrKEEa+U0l8/+mW//m4eHt312UAGAAAAAAAoBo3kBJs2v0MtkKZeaaS/qt3mNK9pcn7xAmAAAAAAAACVgEYyAAAAAAAAgIZGMgAAAAAAAICGRjIAAAAAAACAhkYyAAAAAAAAgBbZV0AtXrxYp9wNDAxQQ0ODTgW3a9cumjhxok7JkI6xu7ubWltbdUpGEvPRhhiZdJxJjVH6usGxlmFDjEw6ThtiRFkjAzHKkY4zjBhR1shAjDJsuLarXdakUsUXBsZ7kjW8T0yGDfloQ4wsie/hCyNGvLtSRhJjZNJx2hAjyhoZiFGOdJxhxIiyRgZilGHDtY33JAMAAAAAAABYAo1kAAAAAAAAAA2NZAAAAAAAAACtdnBwUO8CAAAAAAAAJFvt/n379C4AAAAAAABAstWOHTdO7wIAAAAAAAAkG55JDsGtZ5+uvpZ96mNqG6ZtazppxcaMTsnIbFyhXsOlvlZsJLffzv/umm06kUf9/4W+WSYvMfHPlJMXxf4WAAAAAABIFjSSKyDMhvK0+R10+WzZd6tlGtvUe6r5a2HTelqd3/DMbKR031yaM02n8zTOvpw65hf4ZplKxkTbaMP6JmoTzgsAAAAAAEiWmv/z3e8OLpg/XydLq6+v13vh4dHC9vZ2nXLX399PqVRKp4Lr7e2l5uZmnSps2VWX6r3SRjUcR4cH9uhUcUseflLvFdbV1UUzZszQKRkl8/H1n9Hy10+k9g+eqD8Y+n9++SPqSn2YHB8d4TUf/TgqRpeY+LMf9c+gD7+/9DmRH+PrP1tOr5/Y7vr3eCV9PjLpvExqjNLXDY61DBtiZNJx2hBjVcoan3CsZdgQI5OOM4wYUdbIQIwybLi2q13W1NXV6T13kW0k84hhMZlMhhob5UYNe3p6qKWlRacK8zMqPPq4Rjq0x9v039t++pLeK+ynK/+Dun73di4xfaEareWpwltP6qD50zK0ccVqorbptGXVeuob+pGmue3Do8yZjbRiee7zof+ZFnbMJx7rLZWPw79ff0D872ygxsv1/79xBS1fn/utHNPi94+jY37/U1pNC9S/nfv/FxKtWkVb9M8MjzJvozWd+nNqorntl5PbQHB+jEfHxJ+toMycof8/s4Y6003Ufvlsyv0f/G9spZOG/t5GZ6yOPDgqDxeYOPLSBfKQSZ+PzOs56VVSY0yn09TW1qZTweFYy7AhRiYdpw0xSl8zLIn5iBjlSMcZRowoa2QgRhk2XNvVLmuy2azec4fp1j5xY9br15KHvuv6udtXaduo53fHDDXMclOO3acz99H69FCbjr/fPpdo/Yah/2sIN+64rWf+X26zFn0IlxuWued/8xujtG0DrW86STcOc1Oci8dEQ412bqTyzyyk6VvSlJspbRqv+v9tH2rcr3Z/1jinSExq+vd0msbXxLQ5NHeo2b3N/KJtW2nL9Fy8ahr40L+1ePFiap/bR2k/zy/7zkMAAAAAALARGsnWaKRjjumjVQUWrcpporkL9Ahq4zSa3tRHGf7hTB/19a2n5bqR2blqy1B7OlPk90yj+boxeNLWoZ93NAa3be2juUceRm6kpqYtJWLiwWMz4jqNTpo+FIuKKTPUpB/6f01MPELbNxSv+jk3hWPKbNtCTW1m5LiRpk0fapjrVvLIeHMN7e9///tqRLlPBeKR7zwEAAAAAAAboZFsjUY6/v1zqGMB0WpupPkdxeRpzrqRqb6OTEcubtp8Hv3dOtS8HOIcsVUaafblQ7+r3Jia5lK7MybH9OViRsQ09F8ezT7J8T825lrJQ+1wZ7zcQE5TU3tuJLlj4dDP+FVmHgIAAAAAgD3QSLZN42y6XE1bNo1EDxqbqOnINOdSttE2xy/ObEwfma48csTWwRHT7/VHJTU2UlPfetrg6Y94o2BMPJ26b+6ckY3roXjamrbQhg2OeNXIdRP/s8q2rbknoUdqHMqqviOj0EN/MG0xjzD7ykMAAAAAALCVfCN52xrq7FxTuAGnvq+nrOKZTh+GGq8bNui8W0V0ZAqzB9yIXdhE65frfB/6Kvw+4UbKpId/bvmW6dSuHgDO0LYtI0dsOSbznLCJ6Xj9ndKm0fz2udS3avjfKnw+pArExI3dPpo+PLR9xLSTmmiLM15uOE/PTe/m6dZbyX0kedocfpZ7ee7fWj3UrG7S3/CVhwAAAAAAYCvB1a25wbSKtkyfTkNtEbWa8FGNOF78aHkftanv8crBy6mvLW8RpiHcAOHprMVIr7CGVeBK2LaGVmTmlHwnc0Xzkc+nDY10eYEFwwqx4VizJK6eGEaMWHFURhJjZNJx2hAjVreWgRjlSMcZRowoa2QgRhk2XNsJWt1aL6w0/ySdPhpP16UjU2MbaTa/rmgrRpOrhV99tHy5HjXVXwUHc6fNL9lAlsCvlHLGw18/+mW//m4eHt312UCWsL//AK39+gZ6/MpVastpp1LfBwAIy97dGXrsxqV0x4VnqS2nwV755cmB7EH9HZQ1EMzgzkHKfnw/7W5+W205DQDDKvpMcqavj5qcrXt+zhMrBIvzWkmaNr+D2tvbRyxGVYU25wjmNU3Orw+/X/YF614VqoC8cO8memPdDjr41iG1feLqNfT0F9bSIx/9gfritPP76+7drP4/AICwrbzzNup+7lnav3ev2q6866v6O2Cj/PJm9Y0/Q1kDIvZ2HKCDTx2mwf5Btd37eXSyVJKzrv7Du7+BDs0IEpxubfC0a37/7dHTrXnkcsQ7bs27Z/NWCebRwzlz5uiUu3379tG4ceN0KriBgQFqaGjQKRnSMXqdOtH1Xz+mnb/9tU4NO++az+m9YW4xHhz67NXnn6XM73uo8fgWOuWs86jO499hQz56jfE3z/VQ/xt7depoP9r6PfrwSR9V+4NjDlPNgVFq33B+f2b7+9TWD+m8lM5HZkOM0lOOkpqPSYyRScfpJ8ZS9+JnH/hnta0dewy9s/9ttW+88Ls/0Jnv+iO173bvLyaMaXrVzEevKh3j4f2H6Y30DsrueJvqJx9DJ7RNplFjR9Hm5b/SPzHMlCfSZY0N+cik4wwjRtvKmn2352Yl3Hd4GX1+1BK1P+7mOrX1KqnHWiJGZ12d7+FNk6fQjD9bqNISbLi2q13WnHrqqXrPXWQbyTyCWIz0vPgwDlS15u5zrxSPItyTfpmWtp2mP3U3+rhGOrSneO9V69nn0xV33K1TxdmQj15j5BFk7qH/m9Wfpm8u+A/96dFOnDeFZn5u2pEYedSZe/ULOWHeZNqxeRdNnjmRzrxuFo1NjdHfGUk6L6XzkdkQI54Tk5HEGJl0nH5i5FEGHg0uxct9/LafvqT3SsMzyTJKxViqrHDT/MHjaP71H1L7pf7/umNHV7ycYUm9/9hU1mTGvaU/OVrjvmP1XmlJPdYSMTrr6n93wVkF7+F+7t1ONlzbCXomubTGpibqGwr+iEwf9TU1jmggQzC3nn26uuiYaSBzI7eci4wvXLb95+vVNkl4Khs3kJlpIHNj+JPf+whd9uB8tc8VEN7Ou26m+r7BFRLn9/nnnTA9DgC82P5iWm3NvdgN39uXPPRdteWv6596Rt3zx44fr7YGlw38BdHBnaWMO2LzcVnjVt7MuuJk/ROlyxqUM+DG2UCuWzSKalI1amsUa0CDDLe6eiHm3u32ZXh9zBL8qcBIsiON1a0DKdXj4rxguHLEjdupH5hLi66/hcZPcI/DLUa30QuvjWwb8tEZIz9nzM98OUd2+TkvJ66ATJk5STWGC/XGe42RG9/MjE7z7/7Eo+7Ta6TzUjofmQ0xYiRZRhJjZNJx+onReU9nhWb1eIkx/3cVu6djJFlGqRhNeWBwQ/ecG2frlDsvMbrNguIGtxsb8pFJxxlGjDaUNa/O2E7NWyarfbcRY2cD2cuIclKPdZAY3erq75l3Nn30Sze41tXz791e8O89d8nfR/7axkiyU+NsWjC3T72rtrNzOW2Z3l71haLiwnkRceWHK1I3/fh5tS3UQC5k0Q23qgvMORLBv7+cCzXq3BbhMkxPPjdiueJSqIHsB0+1Zqbiwv9ufkUp6bDiJsDIe7q5F3OHZ7nMSLMR13t61LgtAMn3fOd934wE589KKhd3+DLnY0L5/yYkj5cGsPNzjCjLc95znXX1i5a6N5CZuXe7feUzs466f/qM2kIwITSS+VVQzueRR6adqxdX4pVCcZdf0XG7aPziC9XZyHb+zrhVqtymu5nGcRjyp8cZqLwMy19xc/cJIxckAoi7/Ht6uR2ebvLLCFOGOKfq8YJhIKPSHbGs2DRsLmucjXaOC+KNG7t+RojRUJZn7rOGRF2d8e/hr9YPnafSpaZugz+VHUkGUfkXnNRF58b5u53/ru1MBcH53HGYuBLElSFTKXI2xk1Pf9IrL4fWvqO2Mw+corbMFPL5XwBx4qxIhXlPd/vdztdGvfr8Wv0pBFXoueOwOmJZfjnDaee/52y0v/LkNv0pxJGznOTGb8PqsTpVHBrKcipRV3ebAfrAF69VWygfGsmWyr/oKsH578ShoewcvZWe7uaHGU0wkl554RFktnnMq2rrXFAkn7PBbL4AbFSte7rz3zJT9TK//53aQnD5U5+5nAmzgVwM/7tc1jHTaO/bvkdtIX6c5WGp0WM3/P+Y/w/la3kqdV8vNAM0DnX1akIj2TJ8wlejMmU4/z2bLz5nA5krDtLT3cqBygtR/xnD0zzNipvj7xtzpLB2fhViCnPzxe+CROEOUVbNezrLn6p3+OABtYXguMPTqFZHrFN+o/3QvsNqC/HiLPOKlZdeOP9/lKXu8leXrnZdnV3zrfvV1ua6erWFsLp1cLy6dXt7u0656+/vp1QqpVPB9fb2UnNzs07JCBrj2wP99H/vv5d+90oXvevUGbRjYC+99dov1feWPPyk2gZVbozLrrpU7+WYeKKYj+xA9iD94tFXadevdtP+MW/TqD25xvDFy85V26AkYkx/u4t2bMpNzWOHjztAi7/m/dosRfqaYdLHu+eCP1D9zgZKvVT+y+r7Tx/5POWvznqF3vd84RfG+/23bMhHxChHOs78GJ330nLv60FjVGXNv91Hv3t5Mx146y069uT302duuV1/V0bY+ShBOsbvf2VN5MoaLgs3Pfoa7fxVhg69fViVMxyjVHxMOh+ZDfefrq4umjFjhk4FV06M+eVffvkWJB+dv9v83qQe6/wYf3D312n7xqNfl+r1nh5mjKaMkWg3SMcpfc0wPzHW1dXpPXeRbSTjFVBHv4qpfuZsym7eKNojFTTG/J6yqL5Ogp/xNT36h5v206i+saJT3iRi5FVP+X2Wb27eqaZcS8cpfc0wyePNPdT9U/bQe359vP5EhnnFgN8e8EK971HPR4YY5UjH6YxRaqRBOsb/9fm/jFxZky9qxzr/dYJc3kS1rHF68DPfVTGypJQ1LIwYq/0KKC+jx0HzMf/fSOqxzo+RR5B5TQd+ZMXMyPFz/ww7RlPWBL2nS8eJV0BB2ba/mFZb85wYk6y0SHDGwxfhI9cvUY37qL3IPH/xFDO1OUqci604KyvOqeFxVYkpXFygu30VwjG5fbnBa6vAL6kGcpicMUJx+atYG5IN5DBccPuZei8ZZU1cOcumYuVaUM7fXag8TKKpZ+QaeqaBbBbPigpTxuCe7k/t4CAqc9JMZZqfrwxyE8m/6Ca9e6raOm1b00krNgo3SLetUaP5ua815LZ8FP+7a/Q3nBW8A/v20ZaByfTgv92tPxHiIabMxhUF88KsFG2ew5oyc5LaMuffEiX5lRfnezbjxHmNpF4sf5p1uZwNZudXIea6dn7xa6qcr63a+3k80wkjmWfWuCMx6g3k8675nN5Dpcort45Y5z08yvI7ZZ2viIpbeRNHzjK0WNklxflvONcRSTLnrM+g77QPG+7p3mEkuQKcNzA/8i+6U846+pmhafPl3ze9LdNE7fpd1h0LiVat2Egjmp6ZjZTum0tzhl+GrZadZ090/4YO/WIFZdb8l0pLKRnTULN5w/omanPJC2fvOFdcmk9tqvriKV45Ky9mhIKnZMdRJQp3P0xjOf+rGPPaqkPP5l5jBWCsvPM2dU/njkQjqiPIzBkbKlWl5S+I5eyItYGzrHGOiMe1vImLSjeQDee/VW4dN474vin1TntpuKf7h0ayT3wzKPXlxu3nnF/FmIuublxlRtmmzZ5NRy7vxiZq0rtGZtsWampz/MwQM+p9Wet71HbqB+aqrZRSMdG2rdQ3dw452u2Ks4HMlQCeyjzrkydXdRVrv/JXveZnluPCnPuVLNyD4tFu02A2X4Z5bdXo83BrhZHM4zPckchMx2KURbkRHzXOKdZRWMW6HM6GchzLmzhx1h3zy6FK4X/TzP7yUpeNK9PgtOF+iYayP6jJRZTbRbfv978cnnKs5wcPTxXO0MYVK2jjto20Qv/MiKnHmeHPC01XdpXpo76mRkeDOEPbtjTRSbo1ylOc+XfufvcpNOWji2jMUEN+9B9fTjv7N6nv5+LbRmvMvz1iXrPj886h2L3OGj8qJm4j99H0aUOf8LRsPcqcayC/RW8v3El/MlT4m1i///3vD23d8kDn4ZE48tLl5mFA+SMUZuq47eJUoE5445gR73M+uBKvVYGReFEXFlZHYlhMGYQKVWH5nbHVfp1gECfMm6y2to6IJ4Gz7KxG4zifM4akNZRtvC/mN5TNa6uitpZQFKCR7JPpsfPy5TbiVOjLyf2i20Y9vzuGFpopx/Pzx0xZH61PEy3g77cPVcDWb8g15Lhxt1p/bqYre3oId6gRu6qP5jrnVW/bQOubTtIjtrkpzkdi+h9fpU/etUx9h5m/Y8uqrXSS+pmFNH1LWjc6uYFsPh/6ap9OW1bnT6F24xKTmv49nbiNTNPm0FzaQk9+Sldajn+LDk4/W8XbOPty9W8tXryY2uf2Udpzq3xI2XkY3JnXzVIjE87FxpyVMtvln/82qplUQ/WPj43F3wLh4o7EqD+zVggaykfLbyDbzpQ3ho0j4nEWtQay4YwliSPKNowiOznj5Q5cfhRo5V1f1Z+AgUZyhI286BrpmGP6XJ7FdWqiuQv0tOTGaTS9qY8y/MM88tq3npabUdBVW4ba05niDVK1UBY3Yi8n52O+PGI73EBtpKamLUfFtOQaRwN2yPSF83WjehqdNH0oFhVTZqhJP/T/mpiWrx+KcShe9XMFFIjJTP8+tv8Arf36VnrtpSwdnHJQfe9PPjbOEW9u5JpHkpev5zwp+q+NVE4eCim06rXNTCEax0al+ZuSWFEAd6Zxyfd07kiM6jNrheSPPMDR4nJvNuWN+XueuHqN2kL1RbWBbCStoey8r9vIPPJj3qCz/edHv+c56dBIjpjCF10jHf/+OdSxgGg1N9L8jmJOX5gbATVfl498pngEboxuPWno50zjVnOO2CqNNPvyod/lElPzNU+o7YrhtceO1jR3eDEu9ZX37zkVikmPZvP0b/MKjnfeOIZo8lvU/MHDjni5gZympvbcSHLHwunq//bFTx6GyFRebB1NRuMRkiQujUo0lI9m7sFxaSDns72siQsuM6PeQDaS0lB+4IvX6j175b9Bx5ZHgCqp5on/838GFy4YauV4VF9fr/fCwyN13JApZmBggBoaGnQquF27dtHEiblnP6X4jdF50V3zrfv13rDu7m5qbW0d2vs9bfj+7+hdi+fQ0A797l2Lac7xA/TaMxuI5pxPJ6t/0pGm1+iZ/zv0839qvjfs6Bj5/3uVGs6fQ8frT4yB156hVxvOH/q39Acj5GJKfWgqHb9rE22gOfTrZV+iMbMuoTG9T9HHb8r9Pb8/Ei///HqiubyvvlXQwMCOof/vddeYhr5BzwycQucP/WHP3p6mQ/sO0z9t+AZ1tP8VvVNbQ83zL8r9/gHOg35qHcqzMUPH+sD252g9zaXFQ98cjikXX3fqT9Xvy/0/Ot+K5CGTPh9ZsXPyJze/oPdGviqqmErH6GZgwX69R9SweqzeGxZGjMPXjQyvMZq/1e3vzCd9/4nCsS7FhhhZ0DjNfd3c06MYY75i10z+3+OVdIzVyEdeD+LlJ7dSZnu/KmuMQvdgG451qRhtLWtKCSPGMMoa+vPhZ9u9lCWlVCofS5X1xdhwrB++9ct0MLPT932wkGpcM/uyA/T88gfpzddeOfLWhVJ/j3Sc0tcM8xNjKpXSe+4i20jmkbpiMpkMNTbKjeP19PRQS0uLTsnwG2PxqRvbaEXnKurTqekLO4gfS+aFsbaexPu8yBQ/NGumIueleSSWpwhrTXPb1aujjo6RR1xX0fBPsiaa287DxRuo8XLnSO7In+WY3j+uh475/U9pNS1Qv//rX+mkcb/9F/rSQ7m/aTjeoQQ/58vTrNV3hvBIrcuz1pnMZtqw/DmXmC6nxg0rKDMn9zeO6O0+fif1zxpHCzsuPxIv/9smC6ZPnz70+05S/17BmJqm0/ShvaYSecikz0dW6pz0+yxcNWLMZ3qWC/WEhxFjOp2mtrZcj6kErzH66fmXvv9E4ViXYkOMLEiczhFXc1+PWoxuSl0zxcsqd9IxViMf+b3BzlWsWbF7rw3H2kuMzrKG18bgxST52eVCi5NJx8ik8zKMGKXLmt+89/eUevM4tS81elzJfCx39Dvqx5rvf2Mmt9BXnvih/iS4al8zbmWVG+k4pa8Z5ifGbDar99yhkaxJX5TMT4xeKh1VPZmGGogrMnNKvpPZLR/LqVA5FYyRG7QbGuly3bA2BTkX4rwiJy844laIV/tYe+UlTvM329BI9lJghhFjtRrJrFSngCF9Tlb7WHthQ4wsSJxu976oxejGayOZeb2vS8dYjXx8/MpVajSZX4/Eqz9zWcNrRRRiw7H2GuOITughvLgXP7vsRjpGJp2XYcQoWdZw2dE/ZY9qJEs1kFml89FZ7jMvf0uUj7W598Wtkcy81NWl44x6IxnPJEeAs8JRSTyCunz58txCVPqr4KPO0+aXbCCX4uXvNK9pcn796Jf9+rt5Gmcf1UDmxiJXWmx+BYcfzmfGuALHIx37+w+oz6Kk3B7luMivKED8ealw2Mr5N/HfmZTXh+S/ji9Jr0eK8/v6oyZO5SXH7/wb4lIWSk2zjqJqtUmiCI3kCKl0ZWra/A5qb28fsRiVy2znwPz8XeY1Tc6vD7+/+DMD+T3cScUjHDwVcN29m/Un0ZO0BnISOwQgGZWM1g+dp/coMa8PMVOtucHII6lJej1SkjsIKoUbkKYRyWUHv0Y0LuLQUI5zxyeL698VBBrJVRb3i84wf5905dHZQPYy5TiOot7D7yz0k8j83XHpQQfv4nxf3/5iWm2T8voQZ1mTpNlKBt6fHC5n+RDXstLmhnJSRlfDqqvbCo3kKkrqSRj07+bpxDytmKcXG0ltILMo9/CjYTgS8iP+knJfz399yP69e9U27pJa1uD9yeFJQgPZsLmhzJI02oqG8lAjeXBwUO9CtSTlopP6O837kHl6MXP2bieR6eE3I8qvr3tTbaMk7gV/KUn/+5Mo7vf1RTfcSq1nn09jx4/Xn8SXc80LGIZHnYJLUgPZsK2hbBqLqKsnD0aSqyRpF51h/t4gPVQ7Nu9SWywgkmN6+J2rrEah8mIKPzQQR7Kx9xy8SdJ9ffyERrrijrvpph8/rz+J18iDmbGEhuDR0FkQHJcDSWwgG7Y0lON0TytH0v/+2gP7h1/4DZWR9JPOKDcfsIBIYVGpvKAheDR0FsRbku/rcewUMDOWjKTPWMpnyhp0IviX3zhOatkQ9Yay856e1AGtpKv5zhNPDF64sPB7/vJV6j3JvOpyMf39/ZRKFV/12I/e3l5qbm7WKRnOGN8e6Kf/e/+9tH3j8OImSx5+Uu9509XVRTNmzNApGdXKx2VXXaq2XvIgP8anl6zVe0MN5FmTaNaVJ9OY+jr9SWlhH2sp5cbpzJ+Ll52r9yoXY//p+/QeUeolf6tzhhGj9HUTNEaTP868kT4no3Q+FmJDjMxrnF7vadWM0atyrhnz9zO3PJCOMex8/PHfP0eH3j5Md/zsJrrpg3fQ6GNG0YX/60Pqe17ZcKyDxFjtsiaIMGL0ct34KR+TlI/OfNm3uj8SMRa7p9twPkrEmJ8H0nFWu11TV1e87RDZRjK/+qcY6RdaS7+8nDlj5PdI8msyDH6Wi6eq+VHtl2574ScfTS8dP9PGi8DwM248hS9ffoxBnw8L+1hLCRKnWx5VKkbTI1xO73gYMUpfN0FjdMsf6XMyauejGxtiZF7i9DPiUK0Y/Sj3mjH54JYH0jGGnY/5I6Q8ksyPtfhhw7EOGmM1y5ogwoix1HWTP4JcStLy0eRP7/QddErXVLUvwWuM/K73lXfeplbudy5E6HY/s+F8lIgx/54uHWe12zXZbFbvucMzyRWStNdl+ME3I6/v2QzaQE6Kak2FC9JATgqTN84KE8QDpqjlODsNbJfEdyL7cdmD89WWyxp+hpuf5Yaj+W0gJ5EzX6pRPnIDmeuipRrISWL+/jjd0/1AI7lC8l+XMfUDc9U2ycyqqF47Dird4IsLU3k5kD2oPwkHGn3+Ic/sV2z0NGnikgfOsiaJ70T2g5/dNvgZ7nX3btYpYHyPN/d5bgSigVxcNRvK+YNZpo4KOUlsKKORXCH5U60XXX+LTiVXuR0HGEX25oR5k/VervKy6bHXdCpcqASUhjyKh6T2rhcTp5EHlDWl4W0ThTkbebjne9eweqzeq2xDGYNZ7pLcAYxGcoXxycbPIrs9e5s05j2bRrGOA4wi+5dfedn52m61DYOzpxz8qXRvOcjDKHJ8mLIGDWRv8t82cfCtQ2qbdGggB+PMs0qVkVwnNTCY5W7Zpz6m95IBjeQKwGiDO/OeTeOuS4YbzIWg4uJdfuVl0skT1FYaGnnlQcXJbrivFxan0WQo7szrZqlntvnZbchBA1lGpRvKzjooBrNGSmpHMBrJFYTRBnel8uXpL+ReM4EGsj/5lZc3N8lPgxtYMPyedVQG/DN55sxHsAvu6/GBssY/flabn9nmZ7dNvpl8TILBnYOU/fh+2t38Nu27/SAayMI4D00+ct5WorGMe7o7ky9J6vxEIzlk6En3Jz+/MM26fM7KixFWfqIyEFwlCn+QYe5TqEwVZluFCmUNlGNvxwE6+NRhGuwf1J+MbNiBDGd+hlFWoq4ObtBIrhBUpopz5g+/QoJXY378ylX6E/TsBxVG/qFRJwOVKbugMhVvKGuCMfmXlE6HQ2vfUduZB05R25pUjdqCvLAbygx19eKWPPRdtU1KOVjznSeeGLxw4fBIUyn19fV6LzydnZ20ePFinXI3MDBADQ0NOhXcrl27aOLE3DOcUh688Ut0eO+A2r/mW/erbRDd3d3U2tqqUzKilI8PfPFatf3AvL+nP7ySUfvsnWMO0YKvfEinggvjWEvnI5OOc/XXnqPat3NTry+4/Uy1LZeZHrz7XX104gPHq30JYeSj9HUTRoyvX/N7mvC7JrXvXNmzXDacjzbEyDjOuqF67/OP/Se9+atuOrBvn/q83Hu6DfcfyWvG3Ncv+9rdojFK5uNPbn5BbZNY1oQRoylrgpYzTtJxSuXj2//zIB36Wa6hvL1tC71vzMl0zK11Kh2UDffIasTofDypZjzRqD+upXFfGk01x7l3UJSK0dyjmNf7ehzysRwc5xNf+ZJOBW/bVLtdk0ql9J67yDaSOzo6dMpdJpOhxka5h+p7enqopaVFp2T848Xn06E9GbGeqXQ6TW1tuSXqpUQtH03v1MkTv6ZWZeZFp2onDdIV91+sPpcQxrGWzkcmHSfH+MNrfqb2g46WmF7ct7ftFo9ROh+lr5uwjvUx03ILq0mMLNtyPkY9RsZx/viu20a8xo+Ve1+34f4jec2Ye/rSlc+Ixhg0H3nGEr/jl98CYFZkvuiBD0YqRjfSxzqsGKXKGkM6Tql85GeSd5/wttp/+Yub6IPXz6OaSTKjydLHmkU1H528xJg/kly3aBTVP+7ewVwqRnOP8nNPj0s++mXiLCfP3FS7XZPNZvWeO0y3hsgKe1XmJAsyFc4UTpgmLMvkJ6axR8/2F9Nqe0/6ZbUdO3682kJpphIVtVeHcAOZ3x9vGsi8yCGAX6aBzPfvMR8fJdZAhuLMtHYzzf3Qs7nRfKisuE+7RiM5JFK9LElj8uu1XV9RW664zLriZLUPwUmNIAMkydQzcj3dS9tOU9upH5irtmCv/PfIv7lZfvX/JEvas8lQWaPPzTVfNo95VW1Hn1decwZ19fI48+uOC8+ix25cSnt3Dz8mGRdoJENkcSHLqzOPqZd5vgdyJCovGEUOB0aTo2nRDbfqPaLWs8+nRdffolPghalQRWnUIf898lNmTlJbkBfXhjJmVVXP+M4xaoq1GVE+uPKw2kLltH7oPLXdv3evehxp5V1fVek4QSM5BKYiYFaBA3/4eWQW92kctkGFoLLQUI6Ouy45X225sXfFHXfT+Amyz44lSVTu6/weeYNnLM27bqZOgRSp55EB8vG0dn4GeULvMfoT/zCKHEz+Y0jbf75ebeMEjWSIFEzNqozLHpyvtpzf/LotXsSmGDTYKgedEBBHUes0fuLqNWprZizxe+UhPHEr29FpHB2YgVUdSXgMCY1kYeiZkoXR5HDwojUGL16z7t7NOnU0Z8GDCkFlodCvvqgtOBUHuK8nB0aTIYpQVw+OH0Pix4+MOD6GhEYyRIbpaeZCFTeucJWzaA0ayJWDvI4e3JOCi0oeOssaqJy4jCaj8zK6cGwqhx874sePDPNYUpygkSwIPVPhwEiOPK+L1pgCB422ysMUMogzLi+rsSJq3Kb92iCunREoF6PDz7FAXV1WnPOx5jtPPDF44cKFOllafX293gtPZ2cntbe365S7/v5+SqVSOhVcb28vNTc361R5ll11qdouefhJtZWOsauri2bMmKFTMqKSj08vWau2Fy87V20NztNRDcdRR2euMSdB4ljnk85HJh2nM8YD2YO06dHXaOevMnTo7dyqkPl533/6Pr1HlHppnN4bKcwYpUhfN5U81l6OgRvbzkcp0jEm9f4TZlnzg7u/Tts3Di/wMnXOPPrI0i/rlHfl5mOhsoZJ56MNx7qSMRbL+1Kk4yw3H4vdk20ua8oVpRjNsck/Lvkx5tfVyxHnfCymUJzl5mm12zV1dcXfnhPZRnJHR4dOuctkMtTYKLfCaE9PD7W0tOiUf249U9IxptNpamvLPSgvJSr5WGj6G+fr6OMa6dCejFhvVdBj7UY6H5l0nIViLJT3XkaRKxVjENLXTaWPdTmj+Tafj0FIx2juP//w9DP6k+CkY2TSeRlmWcPv1ORXhvCKqLzgy9jx4+mmHz+vf8q7cvLROYrsNropnY82HOtKxmjyv+7Y0Wo2E68w7nXBNOk4y83HYvdj28uackQtRrfj44zR1NVZkDpl3POxkGJxljNCX+12TTab1XvuMN0aqoZXVOaVlU3BaVZcdorzNI6oMJVFZwWynIYZhMscE6gMU+DjVX6yorAialyn/0bdCfMmq+3Btw6VXDASIEyoW4IXaCQLcPZMgXe8wjIXlEapAhP5XBlojEULOiogTqq1IqqzExCqo5wFI6MEncfRZ46NWz0GdchwmY6HOOVz7eDgoN6FoNAz5Y/XAhMjOeFzG01GRSA6ihX8IA+VqfCYFVFNeRn2iqhmxpLhNmMJKsPrgpEAYUJdHbzCSHJAqEyVDwVm9Fz041yFFQ1kAFSm4sDvjCUIDz+DfOK8KTpFNO+6mXov+jCKbA+3TmXU1SsrLvmNRrIQVKb8MxUXXsSDC85iBabJX9zowmMayBBNGE2GuArzvm77FN844UW6zrlx9pGZS09cvUZtASoFdfVwxS1/0UgOAA02GZ94dKEqOL2ucgnynA2vH14ot5IvhAMN5fCY+zoqU+GrRB5jxhIEhVFke6GshCDQSBaAypR/5tlXP6uMmnxG50R4TCUAi9xEEyppAP74mbEElYeyBsLgLCuXfepjaou6emXEqa6ORrJPe3dn6LEbl6KhBrGBXnI7oYdcHkaRK69SFSrMWIoWW17Dhfus/a7uelTvAfhT8/h3vjP44Qsv1MnS6uvr9V54Ojs7afHixTrlbmBggBoaGnQquF27dtHEiblpWcX8178uo99uHq5AvXvWGfRn116nUyNJx9jd3U2tra06JaMa+fiTm19Q2wtuP1NtS8mP8YEvXqu213zrfrX1y+ux9kM6H5l0nG4xDizYr/eIGlaPVVt+h+XaO3Krwf7RqY102qUnqVEYN5WIMSjp6yYKx9ocN3PM8tl6PgYVNEa3e4t0nNL5yKRjrHRZU8493Us+Bi1rgrLhWFczRnN8WKljJB2n1xhL3Wud4ljWlBLVGPdlB+j5x/6T5n7nr+itpiwdd/8YGlcf3evGhmPN/MTp5b5e7XZNKpXSe+4i20ju6OjQKXeZTIYaGxt1Krienh5qaWnRqcLuuPAs2r93L92TfpmWtp1GY8ePp5t+/Lz+7kjSMabTaWpra9MpGdXIR79TrfNjDDra4/VY+yGdj0w6TrcY3UaR+XUpztVgeYoij8C4qUSMQUlfN1E51sVmANh6PgYVJEbnSKbz3iIdp3Q+MukYK13WFMr7YrzkY9CyJigbjnW1Y/R6jKTj9BKjcxTZy0yruJY1xUQ1Rp7x2f3cs7Q0/TPqn7KHfnblXerVc1KSko/5/MTppa5e7XZNNpvVe+4w3dqnqWfkDiY3kNnUD8xVW/BG8vmjsKfnxV2hRhZWg7ULpgPKKrfzDcoXRp77bSBDdUnWDaThUST7bH8xrbbvpQlqe+H//praQuXZXFdHI9mnRTfcqveIWs8+nxZdf4tOgR9BKi7XPzW8+jL3FvJz4uBPsYYVVoO1AypuctDhBlAdUe3EQOej3fIHtKDy4tDhjEayT3ddMvwuWZ66MX6C7PSIOJPqKV555216j9R0mpV3fVWnwItSU8jOvG6WmmJtvL7uTb0HUYUKnQyMIlePyXuJDosoj0qCXdAZaSeuGxrP/cU31RblJPiFRnKZUJkqX9CeYzONhp8LZ9t/vl5twZ9ChT+v/srPIGOaYvShAgdQGO5hdrjswflqy50bvCbG/v4DKg0QFNfVL1p6g05BpUl2flYDGslgHTwXXj7Tk4rGVXyYY4le8vKYwhsdn9ERpEKFUWT7vHDvJr2Xe6/1uns361R1oJyML5ST4AcayT6gMlU+U3GR6Nnn58L5eXBeWZx1/3T4GWUorP+MfXrPO3O8UPEEgLBJlq0YRbYHFosESW51dXR4VI/No8loJENoeMoUT516/MpV+hMZ/Bw4Pw9e6NVbUBwKi/jBaHJ50PEZD2GVNVAZUVosEqPI8YdyEryK7HuS29vbdcpdf39/yZdA+9Hb20vNzc06dbRlV12q94iWPPyk3itOOsauri6aMWOGTskIMx/T3+6iHZtyPcRsyqxJNOez79cp74rFWM5xKXWsyyGdjyxonIOZQXr7toN0eMM7NJglyk4aoJaf/JH+rj9PL1mrthcvO1dtDem8DCMfpa+bKB5r1n+6Y6bA/zsQyRidopCP5v5R7N4hHad0PjLpGKtd1ng5Ls58rERZUw4bjnUUYjyQPUibHn2Ndv4qQ4fePqw+q1ZZY+6jqZfGqa0fSSlrnKIYY/79wxljkOPrlIR8dFNunIXq6tUua+rq6vSeu5qoNpI7Ojp0yp30i7dLvXS7nBEH6Rir/dJtL5z5yL36B986pKZQcQ9x3bGj6ROPLlTf86NUjH6PTbVfsO5V0DizH99PB5/KVTgYv1D/Pb8+Xqf8KTRdXjovw8hH6esmisfaONJD/vv9kY3RqFY+8ivjeIV85+qnxe4d0nFK5yOTjrHaZY2Xe7ozHytV1vhlw7GOWozVLGuCjiInqawxohaj273DGaPUTIG452MhQeJ0OzbVLmuy2azec4fp1hAavG+3ug6tfUdtZx44RW1rBPq38GyyHcp5/jwp8hvIvL4BRJOpVJWCsiZ+UNZAGPBoEviBRrIHfkcqIYfft2vwe3fnXTdTp2SZ4+K1QpUUo8/NXd6bx7yqtqPayr/csQiOHfAcXWl4hVz0+S1rK1XWQPiqVdag0WQ/1AGjzca6OhrJEJonrl6j90i9d5ffvwuVM75zOL/rFo2iY/6h+LMXXqGHP9rQU14cXiEXPyhrQAo6Gu1XqpMNZWR18KNOxmM3Lh2Rjio0kiF0GIWsjt0nvK33iOofH0s1jTU6VR4cR/ugEnA0foWcwVOtF11/i05BlJQz6oB7VDyY41ipDlncJwHCx486GfzI08q7vqpT0YVGcgmYam0HG6dxVEoYPeO8UA6/coUXy4HoSb0YbOXOOONXyBn8KjlnGgCSC6PI9vJbV8docuXZ+KgTGskQikIrVILdTpg3WW25cfzGuh30ypPbVBqiC5WAkdDxaZ9inZ8oa+INj/cAxIONjzqhkVwERiXthOM23DCS7hnfsTn3LlJ+1Qrr275HbSF6MCoCtkNHRnJVqtMjrLIS7IGO5MrgR534Eaex48erdPdPn1HbKEMj2QMU1P5Uq+cXxyl8+a9aaZp6nNpCNGFK2UjoQIsXjCInA0aToZhyZwehY6Sy+NEmfsTpph8/rz+JvprHv/OdwQ9feKFOllZfL/Cy1RI6Oztp8eLFOuVuYGCAGhoadCq4Xbt20cSJuQaA8cAXr1Xba751v9r6JR1jd3c3tba26pSMMPLxxbt/pfYvuP1MtQ3KT4xejpnbsQ5KOh9ZuXEOLNiv94gaVo/VezIx8jRrnmLd+0qfSs/smEaT39Ws9iWEkY/S102UjnUhzhjN+eA8F8oRZoxSSsVYzj1dOk4b7j9RK2vcjhvnYzXLGi9sONZRj/EnN7+gtmd86X3i9x/689wq6EHvjUbSyxopfmMsdV8vFmO55WMc89ELqTjNMfuTz/9dVcuaVCql99xFtpHc0dGhU+4ymQw1NsotuNLT00MtLS06VX7PlJN0jOl0mtracnP6pYSRj898/kW1L9W77ydG50hRoWOXf6wlSOcjKzfOQtPHJGM0Pfvn33eGaF6GkY/S102UjnUh+TFKTCkMO0YJpWIs574uHacN95+olTVux+3Bz3yXRvXlKrbVKGu8sOFYRz1GU9bUtByid534LvVObIlXfHGMdHzu/JEaUURZI8NPjF7qfKViLKd8jFs+eiUZJx+7+pmz6e/v+zf9iQw/MWazWb3nDtOtQZTp9a3W9LcgnRrgnTm+5niDHZI87bqcBjJEi7NCbGCqdbyZxSIP7TusFotcd+9mlQ6q/4x9aospt/GA+zqEAY1kgBiRGDGE+MH5ADZDBTi5zGKR/7ThG2r75uadagsgxZSPSe5Eria3zs+oQCPZBUYc/Nnff0C9M9dMi7rswflqWy3muEX5wosDM4KDRVXsgooA2CxKZQ2EzywW+YU5X1bbKTMnqW0QuAfGA+rqdrPhuKGRDIG9cO8mNQ3KkJoOBf6g4IdikjyajMqU/cyx+78/zC34wlDWxB8/g3zivCk6RTTvupl6LzjMsAEDo8ngBo3kPBh99C//3bmYDlVdKPihEFQEIA5Q1iQHL9J1zo2zdSqXDgL3vnhAXT1eono80UguACMO3uW/O1diOlRQ5vjhRhou8+oVTLm2DyqLYKvrZr+Ldr61hppOkXl1D0SfdFmTenGc3gObhVFXR9lYOedd8zm9F01oJENgPB3KaD61SXQ6FHhjbuoYRYZSknaOYKp1fJx85jl6j+jtQ7+hHXuf1CmA0tD4gWJQf4J8aCQ7oDJVnieuXqO2vJDTrE+eLPIOQ0kYTQ4XFvCyFyqNYJMt69ap7T3pl9X2N5s2qC0kS9CyBo0hu1Wiro6ysXKiPPOz5vHvfGfwwxdeqJOl1dfX673wdHZ2Unt7u0656+/vp1QqpVPB9fb20uN/+9dqf8nDMr3T0jF2dXXRjBkzdEqGRIxPL1mrthcvO1flY3Nzs0pLCRLjsqsuVVvnMY1ajIV4jbP/9Nz7HlnqpcJTyMKM0XkOBBFGjNLXTTWPtVdeYjTnTbFzxqkaMfqVH6O5/lm593XpOKXzkUnHGNWy5t+v+Tt66+BWtV83qZlOeO9U+sjS3KrHEpJ4rG2IkZk4g5Q1znteGDGirJFRKka3el0xfmP0UjbGIR/LIR2nuWb8HtNi/MRYV1en99zVRLWR3NHRoVPuMpkMNTY26lRwX7vsIjqwo0ftS/VOSceYTqepra1Np2QEjdHZo8sjij09PdTS0qI/kREkRrcex6jFWIjXOL1OtQ4zRnMemFHlcoURo/R1U81j7ZXXGP1M069WjH7kxygx4iAdp3Q+MukYo1rWHHpnr5pivffAKzRmcgstvf8RGj9B7u9O4rG2IUZm4iy3rMm/14URI8oaGaVi9Htf9xujl3IxDvlYDuk4zTUjOTvAT4zZbFbvucN06zxSDeSkCdo4Cos5nlGcxhEnmHINAGEbXTuerv+vx3SKRBvIYAeUNckm2Zgq5EhHCqZcV0xU6+poJANYzM9IIEC+OFcG0DEWX+j8BD9QTgJAOdBIHlKJnqk4kppiC/Fw2YPz1ZbPi7Vf30D7+w+oNNiBK5LZj++nwZ2D+pN4wH3dfihrwA1Gk5Olkp1iGE0GVjs4GK8KkR97d2fosRuX6lQuDfET11GHqN28X7h3k94jemPdDlp372adgiiru2SU3iM6+NRh2vt5dG4AQHT56SzBKHL8oOMznqJYVxcdSc5sXKEW3eKvFRvdG5zb1uS+n/taQQV+rCJW3nkbdT/3rE4Npe/6qt4DsEdUCv8dm3ep7d+s/rTavrl5p9pCtB1a+47azjxwitoeejaXthlmB8VHodHCa751v9rGrfMTAKIFo8nJVfvb3/5W7wa0bQ0t3zKd2js6qKNjITWtX+3SAM5Qpq+J5rbzz/DX5TS7iutubH8xrbbmnYvbf75ebaE0W6e/oUIVnskzJ6rtNxf8h9pOmTlJbSHaRp+b6yvdPOZVtR19Hp7CgejBVGtwMudDsSnXaNzERzU6PjH7AGpXLF+hd4PZtnULTW+bTbk27zSaM5doyza3YeImEl7lvGxTz8gt1b+07TS1nfqBoaChKH7OlJ83NWx57jRuI0pRnEJ25nWz6MR5U3SKaN51M/UeRNn4zjFUt2h4yvX4+8boPYDqsbWsgcpwng+l1sBAY8deUXksEh0ulRG1Kde148aN1btB5EaImxyN38bGJurryz+ZM0OfbaFVJaZkV8qiG27Ve0TvnnUGLbr+Fp2CQvi5U37e1LDxudNHrl+ibrp4Bl3W2NQYOufG2TpF9MTVa/QeRFnNpBqqf3zskYrk7hPeVltbYap1PHgpa6JWoYLKKbUGBho18VDtxyLRwZJsNd/6p38avObTuWcIvaivr9d7ThnauGI10QLH9Olta6hz60nUMX+a/iDfNlrTuYpoYQfl/wg3oOfMmaNT7vbt20fjxo3TqfI8+8A/q+1513yOBgYGqKGhQaWlSMToFMaLwf3G+Mv/s5XeOfgO/Wjr9+jDJ32Uautq6f1/fpL+LkU6H7v+68e087e/plHjG+jw3gGa9O6pNOPPFurvBiN9rFmhvNx3+0G9RzTu5jq9V1olY9y8/FdqO7P9fWrrVRgxSl83lczHcpUbozm33M6rqMRYDMe48YlH1D7f1yVIxymdj0w6RpvKGmc5HlQSj7UNMbL8OEudH8XuZSyMGFHWyHDG+NOH/50OHzxAL/zuD3Tmu/6IRtWNobOv+oz6nldBY3Q7l2zLRynScbpdM+aezsq5r/uJ8dRTT9V77mrmz58/+N3vflcnS5NrJA/9XxtX0GpaQJfnPZjMjWR+ZrmYTCZDjQHnbTtHHMKoFEjE6JROp6mtLTdFXIrfGHlak7N3n6fXOkcPo5yPd1x4Fu3fu5dWZg7SosY6Gjt+PN304+f1d4ORPtasUF6WO9W6kjGW+8x6GDFKXzeVzMdylRujc/Ql//yKSozFfO2yi+jAjh61LzWSLB1nlO+RRhTKmvxnTQuVNZIzB5J4rG2IkeXHWawuUuw+ZoQRI8oaGc4YedafcyS59ezz6Yo77tYpbyRizK932ZaPUqTjLHTNBLmv+4kxm83qPXe1vb29ejeIRmps6iPn7OpMpo+anPOvIRZMoVR37GhVKNn03Kl5Bv2y1veoLZ5BD4+XRVUgeuIytUyqgQzVV6qsMccaU66TxayBwecHe33dm2rrFJf7WZI5H4vkBjIei4RKqv3zP79M7wYz7aTptCW9kXLt5G20YT3R9GncSOZp1WuG/pvP+TOVJ9n7nESfeHSh6rXl51BtwTdbvskaNt5syx1FBgCwkY1lDYTPrIHB5wfE112X5OpsXFfnEeTxE6rTZjB1LucsBQhftTs/a09pzb0bM7Bp82lh03parhbl4meNXV7vlNlIK/SiXQV/BiLL9lFBvrk6p+lU62abNBhNtoutlQGMJMZHufcMnAOAjmQA+0VlAFP0hZjT5pv3HzsX45pG8zvmD/13SONsulx/f+TPgE3wvsrqsK3RgvMEqgGzg+LD6z0ExzzZ8HgPVAJGk5NHtJFsC0y1TrZrvnW/2to66oAecgAAgJEu+nFuai7KyHhAXT3ZzHGvZl09kY1k8M/00GJ0EPxAD7+dbOkx53ed8+qnphD1u+opRE/QssbWzk8AsMfAgv16D2zlpV6KRjKABfCcFcDRVt5524jXgzy//EG9B0mD0aZkM6PIP7zwGbUFCAPqYMmSuEYypm8Ai8I0DoAos2E0efuLabW9J/2y2r752itqCwAA9kJdHVhYdXWvsxtrVjz++OBFH/6wTpZWX1+v98LDq1+3t7frlLv+/n5KpVI65d2yqy5V2yUPP6m2Br8vurm5WadklBtjIV1dXTRjxgydkuElxqeXrFXbi5edq7bF2JCPJsZC50I5pGNkJs7+0/fpT4hSL43Te/6FGWMpXs+hMGKUvm6qmY9eScVozj0+76IY4w/u/jpt37hep4je/cFzadHnl+qUDOnjLZ2PTDpGW8sac09n5dzXk3isbYiRFYvTWUb+vw+tU1uUNe6kj3dYMT7+t3+t9qNaP9u+6A2a+NtJgepkTjYcayYdp5drxm9d3UuMpqy59F8uUNtCIttI5tWvi8lkMtTY6P8VPoV6p3p6eqilpUWnZJQbYyHpdJra2tp0SoaXGP08I2ZDPpoYJXsqpWNkJk6pqdZhxliK13MojBilr5tq5qNXUjE6z70oxsjPJJv3aPI70Od9+nM07WSh1xpq0sdbOh+ZdIw2lzVB7utJPNY2xMiKxem8T6GsKU76eIcV479cfpHaj2r97NUZ26l5y2Sx6dc2HGsmHaeXa8bvPd1LjOY+sfjh4p1piZpuLdkoSgpzIsWROQ/MeQHh4/Np7dc30P7+A/oTiLKoT7l2vuucF+0aV9+gU2CbOJc1EJ4oPw4C5Xngi9eqbZTr6g2rx6otzr/wSdfVvXakMSzcBZ54OZlAnrOH3GYnzJus94jeWLeD1t27WacAyoeOz/iRKmvQ+Zkspow05w86XQAgKDSSASB0OzbvUtu/Wf1ptX1z8061BXvglRdgA3SYAEAlRH2mFQSXmEYyRhy846mwPCXW9MRe9uB8tY0j6WkckuLUKJk8c6LafnPBf6jtlJmT1Baiz/ZZDBB9fqa/ARilZlrxeYXHe+yCujq4kaqr+y1rMJIMR3nh3k1qSqyBqbHVFYdGypnXzaIT503RKaJ5183UewDlQWUKSoli5yeED4/3QKVhNDme0EiGo2BqLEgbmxpD59w4W6dyabAHppWBTdBxEn/FRpFRh4FKwUwre5SzTkEiGskYcfAnaVNjpaZxSCo1jcxWWFQFAJww1Rqk4fEeO5k62DXful9tbYNO5HBJ1dX9lDUYSYaj8NRYg6fIYmosABhRqAig4xNKiWLnJ8go1YmMx3ugkjCaHF81Kx5/fPCiD39YJ0urr6/Xe+Hp7OykxYsX65S7gYEBamjw9k5M8861Yr1Tu3btookTc72PUvzE6EV3dze1trbqlIxCMf7k5hfU9oLbz1Rbr2zIR7cYvZwjxUjGaBbs2v2uPjrxgePVvgTpfGTlHO9i51YYMUpfN1HJx2LCinHMFbn7v3lHZBBBYix0vdp6/wlKOsZKlTXmXsDCKGv83teTeKxtiJE54zRlZKn7EMqao0kfb8kYzfW66NY7IxujkZ+PXs/JQmw41kw6Tr/XjDlH2Ltnnk5nXfEXNK5+ZDzOGA++dYhefnIr/eGVjEqfe9Mcqjt2tNpnqVRK77mLbCO5o6NDp9xlMhlqbGzUqcK8jjj09PRQS0uLTsnwGqNX6XSa2tradEqGW4xBpr/ZkI+FYgwyOiUZo+klf3vbbtG8lM5HVu7xLnSOhRGj9HUTpXwsJKwYj5k2Qe1L9JwHibHQtWrz/ScI6RjjUtb4vacn8VjbECMzcTpnsni5D6GsGUn6eEvF6LxWoxqjk1uMpWY4FGPDsWbScfq9Zh67cSl1P/esThG1nn0+XXHH3TqV44yRV7d3LkTMM0yc6+Nks1m95652cHBQ7wIAABRmCv9qTrk2lSmAUkzjGOdM/GCKK0DybH8xrbb3pF9W2+0/X6+2hQRdxA/PJMMIptcVqiNIT6SNcL5BucqZ8QHREWQUGZKpmp1zAKVEoRM57qaekRt1Xtp2mtpO/cBctS0k6CJ+sW4k+51qBcOSWHHBqEPloGIMkEz7+w+oKXAGpwH88NOJbMoadMhGF+rq4NWiG25VU6yNRdffovfcBV2IGCPJABGB3kewQTV7y9GBZb8X7t004hmxdfdu1nvhuP6pZ9SWzx1+nm3v7twCLmAXszASgA1QnwvH+AmNI55B5nQxY1Nj9B6pZ5GdaS/QSIYj0NMaDUl71grnHfiFEQd7BX1GzK+Vd96m90gt+LLyrq/qFNgoaeUj2AXnZ2WV6jgP+lhPbBvJmL5RviRPhcWU68rBlGv7obcc/Ar6jJhffhd6gfjBlOvoinNdHeVjeCp1vmAkGSACzM0UvZBgg2qcp+i4ioegz4j55XehF4gelI9gE5yn0SDRKYZGMihBpyQAlAM9/OAXZgfZ7Ymr16gtX/vlPCPml9+FXiDeUNYAJEuQdk3N8hUrBj9y0UU6WVp9fb3eC09nZye1t7frlLv+/n5KpVI6NdKyqy5V2yUPP6m2XvT29lJzc7NOySgWYzm6urpoxowZOiXDxPj0krUqffGyc9W2XDbko5cY/Z5DQWLsP32f2qZeGqe2hnReSucjCxrjgexBWv3ln6n9ybMm0rRFLTRxSpNKS5G+bqKYj/kqFWOhc9cLvzF6uSal85FJ56UNMcaxrPFy/iTxWEc9RnOP2be6P3CcznNPOh8Zyhp/Cl2TUYqxEC8x+ikfbTjWTDrOoNeM2zlkYvRS1tTV1ek9d5FtJHd0dOiUu0wmQ42N7qualfOMQ09PD7W0tOiUjGIxliOdTlNbW27qmBQTo9RIsg356CVGv+dQkBgLTSWTzkvpfGRBY+RXwThXum3+4HE0//oP6ZQM6esmivmYr1IxBpkG6SdG51TrYtekdD4y6by0IcY4ljVezqEkHuuox2juMW9v2x04Tue5J52PDGWNP4XqWVGKsRAvMfopH2041kw6zqDXjNs5xDH+8Jrc4AsrVtZks1m95w7TrUGs0gLgV/5Ktztf2622YBdTGQib104riKZqljU4d+wTpBPOzWUPzldbPg/T//pLvKMbQmXO20qVj3C0oGVN7BrJfkcAAdyY88c5+hAG6UqAbfJXup108gS1BTsk9bwFAPvwO7qNHZt2hv6ObigMdXWQEHZdHSPJAFA1vNItr3BrzLriZL0HAHHy9Bdyz4dFQdidnxBcGKNvlX5HNwBGkyvPlDUSM5Zqf/ub3+pdSCLJkwn8SfooMuOVbXmFW3P+rb5x+DkSsEPYlQCMOMRLNcsanEP2kSwfK/2ObgCwW+1vf/sbvWs/VKZAUtjTOAAAAGCksDrc8mcuhf2ObnCX1Lo6RpPDEWZdvXbPnj16FwAAAECWWbALwA/pWVZm5pIR9ju6AViSZwtWmvTikLXHHXec3rXT3t0ZeuzGpXTHhWfpT8ArrGpdHJ9bBp9jznRQmGp9NHMeokJtn7CmXGN2ULxEoazBDCFAWVMdpr5uSNapAJykVq6vueuu/zXY0fE5nSytUu9JXrx4sU65GxgYoIaGBvqvf11Gv908XIF696wz6M+uvU6nvNu1axdNnJh7XkWKiVFKd3c3tba26lRwP7n5BXrnmEO04Cty76W1IR+9xujn3PIb48CC/WrbsHqs2rqRzkvpfGTSMa7+2nNU+/ZouuD2M/UnwUlfNzbkYzVi9HJOO3mJ8YEvXqu213zrfrUtRTofmXRe2hBj3MuaQudVEo911GIsdB+RjhNljQw/MXqtU1UzRq/KibFYGWnDsWbScUpdM7945FX6+br/pfbfNfnTNOW9zTTrk6UXgk2lUnrPXc2/fPvbg1decYVOllapRnJHR4dOuTMvtOYR5P1799I96ZdpadtpNHb8eLrpx8/rn/IuCS/ddjI9qO/UH6RPPfxRtS/Bhnz0GqOfc8tPjF5HkaXzUjofmXSMD131ParN1ql9qVEnyeuG2ZCP1YjROYrsZYaElxj9jiRL5yOTzksbYgyjrLnogQ9GJh8LnVdJPNZRiHFw5yDt7ThAh9a+Q4P9g+qz/HuIdJymrJGc3YCypjivdapqxuhVOTEWq/vZcKyZdJxS18zjV66iX75+g9qf/p7/SWPfOYY+8ehClS4mm83qPXe1jzz8iN6109QzcpnLFxyb+oG5agvueArC2q9v0CmiBV//oN6DfDi3Ku/ifzpX74FtvDSM/cBUawgLplxHCzeQDz51+EgDuW7RKLUNkylrMOW6cpJepzJlpPRjSTC8cr0htXK99e9JXnTDrXqPqPXs82nR9bfoFLjhl+m/sW6HThFteuw1vQf5+Nzic8ro/ukzeg8AAAAk8Agym3ngFLU99GwuDfHS/dyzeg/1dZDFK9cbv979TbGV62tnzbJ7CfzxE4aH/a+44+4RaTha/sv0d762W23haHwu8TklOZLldao15Hr4edaD1AIMED70lAMzM5bMKN1lD85XWwA3o8/NjddsHvOq2o4+z/rxGyiC61RJra+jjAzHE1evoZMnfk2n5Faur01Zvro1+JP/Mv1JJ09QW4CoOGHeZL1HatbDuns36xQkBaZa2y1/xlIUr2FMuY6O8Z3DFVqeaj3+vsq8mgmrXANAMbWbN9tdAUVlyh/nlAR+qf6sK0qv/gYyMIrsTf5shzc371RbsAt6ypML1zD4UTOpRu8R1T8+dkQa4gGdUUdDGRkeqfOt9re/+Y3ehSTgKQmMe1D5pfpj6nMrCUNxGHWonPzZDlILMEBloBMIcA2DH+hATg4MaOE8l2ZmgnC7Rvr8qv38df7fKQwA/qDH0Due7cCzHAypBRjADpgdZL/8GUtRv4bR+ZlcmHIN1YS6YbTVHmfxM8ko2MA26EEsjRdc4FkOhtQCDFA55jxHBSCZnNcsX8tRvYbREVN9uEdAEqEuKCPszq2ax5avGLz4IxfpZGn19fV6LzydnZ3U3t6uU+76+/vpwc//hdpf8vCTahtEb28vNTc365QMjjGVSulUcF1dXTRjxgyd8u/pJWvV9uJlw++ilY7RhnwMEuOyqy5V2/xzrlSM/afvU9vUS+PU1gvpvJTORxZ2jG7nrF9Br5t8NuajBL8xljrnC8VY6BrzQjofmXRe2hBjksoa5/mWxGNd7Ri9lo3ScTpjNOcrQ1njj5cY/d7TqxGjXxIxmnO/ZqhZ9dY5e6n575uoplHuefxqX9tehFXWeG0f1tUVf+Q0so3kjo4OnXKXyWTonkW5d9hK9Ab39PRQS0uLTsngGBsb5Za4T6fT1NaWexl7OZzz9g3pGG3IxyAxFpoKWizGcp+3ks5L6XxkYcfods76FfS6yWdjPkrwG2Op894Z497dGVp5521H3qN5/VPPlPV6EOl8ZNJ5aUOMSSprnDPSlq58JnHHutoxei0fpePMjxFlTXm8xOj3EZpqxOiXRIzZj++ng08dVvv9U/bQxLlNauE6KdW+tr0Iq6zx2j7MZrN6zx1eRgcAAOL8TLl2NpDZyru+qvcAwoUp19VTbgcyQBwcWvuO2s48cIraHno2lwZvTAM5TNY2kpd96mNqiwLOG4leUhg+37w+D++lgQCFmfO1EjdDqJ7tL6bV9p70y2q7/efr1Rbsg7IGbIayRpbfUeQkGX1urgm2ecyrajv6PIxblsOtrPFbVy8ERwSgAtBTDklWqrNo6hm56VZL205T26kfmKu2AACVgE4dqLTxnWOobtEonRpK34dFSqMGjWQAAAiF186hRTfcqveIWs8+nxZdf4tOAYTPjDqYGWoQPky1hqSrmVQz4hlkToM3lZrxYWUjGdM3/MH0t3CUmsaBSoAMTLmOP+ciXVfccXdZi3ZB9aGsgThAWSMj6FTXpDB1RDye51+xskZiyjVGkgF8QucMgHeoAACAU1TvBejcCQfqTGArNJIBQoAGAYB3mB0E1SYx6gD+YJYVwEioOxa2v/8Arf36horO9LCukWwKsCUPfVdtoThMf6suVAJkYMp1PKACEF8oayBO+HzmCjlXzME/dDb5k3pxnN6DQl64dxO9sW6HThGdOG+K3issaOdnzWPLVwxe/JGLdLK0+vp6vReezs5OWrx4sU6N9MAXr1Xby752NzU0NKh9Cbt27aKJEyfqlIyBgQHRGLu7u6m1tVWnvPnJzS+o7QW3n6m2+aRjtCEfpWI05+I137r/qBgHFuxX24bV5b8YXjovpfORVTLGUudyIeVcN8XYno/lChpj/jXhjNF5LQUhnY9MOi9tiDGpZc2DN36JDu8dCHweGjgfj1Zu2SgdZ6EYf/HIq/SHVzI6RdR8ahPN+uTJOlUcypphQe7plYoxiDBipD/PrW4dpN7oVOlruxx+rplnb0/ToX2H6Z82fIO+MOfLNHrcKDrv5tybMZycMe7LDtBjN31J7b975ul01hV/QePqh+NPpVJ6z11kG8kdHR06NZLpDVi68hlqbJRb3KWnp4daWlp0SkYmkxGNMZ1OU1vb0SdEMaV696VjtCEfpWI05yL3VDljNKNlQUeRpfNSOh9ZJWMsd6SqnOumGNvzsVxBY8y/LkyMzusoKOl8ZNJ5aUOMfq8Z5wwP28uaexadr/ZxPpavWIzllo/ScRaK8fErV9HBtw7R36z+NH1zwX9Q3bGj6ROPLtTfLQ5lzbAg9/VKxRhEWDFK1R9Zpa/tcvi5ZnhmR/5I8jk3ztapYc4YH7txKXU/96zaZ/z2DF4c1Mhms3rPnVXTrcsdLk8qTH+DOLnswflqi2lwdjrSOMaU69hCWQO2mzwzN/LGDWQ2ZeYktQWA6jrzull6L9dAnnfdTJ0qbPuLabW9J/2y2m7/+Xq19crKhbskengBgjLnobPzBg2A8PDzKAb3Jq67d7NOAQBA1EmOkoWFK+LOZx29VMRhJMnZQQDG2FRuOjrjEWRnupCpZ+RGqZe2naa2Uz8wV229wurWACGIciXAVjs271JbngbH3ty8U23BXqhM2asaK41WEmauJRNXvJ1TOL1UxAGkYMZVYeXMjl10w61qirWx6Ppb9J43aCTHFKZaQ9xgGpz9UAGIj3JWGrUBOmzCYds1b+pOce0EAkiC8RMaRzyDzGk/rGkkY8QBosicj8s+9TErppLZDNPgAKIDMzugHCgf4w11dTnoTJZjzke/M4QwkgwAVsA0uHjpP2Of3gMbJWFmB6ZcA0CloSPpaNWaHYtGcgxhqnXlXd31qN6DsGEanN3yKwAYcbBTOSuN2gLnpCxbZ1mhrAFINisayZi+4Y1ZSMXAK3IqDz2AAJAEzpkcXlcaBYD4wswLOaYuiSnXcsqZcl3z2PIVgxd/5CKdLK2+vl7vhaezs5Pa29t1imjZVZeq7ZKHn1Rb1t/fT6lUSqeC6+3tpebmZp2SIR1jV1cXzZgxQ6eOlv52F+3YlHtOjE2ZNYnmfPb9OuUuifkYRow9F/yB6nc2UOqlcfqT4KTjlM5HVq0Yn16yVm0vXnau2hZT6rrxK0756Id0jDZcM8yG+490jF6uGXMNMi/XoW356Fbv8AvnY07/6blHK4Jc69Jxes1HlDXFSV8zrFrH2o9KxBj0uqnEtR2Un7LGyzXIisWYf47W1dWpbSGRbSR3dHTolPtIciaTocZGf6uUFdPT00MtLS06JUM6xnQ6TW1tuXd+uXn8ylV08K1DaiEVfk6s7tjR9IlHF+rvuktiPkrHyD19/VP20L+f+GHR2Q7icQrnI6tmjF4fKyh13fgVt3z0SjJGvqd/5vUfUerN40RnX0jnI4v6/YdJx+jlmvH7WI9t+bh3d4buuiT36pDWD52nXiXid2VUnI9D+0JTraXj9JOPKGsKc8YoNeuzmsfaq0rEGPTaCfvallDpsib/HM1ms2pbSOSnW0tddEmAV+QAgG0wnQyiaOWdt+k9ou7nnqWVd31VpwAgn6mrgxxMuZZn2pJez1cs3BUjcV5IJaryb14oKAC8eXDGlXoPbJOEhYy2v5hW23vSL6vt9p+vV1vwDpX75MGAFkjyO4osDY3kGHni6jVqyycTFlKprNSLcs9VgjfmppmECnucmI6kJQ99V23BXtWquFTC1DNyUwCXtp2mtlM/MFdtwT/JRyqqAWUNVBs6nKoj0o1kjMoBAMQXppNBVPEzyK1n555JZouuv0XvAQBUhu0dTFHmpY1pxUgypm9AFJmKvbmJ+X3WAQDANkkZTeNFuq64426dyqXBu/zy0WbO12nyazbxes2RTJ0HdXWQFNZUaz/nKaZbx0S15+0DVAOmwdkFHUjxkZSyBp2f8MK9m/Qe0RvrdtC6ezfrFED4MOOqetBIBigDblYA5XP25KICAABRtmPzLrXl12uyNzfvVFsAiLfINpIxfQNskD+VDKMOABBXmLEBXvSfsU9t4zDVmuH1moUt+9TH1BZ1dZDAjzLwIw2mrLnswflqK83r+Vpzzz3fHPzLv/yMTpZWX1+v98LT2dlJff/1lNq/5lv3q22+gYEBamho0Kngdu3aRRMn5m6EUqRj7O7uptbWVp0a9pObX1DbC24/U239SGI+SsQ4sGC/2jasHqu2zhgf+OK1alvo3PVKOi+l85FFJcZi10Ch66Zccc7HYoLGaK4LxteGM0ZzPTFzTZVDOh+ZdF7aECPKmpHyz12vkno+7mjfRcf21Qe6lvNJx+knHw++dYheeXIb9W3fQ4f2HVafoazJefDGL9HhvQOB6ztO1TzWXlUjxvx6ZylhXNvSeZl/zfzikVfpD69kdIqo+dQmmvXJk3XKG68x8n39b/7jcZ1yV/P5z183eOed39DJ0irVSH7z0X9R+4Va+5lMhhob5RbS6OnpoZaWFp2SIR1jOp2mtrbcaymcgjyPnMR8DBqj24IkzhilZkFI56V0PrKoxFjsGih03ZQrzvlYTNAY86+L/BglFvqRzkcmnZc2xIiy5mjl3NeTeD7yddw/ZQ+l3jxOdCRZPM4y8xFlzUj/ePH5dGhPJnB9xykqx7qYasTot4yUjpFJ52X+NfP4latUpxQ/2sAzN+qOHU2feHSh/q43XmPke/rf/+g5nXJX+9prr+rd6JG86AAqDVOuASAuTOMAwIu4TLWGo+3dnaHHblyKOk6VxHn9jko+2uCljVn7hz/8Qe+CTSo1bx9G8nJzuv6pZ/QeqYKECxQIl+nVR0XeXqZSHecKQByUM4oMEBcoa4hW3nkbdT/3rE7RiPeJQ3iS0PF05nWz9B7RifOm0LzrZupUdUR6dWs0LgrjVxLwqwgMvJKgsordrLgAMbggWXnXV3UKIJnKmaoK0WA6ZI2kviPWnLsYPSvMdHClXhynthBP219Mq+096ZfVdvvP16stQFBjU2P0HtE5N84eka6GWun56pLQuCgMrySILhQgAMFgNDk60CELAE5Tz8g9Q7q07TS1nfqBuWoL4Yv7jKtiz/xXQ+3Jp5yid6MHjYvC8EqCyjM3pVJTXlCAVId55IBvsjzyldQRL5slYTqZbdAhC14kqWMr6VOuF91wq94jmjZ7Hi26/hadAoiX2pNPjm4jGY2LwqI2bx+GcQHifEYHBUhl8IiXwSNfGPGKBky1ths6ZIdhynVp6OiKv/EThlcOvmjpDSPSAHFS29TUpHejhRsZaFwUFrV5+3Hnp5ecC4wr7rhbp0YWKBAejHjFQ9ynk9nGOdUaHbIAANUV1zIyalOtWWQX7uJGBhoXhUXxZEoCP73kGHWoLIx4AYSHyxp0yIKbJHZoJXnKNWYHQVLUfPzjnxj893//N50srb6+Xu+Fp7Ozk9rb23XKXX9/P6VSKZ0Krre3l5qbm3VKhnSMXV1dNGPGDLX/9JK1anvxsnPVtlxJzEevMQ5mBunt2w7S4Q3v0GA291nqJfdVOwvFuOyqS9V2ycNPqq0f0nkpnY8sSjEeyB6kTY++Rm9uyo0gL/jGB2lMfd2I60ZC3POxkHJiNOc/y78GisXYf/o+tS10vRUinY9MOi9tiBFlTWHFzul8STkf869X6RiZdF5KxJh/bSSlrHHWa5JyrPNVO0ZzzbFC5aR0jEw6L6td1tTV1ek9dzXnnHPO4A9+4L0nrFKN5I6ODp1yl8lkqLFRbqS5p6eHpFf6lo4xnU5TW1tuUSipkeQk5qPXGLMf308HnzqsU0MX06JRVP/4WJ0aqVCMQXpcpfNSOh9ZFGPMvzac142EpORjvnJiLHb+l4rRjE75mb0hnY9MOi9tiNFcM85RMpQ1w7ze15NyPuZfq9IxMum8lIgxqWWN8/xPyrHOF4UYS5WR0jEy6bzML2uCljPMT4zZrB4BK6D2cx2f17tgC8mTCQo7tPYdtZ15ILe43aFnc2k/TCXKFCoQPnNdOCv4AFA+lDVQSDmdWXGRxLImSMc/gG0i+0wyQLWNPjd3eWwe86rajj4PlwuAF3t3Z+ixG5fqVC5driQ+7wgAAFDMkZkbKCNDg1o/QAHjO4cXqOGp1uPvw4I1AF6svPM26n7uWZ0aSt/1Vb3nXRJHpqIEMzEKwwyhHFTOASCoKM+ORSPZMphqXTk1k2r0HqlnkZ3pcmDKdeVgynV1bX8xrbb3pF9W2+0/X6+2YB+UNVBKkju0klTWoA4DSVP5RvK2NWphLvW1Zpv+ECB6pJ61wrM7kDRTz8gtXrO07TS1nfqBuWrrF6aTAUCU7e8/oPeIfvNcz4h0XKFOEx0oI8NV2UZyZiOtWEW0sKODOjraaW7fKkI7GQAgXsxU67Hjx1Pr2efToutvUWmww+blv9J7UEjSp1xLdSLb7oV7N+k9ov439tK6ezfrFACUYsqaqM5YqmgjObNtC9HcOTRNpRppdtt02rIVrWSvon4yxQl65exnrhNU+Kvnph8/T1fccTeNnxD8lRG4JisPZQ1AcTs271Lbv1n9abV9c3PuPf0AlYYyUl5lG8l9fdTkfHdVYxM19WWo/HVPAcIl1UuOhV4AypP0kSoAiK7JMyeq7TcX/IfaTpk5SW3jxtRdMNU6elBGhqfm0ceWD15ysffe4vr6er3n37Y1nbT1pA6anxtKHmo1b6QVq4kWXD6bnOMM/LzynDlzdMrdvn37aNy4cToV3MDAADU0NOiUDOkYX1y9mUb3jaOZ7e/TnwSXxHz0EuO+2w+q7bib69S2FC8xPvvAP6vtedd8Tm1Lkc5L6XxkUY+RR5EPNe2jMxbM1J8El8R8ZF5j9Hqe+4nR6/UonY9MOi+jHqO5ZlDWlGbOdeZ2vsf1fCx1PUrHyKTzUirGw/sP0xvpXup/I6uum1nnnkajxo7S3w0mSvlY6L6epGPtFLUY3a5J6RiZZF6GUT9jfmI89dRT9Z67yDaSOzo6dMpdJpOhRueodEA9PT3U0tKiUzIkY+SVE/eftIc+8/+7Un8iI2n5yErFWM6zVl5i9NsTK52X0vnIbIjx3//HozR263FiU0eTmo9eY/R6nvuN0ct1KZ2PTDovox4jyhp/MRY73+N6Ppa6FqVjZNJ5GUaMcS5rCp3nST3WUYwx/7qUjpFJ5mUUyppsNqv33FV0unVjUxP1DQV/RKaP+poaRzSQAeLKFC6msAEAALAJnntMHr8d/ABxUdlG8rTpROs3UG6prgxtTG+h6SeZYWXIx68SWPv1DfT4lav0JxA2VAAAyocOIDuZsgbvFQev8BwkQDTZUI81ZY3kIz1hqB0cHNS7FdA4mxbM7aNV6j3Jy2nL9PbhqddwFH61wBvrdtDBtw6pdOqE8qe6gz+oAMSHuQmjAVA5YYw4mGsSHVnyTFljoKzxDjOEwEBZA9WEequ8yr4neUjj7MvV88b8dflsTLQuJv/VAtkdqBzGBSpUABAVKGvAi/xnHiH+UFcBKTbOjq14Ixm8y3+1QP1kFExhqkQFAM/0AASH0WRZKGsAoBjUXewSxTIyf3bsifOmqG2UoZEcYWdeN0vv5U6mE9qadQoA/DCrjWIaXHgqsbgLRrDCgbImGEy5BgNlDVRTlMvI/BlLb27eqbZRhkZyhI1NjdF7ROfcOFvs3XsAAAAGyhooBVOtASCI/BlLU2ZOUtsoq3nk0ccGF11ysU6WFuQ9yV7xe5Lb29t1yl1/fz+lUimdCq63t5eam2V7zyVifHrJWrW9eNm51NXVRTNmzFBpKUnJRye3GPtP36e2qZfKe0m63xiXXXWp2i55+Em1dSOdl9L5yGyI0Vw3zmspiKTmY6kYvZzTTkFiLHS9Sucjk87LKMZorg2Gsqa8GN3O/zidj37KSOkYmXRehhFj3MoaL/f0pB7rqMfI1+uud++kqStP0J/ICBLngexBWv3ln6n9KbMm0awrT6bXfv1qVcuauro6vecuso1kXtirGOmXg0fxpdtmuo6ZvpNOp6mtrU3tS0lCPuZzizFoL7nfGL1MTY3iy+rz2RCj87rJv6bKkdR8LBZjOVOtg8RY6HqVzkcmnZdRjBFlTU7QGPOvg7icj87nG72UkdIxMum8DCPGuJU1Xu7rST3WUY+Rr9ne6TvolK6p+hMZQeOMWlmTzWb1njtMt4bEwzQyADs5K+8AEC6UkQB2QRkZDBrJAFWAhV4qj18/YPBrCJxpsAsq63JMzz4AgFHO7CCIjiiWkRKzKyoNjeSIsvFkAogyfv2Awa8hWHfvZp2CINDREw8oa+TE6ZrATKvymOsJnVAA9kIjGRINFYDksPH1Azap9IiDuWYxnQyiAqNuABAVDavHqi3KyPKhkQxQZRiJqwwbXz8AECaMcgFAPky1Bmm2zo5FIzmCMNW6Mqrdu4YCqLLOvG4WnThvCtUdO1qlX1/3ptoCJB3KGnCDmVbBYMo1gN3QSIbEQwUgGcamxtA5N86mTzy6UH8CQVV7xGHCG8eoLVfmsx/fT4N7BlUaoFrMtYAZQgBQbXgsKRg0kgEAwEp7O4ZXKD/41GHad88hnYJSMLoFxaBSnUzo3AFpNs+OrXnk0ccGF11ysU6WVl9fr/fC09nZSYsXL9YpdwMDA9TQ0KBTwe3atYsmTsw9syilnBh/cvMLanvB7WeqrVN3dze1trbqlIy45mMxHOOYK3LnsVnYIKggMT7wxWvV9ppv3a+2hnReSucjsyHGQtdNsWutmKTmo1uMhc5dLyRizF66nwb3En3m0Kfo30c/RHtO6qMTOo/X35UhnZfSx5qVEyPKmqNJxWiui0W33hnZGI1C+TiwYL/allNGSsfIbLhHul03B986RGvv2KD2/+jURjrt0pOOPPJTSjXy0e89PanH2qYYzbXMgtZ5y4kzymVNKpXSe+4i20ju6OjQKXeZTIYaGxt1Krienh5qaWnRKRnlxFisxyWdTlNbW5tOyYhrPhbDMR4zbYLal5pqHSTGQlNWpfNSOh+ZDTEWum7K7d1Maj7mxxh0qrVEjDzFmkeQjb6/+AOd9C/v0SkZ0nkpfaxZOTGirDmaZIx8fYyZ3EJfeeKH+hMZlcrHIM8jS8fIbLhHul03/E5+fuWgweti8GM/XlQjH/3e15N6rG2LUWp9gXLijHJZk81m9Z47TLeGxHH2qgGAvcZ3jqG6RaN0imjcUm8jNElnKi0AbqQq1IBXD0KylTsYERVoJEeI7SeTbaJSAcBCL9VhrjM0GOxVM6mG6h8fe+Razn58+BllKA1lDUC4bHr1YNDZQRBdpozEWgP+oJEcAfv7D6gpOQanAQCiCh06AN7gWkk28+pBY951M/UeAEQdGskR8MK9m0Y8s7Lu3s16D6RhGhmAnCiNOKCnvDjTGYuZE5Vh62gcykhZ5tWDBqcBkiAOs2PRSI4APLMCmHJdHZhyDUmR3xnrHN0CgHBFvazBVOv4q1RHcpxmx6KRHAE2PbNiM4wwASQDrvWjoTMWSsF1AwBBxWl2LBrJEcDPrBjcu49nVsIl9W5kgCSK8ogDru3C0BlbeeZds7bNEMJUa4B4C7NDLE4dsmgkR8ATV69RW56Ow8+u4JmVZMOU68rClGtIAnTGAlRXVMsa1DmSoxIdYHHqkK155NHHBhddcrFOllZfX6/3wtPZ2Unt7e065a6/v59SqZROBdfb20vNzc06JcNrjE8vWau2Fy87V20L6erqohkzZuiUjDjlYzH9p+9T29RL4yIb49sD/fRvHX+h9qfOnkuzLm2nE987VaUlSB9rJp2XYcTo5brxeg2ypOajiXHZVZeq9JKHn1TbcoUZo/N6D0o6zmref1DWFBdGjI//7V+r/aDXixFWPkb5mmHSxzuMGG0ra7jO8X/vv5e2b1yv0n/Z+Z90TIO/fy+px9rmGINc617iPJA9SKu//DO1P2XWJJp15ck0pr5OpfNVu6ypq3OPy4hsI7mjo0On3GUyGWpsbNSp4Hp6eqilpUWnZHiN0esKcOl0mtra2nRKRpzysRgztYR70aIa42M3LqXu557VKaLp8z9Cn7rlazoVnPSxZtJ5GUaMXq4br9cgS2o+coz/cvlFal9iqnWY+ei83oOSjrNa9x/n6BXKGndhxSj5iEJYMUb5mmHSxzuMGG0ra/LrHK1nn09X3HG3TnmT1GNte4zlXu9e4vRzjle7rMlms3rPHaZbV5mfkwnKE+azF5K2v5hW23vSL6vtm6+9orYQPnP9ORsSYD9brv1KQlkDUD1RKmvy6xzbf54bUQaAHDSSITEq8SxGEFPPyPWmLW07TW2nnHyq2gKAP1G/1iE59u7O6L3cyJ0zHRWSo8hgj/w6x9QPzFVbAMhBIxkgIhbdcKua7mSc1X613gOovge+eK3a4j2a9sEMiepZeedteo/U1NaVd31VpwCqi+scBtc9Fl1/i05B3JkOMenZVnGbHYtGchVhqnX4bOohHz+hccTzQOPqG/QeVAKmXMdLWJUAm6GsqbyoT2kdWLBf70GlXPbgfLXlsmbt1zfQ/v4DKl1pXOcwuO7hTAMAGskAkWNG6szIHVSGs6JSzYoLAMSHLVNaMdW6cl64d5PeI3pj3Q5ad+9mnaqsKL/zHioHHcmFoZEMADAkKhWXKOHnJ/k5Stvfo5nkSgBmRlRX/mM03T99Ru9BUu3YvEtt/2b1p9X2zc071RagkqQ7xuI4OxaN5CrBVOvw2TTVGqoPFZej8fOU+a8IsQmu/WEoa6rDPEYTxdE6lJHVMXnmRLX95oL/UNspMyepLQBECxrJABFkKlS2j+DZBBWXo+EVIQAAss68bhadOG+KThHNu26m3qscTLUGZjrIMOXaXc0jjz42uOiSi3WytPr6er0Xns7OTlq8eLFOuRsYGKCGBrmFjXbt2kUTJ+YqyVIKxfiTm1/Qe0QX3H6m3iutu7ubWltbdUqGzflYjFmMpGH1WLV1ikqMpTx865fpYGYnXfOt+/UnwYQRo3RehhGj1+vm4FuH6JUnt1HvK30qfe5Nc6ju2NFq3ylJ+fhf/7qMfrs5V4mqa5xEx594Iv3ZtdepdFCVzMdi94NSpOOs5P0HZY0/Ycdo1pkIck+XjJGvi93v6qMTHzhefyJDOh9ZVO+RTn6vG3N9Fro2w8xHiXORJfVYxylGP+VjoThLncuFVLusSaVSes9dZBvJHR0dOuUuk8lQY6PcSnw9PT3U0tKiUzIKxVjuVOt0Ok1tbblFQKTYnI/FFJtGFpUYS/naZRfRgR09Yj29YcQonZdhxFjOdVPsGk1SPvIzyXddkptiPX3+R+hjX/w7sRVQK5mPQaaVSsdZyfsPyhp/KhFj0BE8qRjNNfH2tt2Rz0cW1Xukk01ljdRIclKPdZxi9FM+ForT1rImm83qPXeYbg0QcZhyDdXibBDzCLKtrwjBlDIAgBzUKcApSPnIbwHht4EYcXsrCBrJFWZ6WyA8QUaNokRqmjWUD9cr2Krcnn2IP3QWAcPzyBAUvxWE3wZixO2tIGgkV0h+b4t5mTwARA8aFjlxXNwFDQSoJnMtRWE0z/aO5DgwZQ06ZCEK/JaPcX8rCBrJFRL33paoiGsFGNOjAIJJSoMg7tPfAKB8ZsEuAKdyy8e4vxWkdnBwUO9CmPAO1sqKS4UY06GqDz38YBN0yEIxcXkcCYJB3QIkmLKG3wTCrzWrxuvMwoSR5ArBO1gB7JL0KddxnGptGgZxnnKNDtnoi9KUa6g+TLmGKAhSPn7i0YV0zo2zaWxqjP4kHtBIrhB+ebwRx96WKEAPOQAkHTpkAQAAgqv99r/8s96FMD1x9Rq9R7HsbYHwYNSh+tDDHz9xHU2O+/Q3KB86kpMtjrODoHqS8AaFmnPOOWfwBz/wXgGsr6/Xe+Hp7Oyk9vZ2nXLX399PqVRKp4Lr7e2l5uZmnZLhjPHpJWvV9uJl56ptObq6umjGjBk6JcO2fCyk//R9eo8o9dI4veeuWjH65Yxz2VWXqu2Sh59U23KEHaOEMGIMet3kX7tJyEe3882GY+01RnO/KHWvYNJxSucjc8aIsqZ8lY6xnPt6kBjdznsb8pFJxxlGjFEva/h8q5vUTH99z7/oT4JL6rGOc4zFykdnnHEoa+rq6vSeu5ov33jj4FduukknS6tUI7mjo0On3GUyGWpsbNSp4Hp6eqilpUWnZDhjlOhxSafT1NbWplMybMvHQvz0kFcrRr+ccUr0AIcdo4QwYgx63eRfu0nIR7fzzYZj7TVGP/cL6Til85E5Y0RZU75Kx1jOfb3cGJ0zJ5znvQ35yKTjDCPGqJc1fL6NmdxCX3nih/qT4JJ6rOMcY7Hy0RlnHMqabDar99zV7tqVW+QDwmNOJIByYcp19fF1zK/WOZA9qD8BW5nC39lwiAOJSgvEm5eOIYgfU3e45lv3qy1AKcXKx6SUNbXr163TuxA2VFzC4WdUCMCvE+ZN1nu55z03PfaaTsVTOaNbAFA+dH4CM3VEDKxANaEuPax29uzZehcAAPLlv1Jn52u71RbsFtfRZLBHpTqi0JFsh/39B/QeYdYSRFaSOnFqmycPj5KAPEx/C1eSKriYcl0d+a/UmXTyBLUFiBKUNQB2e+HeTXpPdtYSZgeBX146kZNQ1uA9yRAL6CGHsPA7zvlVOsasK07We/GDDhiA6gjr2sNMCXtg1hJAtKCRDABQBL/TnN9tboypL/7KgDhIyogDplxDtVXqWkNHcvRh1hJE3dNfyL32KSnQSA6ROZkw/S0cSX7OCiN+lWeu46QVEhB9KGsA7Jc/a+nNTTv1Xvkw1RrKVawTOSllDRrJABZBQQdhSWrHC0aTIa6S3JFsIzNrCZ1dANFQ8+Ubbxz8yk036WRp9fX1ei88nZ2dtHjxYp1yNzAwQA0NDToVHL8veuLE3FQXKau/9hzVvj2aLrj9TP1JMN3d3dTa2qpTMmzIx0IxDizYr7YNq8eqrVeVjDGIQnE+8MVr1dbv+w4rGWO5wohR8rr5yc0v0DvHHKIFX/mQ/kRGFPKx1Hllw7EuN8Zi9xLpOKXzkaGskVHNGL3e1/3E6KWMtCEfmXScYcQYxbIm/7yyIR8RowyJGM09hK2b+6I6J+NU1qRSKb3nLrKN5I6ODp1yl8lkqLGxUaeC6+npoZaWFp0Kjlcafaf+IH3q4Y/qT4JLp9PU1tamUzKino/MLcYgPeSVijGoQnE6R/z8jCxXMsZyhRGj9HXz0FXfo9psnWhvfxTysdS0PBuOdbkxOkeR8+8p0nFK5yPKGjnVjNHrtFg/MXopJ23IRyYdZxgxSl435roOUta41RVsyEfEKEMqRnMf+eGFz8SurMlms3rPHaZbA1gGU65BWlKnWhuYjgpxg6nWdpPshEWdAaA8aCSDdVD4A4QDlSk77O8/QGu/vuHIu5HBfubaS3qHFQBEi6lrX/Tj8+nifzpX7ScFGsmC8isuC77+QbUFgPgwhQQaKPFiKgLOqddR9cK9m+iNdTt0imjKrEl6D8COcxhKC1LWoLMFIDg0kgXlV1w2Pfaa3gOQhVEHgOTasXmX2v7N6k+r7c7XdqstgBNmWwFmB4Gk/jP26b1kQCNZECou4cNUawBZpqMFlalhUR+Jmzwzt2LpNxf8h9pOOnmC2oLd0PkJAFHDMxl40a4kQiNZECouAMlgFlXBlOt4saXz7czrZuk9ohPnTaFZV5ysU5B06EiOF5Q1ANWDRrIgVFzCheesRsKoA0AyjU2N0XtE59w4m8bU1+kUACQdZgdBmJJUF4/se5Lb29t1yl1/f3/Jl0D70dvbS83NzTpVnqeXrNV7RBcvO1c8xq6uLpoxY4ZOyYhiPuYzMfafnnsWIvXSOLUtV5gxSvIS57KrLlXbJQ8/qbbFVCtGP8KIUfq6MTE6r/fJsybSH195StmNlWrlo5/zx4ZjLRWj814jHadEjObc43KGSceY9LJGSrkxFrsuS8Xot5y0IR+ZdJxhxBh2WWOu91KKnT825CNilCERY/6513PBH6h+Z0PgerhR7bKmrq54nS2yjeSOjg6dcif94m2Jl26b6TBmeox0jNV+6bYX0i9YZyZGqWlkYcYoyUucfnqMqxWjH2HEKH3dmBh5JXvnQn08e4RH9cpRrXz0c/7YcKylYnTea6TjlIgRZY38+ciiEmOx67JYjOWUkTbkI5OOM4wYwypr+M0pT1y9Rn12wrzJataiczZJvmLnjw35iBhlBImRzznnYsSXPThfnXO/ee/vKfXmcWKPc1S7rMlms3rPHaZbgxWkGshxYwpBUyhC5eQv1Pfm5p1qC/Yz95kkTSsDgGjixorBjZZ1927WqaP56fgEKCT/bT3mnEu9mBtBTkrZiEayECyqAJAs+Qv1TZlp17tqUZmyU/4oMsRPOZ2f6NCJL3TIQqXhnMtBI1kYKi7ykvZeNrADT3njKdbGvOtm6j2IE9x/wCaYbRU/tnfIgn28nHNJ6JhDIxmsgcLf3fVP5d5fx6MOj924lPbuzqg0hIufz3E+g1zsGTGwD+43ABAFXjtkMTsIpOSvt+I855JUNqKRLADT36CaVt55m94j6n7uWVp511d1CirBXPc2PXKBypSdUNYkj5cp11izI97yO2TNIl4Gd4xzB7mBjnKQwmUNn3tJHQRAIxkiDYV/adtfTKvtPemX1Xb7z9erLQAEY+47eN4TKs1LB9bgzkHKfny/TuXSEF+FOse4o5w7yA10lEPYklI2opEMYLmpZ+SWz1/adpraTv3AXLUFgPjA4pCQb2/HATr41GGdGkp//oDegyRBRzlIQlkzDI3kgDD9LTwYvfFm0Q23UuvZ5+vUUPr6W/QeVIpNU64x1bo8UbkfoaxJnkJTrg+tfUdtZx44RW0PPZtLQ3y5lTXoKIcweC1rdje/rWa0xHEmS82Xb7xx8Cs33aSTpdXX1+u98HR2dtLixYt1yt3AwAA1NDToVHC7du2iiRNzq7n58ZObX1DbC24/U22dpGPs7u6m1tZWnZIRlXx0M7BATyP7PwciG6MhnY/Mb5wPfPFatb3mW/erbb4oxFhKGDFKXzeFYix2LyilkvlY6jwpxIZjHda1TX+eex6rYfVYtQ2i3BhR1owU1rGOWoz516szxrf/50E69LPhhvHos2rpmFvrdMobG/KRSccZRozVKmv2ZQfosZu+pPbfPesMOqv9ahpX7/632ZCPiFFGuTF6LWsk7j/VLmtSqZTec1dz8SWXDD726KM6WVqlGskdHR065S6TyVBjY6NOBdfT00MtLS065V2xkWTpGNPpNLW15XoMpUQlH90cGbn5/f7IxmhI5yMrJ85io4RRibGYMGKUvm4KxRhkVkkl87HckWQbjnVY1zYdn2scS6yNUE6MzlEjlDU5YR3rqMWYf706YzRlZE2qhkafV0vj7xtDNZNq1Gde2ZCPTDrOMGKsVlnj555uQz4iRhnlxFiqHuOMk0eQB/sH1UyWzWNeVfehCb3HqO95Ve2yJpvN6j13tf179uhd8CtIpRiKM4U/FuwCW5j7gLNBEzWFpm1CcdVapGR//wFa+/UNOkV02YPz9R4kzR0XnqVWMH57oF9/MowrpvWPj/XdQAY72VDWQPyNPjf3xC43kBl31MVN7Wf/+nN6FwAAkgDPI9vhhXs3jXhf5bp7N+s9SIrWD52ntvv37lUrGD/zb50qjY5kAKim8Z1jqG7RKJ0aSt8Xv9dEYeGuMqEHLzyVHq2JE9P4wYhhdeH+ED/VGE3esXmX2v7N6k+r7Zubd6otJEf+ysVvvLxJbQFYuY/PAOTzOzuWZ67wDBZj9wlv6734QCPZJ0x/qxz0kINtovzoBTpO7DN5Zm7RlW8u+A+1nTJzktpCcuSvXHzCabMwigx4zA8iI873ITSSfcL0NwCwGUYc7HHmdbP0HtGJ86bQvOtm6hQkRf4r/s7/y+KLmgIA+BV09ls1ZlpVAhrJPmH6W7jQQx4cplxXFxZVia9KVwSeuHqN2vI5dc6Ns2lsKn7PfEFx4yc00hV33K1TRAfPyZ0DKCPhtV1fUduTJ35NbQGCwgyFkdBI9gnT3wDAJnt3Z0Z0mHAaAAAAQEocR5NrX3/9t3oXvMD0NwCwyco7b9N7OSvv+qreg3JUqiKAmQjgxDOElqZ/pvYxigwAQZk1llDWFFbzx3/8x4PPPfecTpZWX1+v98LT2dlJ7e3tOuWuv7+fUqmUTgXX29tLzc3NOlXY00vWqu3Fy85V22KkY+zq6qIZM2bolIxq5aOb/tP3qW3qpXFqa0QpxkKkY2RB41x21aVqu+ThJ9U2ijHmCyNG6evGa4x+7hVh5uO3P/tJOvDWW/Rg11a6esZJNObYY+mz335Efc8PG451pa7tQvcqL7zGiLKmuEod6yDEr5mh8y47aYBafvJH+pPgbMhHJp6XIcRYybLGWb5HpayRghhllIox/e0u2rEp9wgpmzJrEs357Pt1yp2XOP2Uj9Uua+rq6vSeu5qvf+Mbg0uuu04nS6tUI7mjo/jiFJlMhhobG3UquJ6eHmppadGpwvwskS4dYzqdpra23EqXUqqVj24KPY8cpRgLkY6RBY0z/9UQUYwxXxgxSl83XmP0c68IMx/zn03nRYCczzh6ZcOxrtS17RxF9juq5zVGlDXFVepYByEZoznnll3wETq0JyO2AJ8N+cik4wwjxkqWNc7yPSpljRTEKKNUjI9fuYoOvnVIrbHEj5DWHTuaPvHoQv1dd17iLFSXd1Ptsiabzeo9d3gm2QdMSQiPn4sKwCZRuW+MHT9eNZAXXX+L/gTKFfZ9yk+lFwAAwK+w1lgy5aOzM9lWtXv27NG74BUqLmADrHJdXc53qPNzP/z8TzXd9OPn1Qgyr5YLAPZAJzI45c8SM3VSDOSAH1hjqTSMJAMAhIDfqW7wu9Wr8U71/MoUyIlTbznYY8lD31VbdH4CQBDOVwpKv2IwLuVjbT9Gkj3B9LfwoJc8fKhQVR7eqQ7lQFkDTigfwalUWc73jyjMXILoQ1lTWi2vLCYls3GFWnSLv1ZsdH8X57Y1ue/nvlZQgR8DAAEYQawevFM9OTCaDGHAeQWF5JftJ8ybrPeqN3MJwCkOo8lyzyRvW0PLt0yn9o4O6uhYSE3rV7s0gDOU6Wuiue38M/x1Oc3G43GJhkoAxBU/78PP+RiVft4HU63DJz26h2cKwU3+eWauacwQAgMzl8APjCJ7UztjhkzFbdvWLTS9bTbl2rzTaM5coi3b3IaJm0h4lfPQ4WQKH6aShW/Zpz6m96AS+Pkefs7H3DeeuHqN2gKUgrIG0IEM+Yp1imDmEkSR7aPJtR++6CK9G0RuhLjJ0fhtbGyivr78RnJm6LMttKrElGwAkIORxORBh0jlxGFKGUQXOpAhn1uZXu2ZSwBxVPPwI48OLl50iU6WVl9fr/ecMrRxxWqiBY7p09vWUOfWk6hj/jT9Qb5ttKZzFdHCDsr/EW5Az5kzR6fc7du3j8aNG6dTwQ0MDFBDQ4NODdu8/Fd6j2hm+/v0njfSMUq/vJxVKh/d7Lv9oNqOu7lObQupZoxeScfIJON89oF/ptqxx9A5V/6F/kSGdF6GkY/S1005MZa6j0jn4/979D/pnf1v03nXfE5/EpwNx7pa17bXexkrFKM5R/yWM0w6L+NW1ngVlRjN+cTyzylnjHxfZ0GucxvykUnHGUaMYZc1Xo53qfuIDfmIGGUUirEaZU2hMrLaZc2pp56q99yV10jObKQVy9dTn/pk+lA7dw5lfDeS+desoNW0gC7PezCZG8n8zHIxmUyGGgXnbRc6UEGmWkvHmE6nqa2tTadkVCof3ZiRl1I95dWM0SvpGJlknDxNa/RxjXRoT0Z0ZFk6L8PIR+nrptwYi91LpPPxHy8+P5HHuprXttf7WaEYUdb4U81j7VW5MRY7l5wxSqw7YEM+Muk4w4gxzLLGOdW61PGuZFmT1GNtc4zVKGucM62c97VqlzXZbFbvuSvvPcmNs+lytfAWf82nadRIjU195Jxdncn0UZNz/rVFeOl8XkL/8StX6U9AGqYmVpZkYwmiDYv5ANirnLIR13xyoCyHIEwDudJsfWykvEayi2knTact6Y2Uaydvow3riaZP40YyT6teM/TffM6fiZYX7t2kltA/+NYhlXY+5wGybL1wAPwyvbaVKqRQmaoOP40c0yFrzonLHpyvtgBeykZc41BMtRpEEH3ljCJLsWmQTKyRTNPm08Km9bRcLcrFzxq7vN6Jp2nrRbsK/kwEYCl9iDOMOgDIK6fDz3TIGni3abJhhhW48TutvpoNIIBCbBwUk2skD5k230zBdi7GNY3mqynZQ0ZM0z56wa6owFL64TIVAYwiV9aSh76r96DawurhN5UpHGs7oEMW3JRTNqLzEwCKMfWOKHSi2NIhKNpIjgteSt/gqdZYSh8AJKCHP95M48ZrBQAdsmCUW2nElGtwU+nHewC8sG1wDI1kF2NTY/Qe0Tk3zh6RhmAwnay6TIUKow4A1YcOWciHGVbg5HeqNYBTlBcitqE9gEayiyhNSYgrVAQgqcLq4UdlKlq8VACeuHqN2vI5gQ7Z5JKqLKLzE9xgNDm5orgQsU31fzSSAQAAhKADEMpV7rmDjjFwg4EeiPq6F/tuP6j3oqnm4UceHVy86BKdLK2+vl7vhYdXv25vb9cpd/39/ZRKpXQquN7eXmpubqanl6zVnxBdvOxcvVce6Ri7urpoxowZOiUjrHx003/6PrVNvTRObb2qZIzlko6RScfpjHHZVZeq7ZKHn1TbcoUZoxTp60Yixvz7TNB8NMeT8TG17XyUEpVru9i9zsSIsiaYqBzrYrzEaM4V5qVsLBRjufd0G/KRSccZRozS101nx6fp8MCeQOW0uc+Ye4wN+YgYZXCMv/leL+3YlGsosymzJtGcz75fp/yTjJPvfb866xWafe8Z+hMZfmKsq6vTe+4i20jm1a+LyWQy1Ngo9/6onp4eamlpEZ1qLR1jOp2mtrY2nZIRVj66MVPK/PaWVzLGcknHyKTjdMYoNTU3zBilSF83UjE67zVB8zH/eNp2PkqJ0rVd6H5nYkRZE0yUjnUhXmL0Wy4Wi7Gc+7oN+cik4wwjRunr5h8vPp8O7ckEKqf5mVTzWMcJ8ybTez/eTO+Z/m6VlpDUY21LjBPrJx05/mbdiyCP9UjGyfe+roUv0YxVp4vOwPITYzab1XvuMN0aKkLqmSsAAIA4QLkIYeNnUg1+NvWVJ7fpFCRBlBcilmwYhwWNZAfJnn1wZ8NFkQSmZxoLvVSPuc8EXVRFalYAhMOtIYSyBpxQLkI+qft6/jOpfdv3qC0kgy1lTVQ7DNFIhtAM7hyk7Mf30+7mt/UnEBV7d2f0HtFjNy4dkQaA4NDwgWLCqBSi8xPy5b+LvWnqcWoLEAXjbi7+THC1oZGs/eTmF/QeSNnbcYAOPnWYBvsHVbpu0Si1hepbeedteo+o+7lnaeVdX9UpqAbcf5IDxxqc0JkCBndWc6f1HReepT8Jjt/F7nztz6mXTtN7EHemrLFlxlIUR5PRSM6D6W9yDq19R21nHjhFbQ89m0tD9W1/Ma2296RfVtvtP1+vtlBZQe83mGodbaYB5Fb4o6xJrqhOLYTq4s5r7rTev3evSk+bPU9tg+BnUPlZVHO/WXvHBrUFiIoodxSikQyhGX1u7vTaPOZVtR19Hk63qJh6Rm4FzqVtp6nt1A/MVVsACAevMrv268MVVE5DsoVROcSUa3vld16/8fLwolsAfgRd66TSinUoVxNaLUOwiEo4xncOr6LHU63H3xedVfWSbtENt1Lr2efrFFH3T5/Re1Bp5r7jt1BDJdgOpvB/q/mQWl3WWHfvZr0HSYJRZCgkv/P6hNNmqa002xpQUD60a4JJdCMZPfvh2n1CbsEuriTWPz6WaibVqDRU3/gJjXTFHXdjmm4EOO87fD/yex/CMbTLP234htq+uXmn2kIyVWKKITrS7MKd1wZ3Yp//lx06JQMNJoiyKI4m1zz8yKODixddopOl1dfX673wdHZ20uLFi3XK3cDAADU0NOhUeX7xyKv0h1dyq/q+kzpIU941mWZ98mSVliARo1N3dze1trbqlAzpGHft2kUTJ06kgQX79SdEDavH6r3yhBWjJOkYmXSchWJ84IvXqu0137pfbf2oVIxBSF830jHyfWjH73qptj+3ymPzqU2e7kPFjpvN52MQUb22nffD/75gvTrWXo+zF9J5aVNZIynsGCXKRa8xer2v25CPzIb7j8R14zxuYcS4+q6fqvvPBbefqT8JJqnHOsoxmgW7zvjS+yJ/bedfM+YeGaTd4CfGVCql99xFtpHc0VG8By2TyVBjY6NOlefxK1fRwbcOqffH/e/2f6Fx+8bTJx5dqL8bnESMTul0mtractNxpEjH2NPTQy0tLUd6giR6y8OKUZJ0jEw6zmIxlrsAVCVjLJf0dSMdI9+H9o3bS3+7/K/Vazrqjh1d8j5U6njZfj6WK8rXtrkn/ugza+iEE0+gedfNVIvqSJDOS5vKGklhxyhRLnqJkVdJvuuS3OM0rR86T41Q8uwhNzbkI7Ph/hP0usm/r4eVj898/kW1LzGynNRjHeUYzXT68+87I/LXtts1E/Q+6SfGbDar99wlerp1/vvjpsycpLYQjGQDGSDucB9KlvNublOrzUo1kMEOplysBLziDyBZzOOjeN5cVqIbyWYRFR654alv3LMPwTink4F98Axb5fF7LPn+w/ch9vq6N9UW4oMrLj+8MLc4Hu6RyVaJzmO84s8+lSx7y10sEqLrhXs3jVgY0vlubNuYe2QlOxYLwerWQ3hqIz8bhp59ORhFtgsWf6oevu/w/cfrox7lTo0HgOqodGUPr/izVyXu60EXi4To2bF5l9ry46MMC0PKSGwj2fSgYbU/OZhmDSADPfzx4VbWRKGHHCqvUmWjecXf2PHjVRqv+AMnHnU0ePQRr6OzX9we24rKaDJGkkEEKn32Mz3YmHJdPaU67XBs7IYOxOSpRuexecXfTT9+Xn8CUVbp2UEYdYwffmzL4KnWeHxURiIbyRilCU/Q1z0BQE6x+xSmWtsBZQ1UGzo/IR8Wi4yfJ65eo7bc0R6XhSGjMJqc6JFkTLWWUY2ecggHKlTVh/tS/DiPqelIxOyb+DOLtKFshEKqUdbyqCOPNmKxSIDiMN0aAkFFD6AyKj0lD8pjXsXB778GiBJ0fkZXJe/rPMrIo41eF4uEaIvzjKVqjybXPPzIo4OLF12ik6XV19frvfB0dnZSe3u7Trnr7++nVCqlU949vWSt2l687Fy1NXp7e6m5uVmnZJQbYyFdXV00Y8YMnZIRNMb+0/epbeqlcWprQz7aECOTjtNrjMuuulRtlzz8pNoWU60Y/ZC+bip1rPPvVX6OS5zORz+icG2nv91FOzblnvljU2ZNojmffb9ODceYf+8MQjovo1jW5IvCsS6Gj++ud++kqStP0J/IKDfGQvePqOejYcP9p5zrpth9vVL5WKhe7EVSj3WUYox7u8ZvWeknxrq6Or3nLrKN5I6ODp1yl8lkqLGxUae8c1tplPX09FBLS4tOySg3xkLS6TS1teVe7SAlSIzOnh3T22NDPtoQI5OO00+MXkctqxmjV9LXTSWONY9GmmeMTpg3WU2Pu+Mjude4eBlxiNv56FUUrm0eQT741iG1KA4/88dTGp0jNiZGycdUpPMyamWNmygc62L4+PZO30GndE3Vn8goN8ZC9/So56Nhw/3H73VTqpytVD4Wqhd7kdRjHZUYnaPIcW7X+Ckv/cSYzWb1nrtETbcOciOAwvC8FYCs/Fd0+GkgQ3X5XRSnWtPIIDzmmEZpIUtz78CUa8hn6sRxnrYbd0lp11S6vMQzyVAWP706YB9UqKor/xUdYA+vr+LAvRMgubzO1gKA6pWXiWkko4dMDkY+AMKVPxoJ9ojjqzjAOxs6kNH5CYWgrmyPpM6OrWQbJHEjyZhqLQcjIcmAClXlOV/R8dqur6jPMOIQPxPeOEZtudDPfnw/De4cVGmAMOAeEg1RLFNRN4aoq0abI9aNZPMqDvSMycE06+RAhap6Dr2zl37X/xBt6fuq/gQ9/Dbwe4z2dhzQe0QHnzpMez8/nAb72FQ+ovOz+qJaxqKsib6kjiIblRpNjnUjmRe/4UVvDB6ZgfJVcooDQJKtvPM26n7uWdq/d6/+BGziteJyaO07ajvzwClqe+jZXBogLOj8hEIwmgxRV+kOyFg3kvMXv3lz8061hWAwipwcpkKFUYfK2v5iWm3vSb+strU10VklF9yVM/oy+txcEbx5zKtqO/q8xD0BFRuYZQVemLIUnRVQrqSPIhuVGLiL7HuSFy9erFPuBgYGqKGhQafc/eKRV+kPr2R0iqj51Caa9cmTdWqkXbt20cSJucVypHiJ0Y/u7m5qbW3VKRleYxxYsF9tS73SwoZ8tCFGJh1nuTE+8MVr1faab92vtk5RibEY6eumEsf6v/51Gf1283Al6t2zzqDBX89W+xfcfqbaFhPn87GYal7bP7n5BbUtdXycMQ7uGaR99xyiwy+9Q4N60kA5rw2SzstqljVeVfNYu3ErI6MWo5O5ry+69c7Ixuhkw/3Hy3VTrDzNV6189HovY0k91tWMsZyyRop0XpZb1hRrk/iJMZVK6T13kW0kd3R06JQ7Ly+L5meSzUqj5lUchVYajdNLt/3wEqOzt6ZUL7kN+WhDjCwqL6t3jiLn935HJcZipK+bShzrvbszdNcl56v91rPPp0XX30Lf+/TPVNpL73Gcz8diqnlte+3dLxSjn/tsPum8rFZZ40c1j3W+QqPIUYoxn7mv//WKH0Y2Ricb7j+lrptiZambauWjn5HKpB7rasXonLFUblkThHRellvWFCsv/cSYzWb1nrtYz+3CqzhkYRpZMmFaWOWNnzB8g7/ijrtV2hSI5UzrhXBJTH9z3l8rMY0MgJmRTaicqJepKGuiL0hZEweVao/UDg7ilRNQWKEecgAID55bSyY0lO1jaxmJewuAXdBp4S7MsjK2I8kSPftJh0oaGKZC5ZwuBpV32YPz1Zbvb/x6O36kBKoj/xWD5tgEhQ5JqDTc18NnW8cnRpOjC+2anEqUlVhKE0pCpQ2gcopVpvi1dga/3m7dvZt1Ciot/xWDksfC3HPRURltto4iGxhNBog20xn7+JWr9CfgJqyyMpaNZIwiB2d74Q/hwahD9eC1dtER9rFAQxkgHmwvMzGaXD2mM/bgW4dUmhchhmFht1EwkgxHQaUM3GDUIXylpuRNnpl7ncM3F/yH2k6ZOUltofIqeSxwT46euHQkm1cRofNTHr+l4LEbl+oU0fVPPaP37OB8hASP91QHOsa9C6OcjF0jGaPIcjCKDIXcceFZqvDflx3Qn0AlnHndrBE9ya+ve1PvQaWZqdZ1x44+8opBac57MBrKAHZZeedt1P3cszo1lL7rq3rPDni8p/rQMV5amG0VjCTDCKiIQTGtHzpPbffv3asK/+eXP6jSEFypUWTGr7Hj19mhEzA6PvHowlBfMYjOyuiJyyhyPowmy9r+Ylpt70m/rLbbf75ebW2BUczqc657EVZnbByYe7F0G6bmoYcfGfzo4kU6WVp9fb3eC09nZye1t7frlLv+/n5KpVI6lfP0krVqe/Gyc9XWj97eXmpubtYpGW4xBtHV1UUzZszQKRn5Mfafvk9tUy+NU1u/bMhHG2Jk0nFKxPjtz36SDrz1Fj3YtZWunnESHdtyIn3mrm/p7wYXRj5KXzdhHevH//av1f6Sh59U21LM/Y7l3/OScj7mq9S1XY2ypti9WTovK1HWBFWpY+3GazlZzRi9MjEuu+pSlfZ6/ylGOkYmnZdhxJh/3fzg7q/T9o3DDeOpc+bRR5Z+WadKq3Y+pr/dRTs25RrKBsqanErFiHaNd+a+TP/vgOcY6+rq9J676DaSv/QXRXtpM5kMNTY2qmckeEoI93iZB9vLGWXp6emhlpYWnZJhYpSSTqepra1Np2Q4Y5ToHbchH22IkUnHKREjT7F2Th+bPv8j9KlbvqZTwYWRj9LXTRgxfu2yi+jAjh7fz30XerwkKedjvkpd20Ee6wkSY6F7tHRehl3WSKjWfdxPOVmtGP0wMXqZyeKVdIxMOi/DiDH/ujF5Onb8eJr6gbm06PpbaPwE7/9mtfOR69c8xZpHkAvVr5N6rCsRo3PBNLRrvOH7c/+UPfSeXx+vPykum83qPXfWT7fOX/kNyiM9RQHiadENt1Lr2efrFNFZ7VfrPagGU3Bi9dHKicK6F7hfgzTTOMaUa3k3/fh5uuKOu301kKPAPN7Dj5QYKGsqr5plTdJFupHspSKQ/8wEL6IC5Qsyigzxx4U8F/amQvXYTV9SWyif5AgOhCMq76p03p/RUK48k+coJ6GUuN3X0VCrLHRGlMfcm6XKx8iPJJf6Q7HyW3Ao+AHshdHk8EXpXZVoKENYMJoMXqCsqRx0TlRXZBvJXhts/EoUAyu/+dd/hn7QHcAnVKiCM3ln3lUK0RS1VV7RoVl5SehM5vf6Grz+hDMN3sV1dhAabJWBTohgUi/mFlSU6ESuramp0bvRVewPfeLqNWrLF2+Yr+GIO1S6AOx12YPz1ZYLV54WfCB7UKVBRhRnLJl7NkaTQQq/19fgBRpte68vVA4acuFDp0T1RXq6NRpu4UpCzziEy4yAYjTZP8nRBp4ObPC04E2PvaZTICHqM5YwIyhcSSkrbX+vbxTEdRTZQMMtXOh8kCHViRz5Z5KL/aHmZMJF6x9GHwDiI3868M7XdqstyIjqjCVnow339HAkKV+nnpF7FcvSttPUdv/evWoL4OScuZT+11+qhQ1BFto10RD5RnIhT38h94JtCMbM3QcoF55N9k86r/KnA086eYLaQnBRL2vQUK6MuI8iM/OKP36vL/j37AP/rLZxHUU2nDOXdmzaqd6lDMFh4E+WxGhyzcOPPDq4eNElOllafX293gtPZ2cnLV68WKdyBhbsV9uG1WPVdvXXnqPat0fTBbefqdJB7dq1iyZOzFU0pQwMDFBDQ4NOBdfd3U2tra06VT5nXkrHaEM+2hAjk44zzBgf+OK1+pNgi1CFEaPUdWNIxGjyy+RV0GPNqy6/8uQ26tu+hw7tO0zvHHOIFnzlQ/q7Mmw6HyXZUtbQn+dGt00ZGYT0NcOkj3dY+eiM0ZSVrJx8rUSMQRWLMf8+5ZUN17Z0jJxXx0w7md7e9prYQoxRzcdnb0+rcuafNnyDrjv772jM4Fg67+bcLAQJUT/WLIwY1935S7WPdk0wzhjz2475UqmU3nMX2UZyR0eHTuU4ewJ+eOEz9E79QarN1on1uPT09FBLS4tOychkMtTYKPfy+HQ6TW1twW5EznzkXhbpGG3IRxtiZNJxhh2jxLNYYcQocd04BY3ROYps8kryWHNvtPT9kdl2PkoIIy+lY2QmL839Peiop/Q1w6SPd5j5aATNz0rEGFSxGMu9p9twbUvHyHlVP3M2/f19/6Y/CS6q+ciLQ/LaF4zvj+95/4nqMRQpUT/WTDrGh676XuTLbCadl5Uoa4rdx7PZrN5zZ810a7c/DlMSyhe0EgVQiPRU4rgKa0oe7ovybMtTZ2colAd5OHyPwj29uKTlDy9kyAsY1h07WqVfX/em2gLEjTWNZOfCABf9+Hy9B35IjTIAuAmr0Rcnla5MmWecwDsua3ikxOTdgq9/UG1t4Ly3o5EnA+VlDhrKpZ13zef0XrzxwoU8cvyJRxfqT1DWlCO/rDELooEscw8vp0y0ppHMCwXwNGtjyqzqv6fSJqgwQSWhQlVc2B0KF//TuXoP/OKyxkwlZLa9TgsN5eCQb8PQ+Vlc0ss6lDXlyy9rsABa9FjTSDavOHlf7XvU9uT7TlJb8Ae94hAmVKgKq3RlykwRRg+/P3F4nRbu8zKQjyOh87OwJJd9KGvKk1/WvLl5p9qCvHJHk61pJOe/4gS8Q684VAMqVO7QkRBtvFI4s/11WuVWCpIO+XU03LPcoYyDIPLLmikzMUO2Evzc461pJJspCbxQwOZbX1H7KMz8Qa84VAIqVEerVmXK2cP/+JWr1PNPzvUdoDAua3hxmllXnKw/sRfKSv9QXo5k7utoGB4NZR5Gk4PgsoYfIZ133Uz9CYShnHu6FY1k50XHCwU4l5pH4V+cyR8U+FBJqFC5q2ZlinutubMRzz0V5lbWjKmv05/Yx3nfR1lZWv8Z+/QeQHEo2wpDQ7k0k0fcucBlzZy/er9aEA0qw2t5aM1IMjM9VSz14ji9B4WgUgRQPXt3Z+ixG5dWvTJlXtOB556Kc1bsnGWN7dBQ9g+dyu7Q+Xk0jCIPi9N9M0zoRKgev/f2mocefmTwo4sX6WRp9fX1ei88nZ2d1N7ervafXrJWbS9eNnIFvf7+fqJzhntdUi8FazT39vZSc3OzTsngGFOplE4F19XVRTNmzNCp0vpPz/WKF8sb6RhtyEcbYmTScVYjxmVXXaq2Sx5+Um1LCSNGv9dNKV5j/MHdX6ftG9frFNHUOfPoI0u/rFMjhXms09/uoh2bcguEMJ7WNeez79cp7+JwPhZTrKyRjFM6H5mXGL2UB4b0NcOino+cP9lJA1S/syFwfcKo1rH2w2+M5p7OCt3Xo3ZtuwkSY6E8qFZZ40fY+Wjuo2zyrIn0x1ee4ns2TpSOdSFBYnQra2w41kw6zmqUNaYsZBN/2aD33EW2kdzR0VG0Zz+TyVBjY6PYdOKenh5qaWnRKRkmRinpdJra2tp0qjiv+SIdow35aEOMTDrOasRoRhy89raHEaOf68YLrzHeceFZtH/vXron/TItbTuNxo4fTzf9+Hn93ZHCPNb8DDJPsX593Zsqzcrp8Y/D+ViIl7JGinQ+Mq8xei0XpK8ZFvV85Lzpn7KH3vPr4/UnwVXzWHtVToyl7utRurYLCRJjob+/WmWNH2HnI6974XytEa/r4HxE0osoHetCyo2xUFljw7Fm0nFWq6wxZWHdznfUthArplsXq9CZwt78wYC8gOhI8vS8qWfkbvzcQGZTPzBXbSuNn3PiSko5DeOkSUoeoYwYCflRniTe1/12/CYNXmt0NO6o5s4DXjzTQHlsh8g2kk1vC06k8gUdXQeA8nU/96za8ghy69nn06Lrb1HpajL3UzwTNSxJZY2zTEDD8GhY68SbpDUQzfoSPDsIist/Xat5zVGSvXDvJjW6bvKCR9ehury2j6xauKsQjCYPM3mABjJEhXM0mSsZXNngSkecOUdYeIr1FXfcTeMnyE6lCgoN5WTmARrKOYM7Byn78f2oNwSUhNHklXfepjo9+fEZxp2e4O7M62apRqBZMJIlvazB6Lq9It1ILqe3JckFHgp7iDquZHBlY+VdX9WfxI+z0hjFEZekz87B1Dd0orK9HQfo4FOHdYqobtEovQdeJGk0efuLabXl9SXY9p8PL8gII5nHe/i1RpgJmpM/uj5l5iS1heryUg5GupHsp7cFhf4w5AVEDU85ZkmqZES5EpnkadeY+pZjyokkdq7y32wayDMPnKK2h54tvoALHM05SyjOorK+hM2SPJpsFjLj0XUub+ZdN1OlIfoi3Ugut7clqYU+QwMZoigplQxTWbRplCVplRdMfTtaUspM/jvz/9bNY15V29HnxeLpMwhBFNeXsIVzNDmJDWXn38yj6zzKzqPtYIfIlgrl9LYktYGYxE4BsMuiG24d8RxX90+f0XvxYdtoSlIrL2YEGVPfRpaZcS5H3BrHE944Rk2xrknVqO34+1BxLcf1T+Xu5Xz/i+N6E877elTXl4i6pE67dparmHpup8g2ksvtbUnyFDKMIkNUcaWCKxfOEda4TtGzaRTZWXDzM7r8rC4/s5sEmPqWE+eGcn7jmP9W81UzqYbqHx9LE3qPUVtOg3+8qJURt/UmnGWUTff1KDJlDTcck1bWoIFsr5qHHn5k8KOLF+lkafX19XovPJ2dnbR48WKdcjcwMEANDQ06NdLAgv16j6hh9Vi9V9yuXbto4sTcw/VSisVYju7ubmptbdWpHPO3ev0780nHaEM+2hAjk44zSjE+8MVr9R7RNd+6X++FE6PbdROEW4zm73H+LX5U81j/5OYX9F5O86lNNOuTJ+vUsDicj+ZvveD2M9XWC+k4pfORScToLEukrxlWqXx0lv+G1/IxKcfaKWiMj1y/hA7s20dPdP+GLmt9j/rssq/dLRojk87LUvlYqIwqphJlTVCVzkcnlDWF2XCsmXSc1S5rUqmU3nMX2UZyR0eHTrnLZDLU2Fh4yovpPfY6utrT00MtLS06JaNUjH6l02lqa8s928nye8jLIR2jDfloQ4xMOs6oxejWSx9GjPnXTVD5MUqMNlTzWHOvPk9B5md0eQoyj7Dys1P5bD8fy536Jh2ndD4yqRhNmbLlp78UvWZY2PnoLA8Nv+Viko61ETRGnmJtntk1Rh/XSP/wtOwjNdJ5WSofzX3dzz097LJGQqXz0SnOZQ2PivOikLzmhXmkh3kta2w41kw6TulrhvmJMZvN6j13sV+pwq3gjJtyG8gA1eSsfNg69ToO0/HyX0/hLODjAs+G+bPv9oN6L/q4jM8v57lMRLlYGWa9CbOolWHrPZ2V00CG0uL8KqT8tyYwlDX2i20jOe4FZBIa/xB/camE2Px3nHndLPVsLvfqxwneh+yfs9yMehnD06qdMZqGMRrHlWXWmzCLWtne+Wlz4z7q8sua19e9qbZxkP/WhLiVp0mViHcecEGa/fh+Gtw5qD+JD1QIwHamUmVb5SQuow28QCIvlMjT3kwjMg6rXeN9yOWJckOZ4zFfBhrG0bPkoe/qPbvu685Y49KBGyVxLWtYnEfJkyzWjeS6S0bpPaKDTx2mvZ+Px0p6poKAigHEhamQLPvUx9Q26uI82hCXygveh1y+cTfX6b1oyG8YM16MC2VgdNk2oowGcvXEoaHMHbKMR5Dx1oT4iHUj+dDad9R25oFT1PbgysNHCtv8r/ypW1FlQ4wAQUS9QuVsyMe1MhWHhrIZQUbPfnlMA7SaZY4pn50wcmwP2xrKDA3kynE+/sJljXk1lG3rYphykv8eHiUv9xW2ED2xbiSPPjf3520e86raemEK5WJfUYBKAsSNbRWqpFSmTOXlF4+8as17LZ2Ne/TsB1fpcs+trEXj2E423NdNXGggV56zocyNYx6RfeXJbfqT6HM2kCF+Yt1IHt85huoWjaKaVI3aTnjjmCMFbf6Xn6lbpgAv9BUWs+Ko1zgBbBP1Z9mSVJnKr7z84ZUMrbt3s/4kupwNZPTsB+Msa8Is25hbGWrKZ5R5dotyQxkN5Oozi1yZR2P6tu9R2ygyC0I+e3t6RFkD8VS7dcuv9G781EyqofrHx9KE3mPUltOlOAvlQl+lmIK+/4x9Iwp+55cXvNAYLzi2u/ltz/8PgO2iVqHauzuj3gUaxUZ72PIrL1F7rte5gjVvf3LzC/o76NmX4izzwiiH3MpEr2Ut2COKDeUk3tOjKH/Rq0P7DqttFJkFIZ0xoqyJr5orP/nJwX/553/WydLq6+v1Xng6Ozupvb1dp9z19/dTKpXSqeB6e3upublZp4LpP32f2mYnDVD9zga1X47R59XSoWdzz1WzX531Cs2+9wydkhHlfDSSGCOTjtO2GJdddanasiUPP6n3/Ovq6qIZM2bolH8/uPvrtH3jep0ieu+ZZ9PFS/5Wp2RE9Vinv91FOzblFsA6fNwBGrVnDF287FyVDkoiRmd8TDpGJn3d2HD/cbtmTLmWemmc2vqVH6P5fU5+frcN+YgYj2bu637v6dJxdnZ8mg4P5EYsg5QvTkHLmnzSx5pJ56NEjAeyB2nTo6/Rzl9l6NDbhyNZ1hhPL1mrtg++cS9dfcJ1NPqYUXTh//qQ+iwIG441k45T+pphfmKsqyu+SGVNx+c/P3jXnXfqZGmVaiR3dHTolLtMJkONjY06FVxPTw+1tLTolIxiMfrpkeeFx/i56q5Fv6CzH/8T/akM2/OxHDbEyKTjtDFGZ09/udPh0uk0tbW16ZR/JoZ70i/T0rbT6NgpLXTDd36oPpMS1WPNI7U8xZpHkPeN20uj+sbq7wTvPZeIkUeQeSo4j3TzKMThpv109b/LrpAufd3YcP8pdM2YcqucUV4To1vZV87vsyEfEaM7c0/1c0+XiJNnBa288zbqfu5ZGn1cIx3akxGdZh20rMknfayZ9PEOI8YHP/PdI2WNxCitVIzO6dVc1nCMvN4FP84TlA3HmknHKX3NMD8xZrNZveeu9oMfPEvvQiWZ6WTFvgyz8Fjte0tPFweIk2pO0eN/z/lvcgOZnXDaLLVNAud7LS+4/cwRFZYoPI+Vv4J186lNagvhMOWSn05exj9vHj8y3Mo6SAZzX6/0Pd00kI3Ws8/XexAlXNYYXM7wl3mkplqLRzrLO24Yjx43CgtCJkCsF+6yHS805lx4bMxHht/7DJAUkj39XuQ3jq9/6hlVmRo7frzanv+XxWe5xF1UGsrOf9usYH3qpdP0JxA2Lw1l/pn8n0PDGFg1Gsqmgcyzgtj2nw8/RgPRwuWMs6wxK19XevFI00g3OCbuOD7v5jYsCJkAaCRHWP7CY4R6BSSUs0J1x4VnqYW0eOqctPwKG/+74yc00hV33E03/fh5tT2mQfa5IRvlN5T5K6ye/vzFudwqLWYFa7PQGITH2cAt1FB2axynXhyHxjGMUKmGMv9+579hZgVN/cBctYXoquTikW5ljZHfaIdkQCMZAKzQ+qHz1Hb/3r1qRGDlXV9VaQn5lSiuvJkKHLjLrzSE1dNvVhM1v99ApaV6nI1dfvsCv4WB38aAkWPwK8wO0Pz7unNW0LTZ82jR9bfo70BU5a98zeWAs/EqqVhZA8kk30jetoY6O9dQwVeBq+935r7W2PPCcACoru0vptXWTJXr/ukzRypB+ZUhP5z/HxrH/uX39L++7s2jeuSDjC7v2Jxbvdr8foZKS/XVXZJ7/Gewf5AOPnWYdp/wtkoz0zBG4xi8kO4AzS8PzH3dOSvooqU3qDRE25nXzVKP0phHagwzo0hyBhPKGsgn2EjeRmu44buVaLr+5CiZjbRiFdHCjg7q6GinuX2rCO1kAPBi6hm5FRDNVDk3pnLk/Hr2gdwr7sz7js1ohfm+gcZxefJ7+tkTV68Z0SNvRpedjef0v/7ySMXGrVFtKkH8O5j5/c6KElTPobW51xPy2xcMNIyhHOV0gObfzzmd/7Po9LSfc/FI3ubPIMovYwyUNSBBsJE8jeZz43f+STp9tMy2LURz5wz9JGuk2W3TactWtJIBoLRFN9w6YgEtnjpnKkGlKkNccbrrkvPVKIUZrTBK/b9QXH5P/2UPztffGTm6zJUQ53S2HZt2HqnY5E9z40a2k/P3YzXRaBh9bq76sFm/fYEXlwQoh5cO0Ae+eO2RRrDb/ZzTBu7p8ec2g8k0dlHWgJSKPpOc6eujJue7qxqbqKkvQ/LL7wBA3OQvoOU2Vc5Ujpxf+cxoBXP7PviT39PP6RPmTVbfc44uM66UsPyKTf7nhhk1yP/9UH3jO8eMePvC+PtwXKA8QTpA8+/nxX4W4sNtBpOTn7LGlDMoayBfzUMPPzL40cWLdLK0+vp6vVcIT7veSid1zNcjxsO2remkrSd10HzzDZ5+vZpoweWzyVnd5eeV58yZo1Pu9u3bR+PGjdOp4AYGBqihoUGnZEjHGMaLwZOYjzbEyKTjTGqM5rrp+q8f087f/lp/SjTp3VNpxp8t1CnvcKxLO7z/ML2R7qXsjreofvKxdEJbM40aO4o2L/+V/gmiwTGHqeaA++hj6oR6es+Hjtcp72y4tm2IEWWNDMQoJz/OoPfzMGKUvm4qkY9BVSvGQmWMYVtZY8OxZtJxVrusOfXUU/Weu/Iaydy4Xb6e+tQn02nhiAaxTCO5o6P4u0gzmQw1OkelAwrjQEnHmE6nqa0tNy1JShLz0YYYmXScSY3RXDf8zBovCMPvxuRXf/DKpuUs3IJjXT5+/ounvfFrPBpPH0/nfG6u6q13fj5l5iQ1za2cXnwbrm0bYkRZIwMxysmPM+j9PIwYpa+bSuRjUFGN0bayxoZjzaTjrHZZk81m9Z678qZbN86my9XiW/x1dGO4kMamJuobCv6ITB/1NTWOaCADAITBy3RtCBdXRsx0tjl/9f4jlRPn55jmBgCl4H4OxaCsAQkVeCaZR5Zzr4RqnDadaP0GtT/UQqaN6S00/SSvTWwAAAAAAACAcFV04S4egV4wt49WqfckL6ct09uHp14DAAAAAAAAVFkIjWR+FZRzCvbIdOPsy/U07Q66fDamxwAAAAAAAEB0VHYkGQAAAAAAACDC0EgGAAAAAAAA0NBIBgAAAAAAANDKe09yyPg9ye3t7Trlrr+/n1KplE4F19vbS83NzTolQzrGrq4umjFjhk7JSGI+2hAjk44zqTFKXzc41jJsiJFJx2lDjChrZCBGOdJxhhEjyhoZiFGGDdd2tcuauro6vecuso1kXtirGOkXWuOl2zJsyEcbYmRJfFl9GDFKXzc41jJsiJFJx2lDjChrZCBGOdJxhhEjyhoZiFGGDdd2tcuabDar99xhujUAAAAAAACAhkYyAAAAAAAAgIZGMgAAAAAAAICGRjIAAAAAAACAhkYyAAAAAAAAgFZ7YP8+vQsAAAAAAACQbLVjxo7TuwAAAAAAAADJhunWAAAAAAAAAFrNQw8/MvjRxYt0srT6+nq9F57Ozk5avHixTrkbGBighoYGnQpu165dNHHiRJ2SIR1jd3c3tba26pSMJOajDTEy6TiTGqP0dYNjLcOGGJl0nDbEiLJGBmKUIx1nGDGirJGBGGXYcG1Xu6xJpVJ6z11kG8kdHR065S6TyVBjY6NOBdfT00MtLS06JUM6xnQ6TW1tbTolI4n5aEOMTDrOpMYofd3gWMuwIUYmHacNMaKskYEY5UjHGUaMKGtkIEYZNlzb1S5rstms3nOH6dYAAAAAAAAAGhrJAAAAAAAAABoayQAAAAAAAAAaGskAAAAAAAAAGhrJAAAAAAAAABoayQAAAAAAAAAaGskAAAAAAAAAGhrJAAAAAAAAAFrNQw8/MvjRxYt0srT6+nq9F57Ozk5qb2/XKXf9/f2USqV0Krje3l5qbm7WKRnSMXZ1ddGMGTN0SkYS89GGGJl0nEmNUfq6wbGWYUOMTDpOG2JEWSMDMcqRjjOMGFHWyECMMmy4tqtd1tTV1ek9d5FtJHd0dOiUu0wmQ42NjToVXE9PD7W0tOiUDOkY0+k0tbW16ZSMJOajDTEy6TiTGqP0dYNjLcOGGJl0nDbEiLJGBmKUIx1nGDGirJGBGGXYcG1Xu6zJZrN6zx2mWwMAAAAAAABoaCQDAAAAAAAAaGgkAwAAAAAAAGhoJAMAAAAAAABoaCQDAAAAAAAAaGgkAwAAAAAAAGhoJAMAAAAAAABoaCQDAAAAAAAAaDUPPfzI4EcXL9LJ0urr6/VeeDo7O2nx4sU65W5gYIAaGhp0Krhdu3bRxIkTdUqGdIzd3d3U2tqqUzKSmI82xMik40xqjNLXDY61DBtiZNJx2hAjyhoZiFGOdJxhxIiyRgZilGHDtV3tsiaVSuk9d5FtJHd0dOiUu0wmQ42NjToVXE9PD7W0tOiUDOkY0+k0tbW16ZSMJOajDTEy6TiTGqP0dYNjLcOGGJl0nDbEiLJGBmKUIx1nGDGirJGBGGXYcG1Xu6zJZrN6zx2mWwMAAAAAAABoaCQDAAAAAAAAaGgkAwAAAAAAAGhoJAMAAAAAAABoaCQDAAAAAAAAaGgkAwAAAAAAAGhoJAMAAAAAAABoaCQDAAAAAAAAaDUPPfzI4EcXL9LJ0urr6/VeeDo7O/UeAAAAAAAAgJxPfepTes9dJBvJAAAAAAAAAGHIZrN6zx2mWwMAAAAAAABoaCQDAAAAAAAAaGgkAwAAAAAAAGh4JtmnbWs6aRUtpI750/QnWmYjrVi+nvp00pi+sIPmT8vQxhXLab3+ZtPcdrp8dmMuwZz/b9Ncar98NvF31b+1hT9kTTS3/XLi/y2zcQUtH/5lR34+mG20pnMV5f656fT/b+/+cttGkgAOl/0QZ3YQwOIRJO4JHPsGto+QuYIuZF/BPoLo950ZWX6YnceheAQqiSdBZoGst4tskt1kU38sCViMfl9gRKLINg1UsbrJFnk9vpTqL3T3o7PvwCrZg5jQ8mKq4se4VcV0sV31oR+TJgucnGpyo/xdTYNNvLrxXeWlfbMFNxe93HD3Y2c5isNRxncaB463rRgvVTmwIs7dbeOqjvn1yc21vdSannrX3o9d5SgOSBHfoVrTjnHL5sDyON+w1nh9QWf9Lbm10ssNag3waqu+kyw6SH5+fl7752DNk5ebm5uXJDH/J3O7cIl89nJ3N3vJ7etZvUn+Mrsz7VTvdb2b5KXboq539zIrGnCZ5U1jZvO79fZnKX+f3DaL19XfYfYyuQntExCi8XJjYikx/4divGueNHE4n1VxZ2j+1XHYyiGHxutdKEDnJgebxnYTx94+OW0WOd20r39TcJ+AgOKYa+InSXpiuU3jsEma/jj34tWl6/XUoJ3XGn+f3NzQ13X7vXURCNG42qTWuP2rZXG+ea3JTd2qV99RHHv75LZJrQG2Ehrnuj9Mt17X8FLG47Fcjuz7FbLZVKJze0ZvcCZn9WnNgQwi+9Io1rvuXmErRTLonBIcyFnTmPncaey1FpmkciHvbbODs3OJ07lk+lGeS1z9HWYv31+IpNmieAcsN5RLkzPjdZNm8SSPeROHwzPnjLiJ8zrSs5lMo+veq0xRN2m0Meds/kCiHaRNNk/DubHIJY/P6983LD8QsgbrGJx9MLXmg7xfK0YX8vSYy0WTND1xbte76rnKZFbsLt9DrcnmkgZzw/zLo+bvMDXzPE5lrkUIWGnDWlPUkCoOl8T5K2rNwNStenXz+fZZs5AslXBuUGuAvWKQvBeZzJ3Ovq/sDETFQU1fxxIt7otnQ+vP/VN1eFtInqcy6Sz3LcxBMiobK+i0oaqt24dADyN76LalB1rTRtOKdq5y07bun13kyHMOwdi9hekJ1CeW2pwY1ZiPo4XcV3F+/1R3CvSkTjrpLvdpbrknoHSKqt3m9l66qWY+77Tl5nFJO1eaG7p/HWa/yBrsnJ7grDv7bW6cm9cSi8yqOL+VujyY43yeT+Wuvbxl01qjn7cXt9soBhFFbug+2GWO3OwbsGvZ3Dmx1OLG6Na1RnPLPQGlU7Grtm4figsRvnCt8euVSRvTpuYGtQbYr+P//PXNvsSuLJ4eJY+Hwc7+4ilxzmDqwS+VaX5eXKUej68lmia2k27PjNbL77qdF3PATaaRnNseknZKErmy24zlWia9HZ71DGQYR5LWp/P1jGbgoAxsLZOZieVRsN9iOg6TplNTdE6muZxXcR5NJbEj2+FllTPl8rtAAmQPE8kv3tuz/TpAnsvIbjP+KZY06Rtcr2cwjCWyMzGUDv7JGuxDMRMpnDR+nNuBcBr9ZOP8QvKJ7aQPzuRDHf+6PHCiaO+1Ziij2OR1PUspk3nzdU9gd4oZS7EMwx00P863qjULeUqcGYU6QE5Eruw2plsnk+2ShloD7Nnxm5O39iV2QweSzUG2oTd/uC07Ft7cHWeKme0odC/U6lTO8sxhpTiLXxxwm6naekDPzWC6Oruv93KottGbPhTLzcJ6nd4rbY3B2ZVc5BPbpvmFsTkou1cCgF3I5s7A1aE3JSkGsf7NTyJn3eEoNgOAbiTr1LNIr+za99rx1ivG89G4uRmSDh6kmbFxqzdcqc7EF79bl08kra+0ha40t5hBx9VFXreZSCxxcDorsI2+GUuBOC/ETV0aDE1M6myh8m2tmMrp16DNak1Z53SZ3gipvtK2xmBgeFmeDC7bnJsc15kaZA12q2/GUijO1atqjQ6Iy8aaqdoLkzPOjI3iZlvVNtQa4P8TN+7akHuTlBC9kULnc/cmEa7ucvfGRS73JhF9N4zo29Zj9r+zre6zd0OXvhu5rPk7AE9/PFXmSSA/enKtE/99OenFdc8+dGI/xGwbWKedC3152bt/wBK98VQJHct7c629vK8m+XG9Ta3RbTvrtHOhN//69w/ot6rWaFx1P++L887ydWpNX0yvVQdCtWb9fuJ6vwNAJTTOdX/4TvK29Aygc5Zcz1J6X1RU2UzS+CrwvTGdziwyndntdRpQGgemnOpUVJG4mB9kXpt1rrqNFd9TSR9fMVVUryrIVJrdeDT7Owpe1Zv0ftcaWJde6XK/j6VTK/3vXJkoFBOGch24Y4pOMTNJY7fX9VKJA1NOdSqqSZrirLrGtGmsG9PFdyKb2N+EXlVo8s3NUZc/VRx4Lb3S5d5PQm8c177S2hvnZskoTuWx2l5vSGSO+p1w9WrQHmrNcCRx+lhfIXNz1OV/LQl4rVatKW5S2r7SuiTOX1FrsplZJ3SDPL35pBP761u/n0itAXaL5yRvSgfF81EzZbr1Xqc16zQ3t2+vnZv6GXyV+hmV5TblY+6cZ+rpdB3nucv1c/Fay0vNcy2bttQGz+hz23Wftad/X9Ugz+DDq2hHRadMV5331nuNPZ2Z5sWWrtM877XkxLMTl83ziXWqp/MszGCONcLPtTSc7VZx222eXenu+wY5CDi0bujXc6op0/57jfUiabzYWhrnXn44zx13j/FLalBpB7XG/X1Ornl1coMcBBorak2rv1ZYEeduvK6uNa3lVl0bvFxz21vFbdfNNWoNsI1Vz0lmkAwAAAAAOBirBslMtwYAAAAAwGKQDAAAAACAxSAZAAAAAACLQTIAAAAAABaDZAAAAAAArI3vbg0AAAAAwN8VV5IBAAAAALCOj46O7EsAAAAAAA4bV5IBAAAAALCOj4+P5Nu3b/YtAAAAAACH6/jk5K18/PjRvgUAAAAA4HCZQfKJGSR/sm8BAAAAADhcx//48Uf5I03ly5cvdhEAAAAAAIfp+OTNGzk9PZXf/v27XQQAAAAAwGEqHgH17t07eX5+lp9/+VX+5IoyAAAAAOAAff36VY7+9cuvL//9/l2+m5/Pnz/L50+fJP5nLIPTUzk9HcgPP7y1qwMAAAAA8PeiT3vSm1nreDjLMvkfLbmG+0bLD0cAAAAASUVORK5CYII=;" parent="1" vertex="1">
                    <mxGeometry x="253" y="10" width="466.8" height="290" as="geometry"/>
                </mxCell>
                <mxCell id="4" value="" style="shape=image;verticalLabelPosition=bottom;labelBackgroundColor=default;verticalAlign=top;aspect=fixed;imageAspect=0;image=data:image/png,iVBORw0KGgoAAAANSUhEUgAAA8kAAAJaCAYAAAAcSQXAAAAAAXNSR0IArs4c6QAAAARnQU1BAACxjwv8YQUAAAAJcEhZcwAADsMAAA7DAcdvqGQAAMrvSURBVHhe7P0LfBzVfTf+fyVbtsHSYsmubBRIYuOAILYLsWXTEG4ttgkBO6QkCEJoSGkaBSd1+rQQCIWHlJDA8/s/kNSgNqWl5WoTnpAYcrGdPuAnkGKvHYitgCC+JIEoWLG1trQGX9Ff37PnWKP17O7Mznd258x83q+XmDkrIX915nKuc6amr69vcAgx3jr3zdb5eTVFIQa/ohIzx3Ho0CF6++23aWBggN7znvfo75R28OBBta2rq1PbUtx+vlg++P39rKenh1paWnSqOIn4i/H785wXNsfPkhj/6NGj1baUqMZve/4jfneIvzjEXxz/fE1NjdXxsyTGz8etlCjH74XX32/ywtb4jaA/7+Wc+N3vfkfvete7dKq4AwcOqO2YMWPUtpRyfp5j9vrzLIz4Tb5xO4mNHTtWfTbq+uuv/5/8AVfcTUPmnXfeOZI2n5ltNUUhBr+iEjPHwceVL6j9+/fTcccdp78zEv9c/tfhw4fVtra29qjvuX25/Xwx/POMf94rbug3NDQc+f3FviTiL/bl9+ed8XvhN3+kfz7/fsBf/f39VF9ff9Tnbl980+Et33Dyv+f2FfbP81c58Yd1Pvj9ef7yE3/Y8SD+4l/lxMPXXNTO/1K/n/E2DvnP26TFX+3zx3x5+XlzrvFXXPK/nPid+VDoq9x4Ro0apX5/KfzzjH+/V2HUf/Ljl8p/NzbV39z4iZ/LIub195f7817PN8bnv9/893M+83E3gyI1f/jDH9RZwB9ysNyAymQyasRx79696oblV6ETy2Z8w44Sc2J5ZY4v96rwMW5qatLfKa2ck4yF9fNs9+7dNGHCBJ0qLinxm+uuEvHv2bOnYEdLvrDjQfzFIf7iEH9xiL84xF8c4i9efywnftR/CrMl/kLnRND4vbRVkpL/nBd+fz837o855hh1f+B/o+b3v//9IDeeuIK9c+dO6u3tVdMIuJXOPVV+hsABAAAAAAAAbMIDidlslt566y168803qaa7u3uofZx7RpIbxCeffDIde+yx+scBAAAAAAAAkmHfvn1Uu3XrVtq8ebNKnH766WggAwAAAAAAQCKNGzeOak963/soddwEamtr0x8DAAAAAAAAJFPtnt176F0tLepBZQAAAAAAAIAkq+VVrBsackvJAwAAAAAAACRZLa/gVep9U/y+qPwvXk6bl8rmJbZ5FezxQ1+/+MUv6Gu3XkW/Wn8jffO2xfS1f/yf9Nbb+/RvAQAAAAAAAIi2Wn4Pst/XPPF7p8aMGasW+Ro/fjz99LkNdPttf0tTjvkJnXlaHT30nR469YNfoq994/+jCcel9P8FAAAAAAAAEG01K596evD8887VSXc8cmzwO5W5cbxt62u0Y8cu+u8X/psO9v+UzmgdS2t/tosajp9Pf/nZz9EfTUyp90w5X+YMAAAAAAAAEGW1gzSod0t7Z3BQNZAfW76cPvapL9CnPvMZOnniepqceod+8sJxtPjq/01fvvF6mtAwlvbu3XtkOjYAAAAAAABEx9/93d/Rcccdpx69dfvi7/HPRM2sPz6d/t9Pf6pTR+Pv/fHpZ+hUeWq+/9RTg3963nk66Y5HkgeHGsijR9fR1l91059/8tNU19RKBwd66NQ/ytK1S75GCz48n2qHGty50eORjWOe0l0IH4CBgQGdAgAAAAAAgLBxI/iFF16glpYW/clIu3btojPOOIP27NmjP4kGbgR/5jOfoX//93+nc84+W3+aU+x7ftTqbUk8zbqubjSlN75IJzX10OD+Ppp2+gX06/3vo/985CG6/OOX0bJ7O4d+ZoxqUAMAAAAAAEA0cfuOG8jcWHb7mjZtmvqZqOHGLzeCuTHsHFGWaiAzz41kXs36wIEDdMmixXTuwiV02nv/iAYG+um0Pz6DJjdPoc9d90X62X+/QDv/0KsWAkNDGQAAAAAAAKTlN5QlG8jMcyOZ8QJc48aOof9x/U309//jS/T7TT+mv/7E+XTen/4prVjxOP3VtddSfWqCml5dzrPITzzxxIh58P/93/+tvzPye1/60pdo1qxZ9Otf/7rk93hrvsdf5nP+uXvuuUd9xlsAAAAAAACwg7OhLNlAZr4aybwQFy/e1X7ZYvrsNVfSiY1EDy+7lf5///A52vXrl+j/+8cb6O+++NdUUztq6Kf9jSRzg/iaa65Rzyfz1+bNm2nBggWqUctf/D3+jL931lln0fbt29X/V+x7bObMmepz8zu5cWxwRvLnS5cu1Z8AAAAAAAD44xyUK/YFdvDcSObp06OGGsnZvftowpj99Ccn19OsqcfRJXMn0z/89UX0kTNPpPdPPkxjDvfT/gP+R5LXrVtH//iP/6hTRO9973vp2muvpQ0bNqgv3ufP2GWXXUZTp05V+8W+Z0aizUnJDeaf/OQn6jN2yy236D0AAAAAAIDymEG5Ul8gxznF2owoO59RDqLWz7PDtbU16tVOY0bX0IIPzaJZJ59Ibx0YpJ27szT+2GNo1invptPf/z4aM2Y0HTp4SOS55He9611q+573vEdt3RT73gUXXICTEwAAAAAAICbyn0HOf0Y5KF+rW9eOGj3USM7SoQNv0+hRo+i4+rG5hvPbB2jNC900sek4evanz9ObO3bR+Pp6qqur89xQnjdvHv3DP/yDTuWmUd9///30J3/yJ6qh7PweP4NsplQX+x7/vzxy7Hy2GQAAAAAAIOn4UVp+zVMhPT096meiptAiXZINZU9/NS/ENXbsWHp7/yFal/45TZ4whl7v3UOvbO9VU7BHj6ql/fsP0ht/yNKk1Bi649b/QTd/5UZ6/Xc9alVsL7hB+8ADD4yYGs3PEJvv8VRs873nn3/+yJTqYt9jq1evVs82m+87n0kGAAAAAABIor/6q79S70E27aT8r1NPPVX9TJTwAOwXvvDFoxrIhmkoL1nyBf1JeWq+t3Ll4J+df75Ouquvr6cN6Q207M6baNyoQ3R8Yx1l3zpAW17fSZec+346YfIEevK/NlFNbQ2NHzeGTnrXcbSnbyd1726i+x9bSW+/ldW/SQ4fuEJTp4t9DwAAAAAAAOzEDeVy3qTkh6eR5P/9zf9Nt371KzTQ30NjxtXQqo2/pg1bd9Cb2f20asN2+t7zr9Grv99Dv3qzn57d/Dr96Odv0B8O19Ovtr1Cf3fD3+nfIodHg/lZYzfFvgcAAAAAAAD2CruBzDyNJN/95DfouAkTaLBmNB04eJCOGZt71pgDPHjoMB1+Z5DG1o3iiNUzyocOHqYDQ5+PP2Ys/Xp7L93yqS/r31Q+Hh02eDr1pk2bdKr49wAAAAAAAAC88tRIBgAAAAAAAEiC6C1XBgAAAAAAAFAlaCQDAAAAAAAAaGgkAwAAAAAAAGhoJAMAAAAAAABoaCQDAAAAAAAAaGgkAwAAAAAAAGhoJAMAAAAAAABoaCQDAAAAAAAAaGgkAwAAAAAAAGhoJAMAAAAAAABoaCQDAAAAAAAAaGgkAwAAAAAAAGhoJAMAAAAAAABoaCQDAAAAAAAAaGgkAwAAAAAAAGhoJAMAAAAAAABotdmBvXoXAAAAAAAAINlq6xvG610AAAAAAACAZKv53sqVg392/vk6WVp9fb3eC09nZyd1dHToFAAAAAAAAICMbDar99xZ+0xyJpPRezJ6enr0nhzpGNPptN6Tk8R8tCFGJh1nUmOUvm5wrGXYECOTjtOGGFHWyECMcqTjDCNGlDUyEKMMG67tqJc1tTQ4qHcBAAAAAAAAkg2rWwMAAAAAAABoaCQDAAAAAAAAaDXf+/73B//sT/9UJ0ur1MJdixcv1il3AwMD1NDQoFPB7dq1iyZOnKhTMqRj7O7uptbWVp2SkcR8tCFGJh1nUmOUvm5wrGXYECOTjtOGGFHWyECMcqTjDCNGlDUyEKMMG67tapc1qVRK77mLbCO51OrW/GB2Y2OjTgXHD7i3tLTolAzpGPkB97a2Np2SkcR8tCFGJh1nUmOUvm5wrGXYECOTjtOGGFHWyECMcqTjDCNGlDUyEKMMG67tapc1sV3dGgAAAAAAAEAaGskAAAAAAAAAGhrJAAAAAAAAABoayQAAAAAAAAAaGskAAAAAAAAAGhrJAAAAAAAAABoayQAAAAAAAAAaGskAAAAAAAAAWs33vv/9wT/70z/VydLq6+v1Xng6Ozupvb1dp9z19/dTKpXSqeB6e3upublZp2RIx9jV1UUzZszQKRlJzEcbYmTScSY1RunrBsdahg0xMuk4bYgRZY0MxChHOs4wYkRZIwMxyrDh2q52WVNXV6f33NX853/+5+DHPvYxnSytUo3kjo4OnXKXyWSosbFRp4Lr6emhlpYWnZIhHWM6naa2tjadkpHEfLQhRiYdZ1JjlL5ucKxl2BAjk47ThhhR1shAjHKk4wwjRpQ1MhCjDBuu7WqXNdlsVu+5q5XuZQAAAAAAAACwFZ5JBgAAAAAAANDQSAYAAAAAAADQ0EgGAAAAAAAA0NBIBgAAAAAAANDQSAYAAAAAAADQ0EgGAAAAAAAA0Gp+9KMfDX7oQx/SydIq9Z7kxYsX65S7gYEBamho0Kngdu3aRRMnTtQpGdIxdnd3U2trq07JSGI+2hAjk44zqTFKXzc41jJsiJFJx2lDjChrZCBGOdJxhhEjyhoZiFGGDdd2tcuaVCql99xFtpHc0dGhU+6kX2iNl27LsCEfbYiRJfFl9WHEKH3d4FjLsCFGJh2nDTGirJGBGOVIxxlGjChrZCBGGTZc29Uua7LZrN5zh+nWAAAAAAAAABoayQAAAAAAAAAaGskAAAAAAAAAWu3g4KDeBQAAAAAAAEg2jCQDAAAAAAAAaGgkAwAAAAAAAGhoJAMAAAAAAABoaCQDAAAAAAAAaDU//OEPB88++2ydLK2+vl7vhaezs5Pa29t1yl1/fz+lUimdCq63t5eam5t1SoZ0jF1dXTRjxgydkpHEfLQhRiYdZ1JjlL5ucKxl2BAjk47ThhhR1shAjHKk4wwjRpQ1MhCjDBuu7WqXNXV1dXrPXWQbyR0dHTrlLpPJUGNjo04F19PTQy0tLTolQzrGdDpNbW1tOiUjifloQ4xMOs6kxih93eBYy7AhRiYdpw0xoqyRgRjlSMcZRowoa2QgRhk2XNvVLmuy2azec4fp1gAAAAAAAAAaGskAAAAAAAAAGhrJAAAAAAAAABoayQAAAAAAAAAaGskAAAAAAAAAGhrJAAAAAAAAAFrt4OCg3gUAAAAAAABINowkAwAAAAAAAGg1P/jBDwbPOeccnSytvr5e74Wns7OTFi9erFPuBgYGqKGhQaeC27VrF02cOFGnZEjH2N3dTa2trTolI4n5aEOMTDrOpMYofd3gWMuwIUYmHacNMaKskYEY5UjHGUaMKGtkIEYZNlzb1S5rUqmU3nMX2UZyR0eHTrnLZDLU2NioU8H19PRQS0uLTsmQjjGdTlNbW5tOyUhiPtoQI5OOM6kxSl83ONYybIiRScdpQ4woa2QgRjnScYYRI8oaGYhRhg3XdrXLmmw2q/fcYbo1AAAAAAAAgFbb29urdwEAAAAAAACSrfa4CRP0Lkh55KM/UF9Pf2Gt2oZp25pOWrExo1Oy+Hd3rtmmUyPx9wp8izIbVxT8/4IqFhP/u+XkRbG/BQAAAAAAkgXTrSsgzIbytPkddPls2ecYhlqN6rnwrTRdf5Ans5HSfXNpzjSdztM4+3LqmF/gm+UqFRNtow3rm6hNOi8AAAAAACBR0Ej2yYwSF/ty4/Zzzq9ImTZfLZw2/ySdzpPZtoWa2mZTRZujJWKibVupb+4cEm6aAwAAAABAwqCRbJF9v/+lGk1VX3p+8PBU4QxtXLGCNm7bSCv0z4yYepwZ/ryzcw2VP7s4Q9u2NNFJujWqplab36tjck57zsW3jdbk/UyO4/POodgDzBrftrWPpk8barbziPOKjUNRGvxv5P5eE+v3v//9oa1bHug8PPI/56XF8hAAAAAAAKIKjWSfPvm9j3j+uvifznX93O2rtG3U87tjaGFHhxpRdZ/O3Efr00QL+Pvtc4nWb8g15Lhxt1p/zl8LiVaV+xDutg20vukkPWKbm+JcPCaiLau20knqZxbS9C1p3ejkxqv5fOirfTptWe1s3Pqgpn9PJ24j07Q5NJe20Dbzi7ZtpS3Tc/GqaeBD/xa/g7t9bh+l/bTKJfMQAAAAAAAiC41kazTSMcf00aoRo6T5mmjuAj0NunEaTW/qowz/cKaP+vrW03IzCrpqy1B7OlNWg5RHbOceeRi5kZqatpSIiWj6wvm6UT2NTpo+FIuKKTPUpB/6f01My9cPxTgUr/o5f0ZO/26kadOHGua6lTwy3tzINY8kL1/PeeLjXxPMQwAAAAAAiK6a7z755OD8Cy7QydLq6+v1Xni4EdLe3q5T7vr7+ymVSulUcPwqrObmZp2SIR1jV1cXzXh3Df3oh5tpz7vPovYPnkiv/2w5vX5iO33wxH765Y+eJzrrw/R+9U860nt+RstfP1H9fL6iMb6e9//1/5Jyv/L9NOL/4M91TH86fSyN+8NGep7Oog8PBTIcX+5Hj6SPK/C7XIyIMT8mep1+tvx1OrH9g3TkrzNxnkX0/JF/g3+ui4676MP0R/uGjvX+LUd+T9A8ZNLHmkmfk0mNUV03M2boVHA41jJsiJFJx2lDjNLXDEtiPiJGOdJxhhEjyhoZiFGGDdd2tcuauro6vVfAd4cayQMDA56/KuG+++7Te4X19fXpPRm/+93v9J4c6RjXr1+v97YOrr5v9dB/h/ZW3ze4mncG+wY3LF8+uOHIP+lI920YXH6f83vDisa4dfXgfblfrvRtWK7/LTe5mDYM5SP/3HL9jw3HlzOc5p8f+b1CRsSYFxOnzb/ltHX1UKz8ZX5U5UEuz/hYcxzm9zhj5P0jv8+Zb0XykEkfayZ9TiY1xuHrRgaOtQwbYmTScdoQo/Q1w5KYj4hRjnScYcSIskYGYpRhw7Vd7bLGrZ3r/MJ0a2tso20bNuSm+nauIjoyhdmDxtl0+cImWr9cTxUe+vL/PuGRC3blOBfeysV0vP5OadNofvtc6ls1HFM571Y+smBXnmknNdEWZ7xDedA2PTe9m6dbF3qV1LQ5/Cz38lw8q/uoqUl/QyQPAQAAAAAg6iI73ZoXRyomk8lQY+PRjaNy9fT0UEtLi07JkI4xnU5TW1ubTsnwHOO2NbQiM6fkO5krmo+8mNaGRrrc5zuZbTjWTDrOpMYofd3gWMuwIUYmHacNMVa1rPEIx1qGDTEy6TjDiBFljQzEKMOGa7vaZU02m9V77jCSnGD8eqbly/Woqf4qOJg7bX7JBrKEEa+U0l8/+mW//m4eHt312UAGAAAAAAAoBo3kBJs2v0MtkKZeaaS/qt3mNK9pcn7xAmAAAAAAAACVgEYyAAAAAAAAgIZGMgAAAAAAAICGRjIAAAAAAACAhkYyAAAAAAAAgBbZV0AtXrxYp9wNDAxQQ0ODTgW3a9cumjhxok7JkI6xu7ubWltbdUpGEvPRhhiZdJxJjVH6usGxlmFDjEw6ThtiRFkjAzHKkY4zjBhR1shAjDJsuLarXdakUsUXBsZ7kjW8T0yGDfloQ4wsie/hCyNGvLtSRhJjZNJx2hAjyhoZiFGOdJxhxIiyRgZilGHDtY33JAMAAAAAAABYAo1kAAAAAAAAAA2NZAAAAAAAAACtdnBwUO8CAAAAAAAAJFvt/n379C4AAAAAAABAstWOHTdO7wIAAAAAAAAkG55JDsGtZ5+uvpZ96mNqG6ZtazppxcaMTsnIbFyhXsOlvlZsJLffzv/umm06kUf9/4W+WSYvMfHPlJMXxf4WAAAAAABIFjSSKyDMhvK0+R10+WzZd6tlGtvUe6r5a2HTelqd3/DMbKR031yaM02n8zTOvpw65hf4ZplKxkTbaMP6JmoTzgsAAAAAAEiWmv/z3e8OLpg/XydLq6+v13vh4dHC9vZ2nXLX399PqVRKp4Lr7e2l5uZmnSps2VWX6r3SRjUcR4cH9uhUcUseflLvFdbV1UUzZszQKRkl8/H1n9Hy10+k9g+eqD8Y+n9++SPqSn2YHB8d4TUf/TgqRpeY+LMf9c+gD7+/9DmRH+PrP1tOr5/Y7vr3eCV9PjLpvExqjNLXDY61DBtiZNJx2hBjVcoan3CsZdgQI5OOM4wYUdbIQIwybLi2q13W1NXV6T13kW0k84hhMZlMhhob5UYNe3p6qKWlRacK8zMqPPq4Rjq0x9v039t++pLeK+ynK/+Dun73di4xfaEareWpwltP6qD50zK0ccVqorbptGXVeuob+pGmue3Do8yZjbRiee7zof+ZFnbMJx7rLZWPw79ff0D872ygxsv1/79xBS1fn/utHNPi94+jY37/U1pNC9S/nfv/FxKtWkVb9M8MjzJvozWd+nNqorntl5PbQHB+jEfHxJ+toMycof8/s4Y6003Ufvlsyv0f/G9spZOG/t5GZ6yOPDgqDxeYOPLSBfKQSZ+PzOs56VVSY0yn09TW1qZTweFYy7AhRiYdpw0xSl8zLIn5iBjlSMcZRowoa2QgRhk2XNvVLmuy2azec4fp1j5xY9br15KHvuv6udtXaduo53fHDDXMclOO3acz99H69FCbjr/fPpdo/Yah/2sIN+64rWf+X26zFn0IlxuWued/8xujtG0DrW86STcOc1Oci8dEQ412bqTyzyyk6VvSlJspbRqv+v9tH2rcr3Z/1jinSExq+vd0msbXxLQ5NHeo2b3N/KJtW2nL9Fy8ahr40L+1ePFiap/bR2k/zy/7zkMAAAAAALARGsnWaKRjjumjVQUWrcpporkL9Ahq4zSa3tRHGf7hTB/19a2n5bqR2blqy1B7OlPk90yj+boxeNLWoZ93NAa3be2juUceRm6kpqYtJWLiwWMz4jqNTpo+FIuKKTPUpB/6f01MPELbNxSv+jk3hWPKbNtCTW1m5LiRpk0fapjrVvLIeHMN7e9///tqRLlPBeKR7zwEAAAAAAAboZFsjUY6/v1zqGMB0WpupPkdxeRpzrqRqb6OTEcubtp8Hv3dOtS8HOIcsVUaafblQ7+r3Jia5lK7MybH9OViRsQ09F8ezT7J8T825lrJQ+1wZ7zcQE5TU3tuJLlj4dDP+FVmHgIAAAAAgD3QSLZN42y6XE1bNo1EDxqbqOnINOdSttE2xy/ObEwfma48csTWwRHT7/VHJTU2UlPfetrg6Y94o2BMPJ26b+6ckY3roXjamrbQhg2OeNXIdRP/s8q2rbknoUdqHMqqviOj0EN/MG0xjzD7ykMAAAAAALCVfCN52xrq7FxTuAGnvq+nrOKZTh+GGq8bNui8W0V0ZAqzB9yIXdhE65frfB/6Kvw+4UbKpId/bvmW6dSuHgDO0LYtI0dsOSbznLCJ6Xj9ndKm0fz2udS3avjfKnw+pArExI3dPpo+PLR9xLSTmmiLM15uOE/PTe/m6dZbyX0kedocfpZ7ee7fWj3UrG7S3/CVhwAAAAAAYCvB1a25wbSKtkyfTkNtEbWa8FGNOF78aHkftanv8crBy6mvLW8RpiHcAOHprMVIr7CGVeBK2LaGVmTmlHwnc0Xzkc+nDY10eYEFwwqx4VizJK6eGEaMWHFURhJjZNJx2hAjVreWgRjlSMcZRowoa2QgRhk2XNsJWt1aL6w0/ySdPhpP16UjU2MbaTa/rmgrRpOrhV99tHy5HjXVXwUHc6fNL9lAlsCvlHLGw18/+mW//m4eHt312UCWsL//AK39+gZ6/MpVastpp1LfBwAIy97dGXrsxqV0x4VnqS2nwV755cmB7EH9HZQ1EMzgzkHKfnw/7W5+W205DQDDKvpMcqavj5qcrXt+zhMrBIvzWkmaNr+D2tvbRyxGVYU25wjmNU3Orw+/X/YF614VqoC8cO8memPdDjr41iG1feLqNfT0F9bSIx/9gfritPP76+7drP4/AICwrbzzNup+7lnav3ev2q6866v6O2Cj/PJm9Y0/Q1kDIvZ2HKCDTx2mwf5Btd37eXSyVJKzrv7Du7+BDs0IEpxubfC0a37/7dHTrXnkcsQ7bs27Z/NWCebRwzlz5uiUu3379tG4ceN0KriBgQFqaGjQKRnSMXqdOtH1Xz+mnb/9tU4NO++az+m9YW4xHhz67NXnn6XM73uo8fgWOuWs86jO499hQz56jfE3z/VQ/xt7depoP9r6PfrwSR9V+4NjDlPNgVFq33B+f2b7+9TWD+m8lM5HZkOM0lOOkpqPSYyRScfpJ8ZS9+JnH/hnta0dewy9s/9ttW+88Ls/0Jnv+iO173bvLyaMaXrVzEevKh3j4f2H6Y30DsrueJvqJx9DJ7RNplFjR9Hm5b/SPzHMlCfSZY0N+cik4wwjRtvKmn2352Yl3Hd4GX1+1BK1P+7mOrX1KqnHWiJGZ12d7+FNk6fQjD9bqNISbLi2q13WnHrqqXrPXWQbyTyCWIz0vPgwDlS15u5zrxSPItyTfpmWtp2mP3U3+rhGOrSneO9V69nn0xV33K1TxdmQj15j5BFk7qH/m9Wfpm8u+A/96dFOnDeFZn5u2pEYedSZe/ULOWHeZNqxeRdNnjmRzrxuFo1NjdHfGUk6L6XzkdkQI54Tk5HEGJl0nH5i5FEGHg0uxct9/LafvqT3SsMzyTJKxViqrHDT/MHjaP71H1L7pf7/umNHV7ycYUm9/9hU1mTGvaU/OVrjvmP1XmlJPdYSMTrr6n93wVkF7+F+7t1ONlzbCXomubTGpibqGwr+iEwf9TU1jmggQzC3nn26uuiYaSBzI7eci4wvXLb95+vVNkl4Khs3kJlpIHNj+JPf+whd9uB8tc8VEN7Ou26m+r7BFRLn9/nnnTA9DgC82P5iWm3NvdgN39uXPPRdteWv6596Rt3zx44fr7YGlw38BdHBnaWMO2LzcVnjVt7MuuJk/ROlyxqUM+DG2UCuWzSKalI1amsUa0CDDLe6eiHm3u32ZXh9zBL8qcBIsiON1a0DKdXj4rxguHLEjdupH5hLi66/hcZPcI/DLUa30QuvjWwb8tEZIz9nzM98OUd2+TkvJ66ATJk5STWGC/XGe42RG9/MjE7z7/7Eo+7Ta6TzUjofmQ0xYiRZRhJjZNJx+onReU9nhWb1eIkx/3cVu6djJFlGqRhNeWBwQ/ecG2frlDsvMbrNguIGtxsb8pFJxxlGjDaUNa/O2E7NWyarfbcRY2cD2cuIclKPdZAY3erq75l3Nn30Sze41tXz791e8O89d8nfR/7axkiyU+NsWjC3T72rtrNzOW2Z3l71haLiwnkRceWHK1I3/fh5tS3UQC5k0Q23qgvMORLBv7+cCzXq3BbhMkxPPjdiueJSqIHsB0+1Zqbiwv9ufkUp6bDiJsDIe7q5F3OHZ7nMSLMR13t61LgtAMn3fOd934wE589KKhd3+DLnY0L5/yYkj5cGsPNzjCjLc95znXX1i5a6N5CZuXe7feUzs466f/qM2kIwITSS+VVQzueRR6adqxdX4pVCcZdf0XG7aPziC9XZyHb+zrhVqtymu5nGcRjyp8cZqLwMy19xc/cJIxckAoi7/Ht6uR2ebvLLCFOGOKfq8YJhIKPSHbGs2DRsLmucjXaOC+KNG7t+RojRUJZn7rOGRF2d8e/hr9YPnafSpaZugz+VHUkGUfkXnNRF58b5u53/ru1MBcH53HGYuBLElSFTKXI2xk1Pf9IrL4fWvqO2Mw+corbMFPL5XwBx4qxIhXlPd/vdztdGvfr8Wv0pBFXoueOwOmJZfjnDaee/52y0v/LkNv0pxJGznOTGb8PqsTpVHBrKcipRV3ebAfrAF69VWygfGsmWyr/oKsH578ShoewcvZWe7uaHGU0wkl554RFktnnMq2rrXFAkn7PBbL4AbFSte7rz3zJT9TK//53aQnD5U5+5nAmzgVwM/7tc1jHTaO/bvkdtIX6c5WGp0WM3/P+Y/w/la3kqdV8vNAM0DnX1akIj2TJ8wlejMmU4/z2bLz5nA5krDtLT3cqBygtR/xnD0zzNipvj7xtzpLB2fhViCnPzxe+CROEOUVbNezrLn6p3+OABtYXguMPTqFZHrFN+o/3QvsNqC/HiLPOKlZdeOP9/lKXu8leXrnZdnV3zrfvV1ua6erWFsLp1cLy6dXt7u0656+/vp1QqpVPB9fb2UnNzs07JCBrj2wP99H/vv5d+90oXvevUGbRjYC+99dov1feWPPyk2gZVbozLrrpU7+WYeKKYj+xA9iD94tFXadevdtP+MW/TqD25xvDFy85V26AkYkx/u4t2bMpNzWOHjztAi7/m/dosRfqaYdLHu+eCP1D9zgZKvVT+y+r7Tx/5POWvznqF3vd84RfG+/23bMhHxChHOs78GJ330nLv60FjVGXNv91Hv3t5Mx146y069uT302duuV1/V0bY+ShBOsbvf2VN5MoaLgs3Pfoa7fxVhg69fViVMxyjVHxMOh+ZDfefrq4umjFjhk4FV06M+eVffvkWJB+dv9v83qQe6/wYf3D312n7xqNfl+r1nh5mjKaMkWg3SMcpfc0wPzHW1dXpPXeRbSTjFVBHv4qpfuZsym7eKNojFTTG/J6yqL5Ogp/xNT36h5v206i+saJT3iRi5FVP+X2Wb27eqaZcS8cpfc0wyePNPdT9U/bQe359vP5EhnnFgN8e8EK971HPR4YY5UjH6YxRaqRBOsb/9fm/jFxZky9qxzr/dYJc3kS1rHF68DPfVTGypJQ1LIwYq/0KKC+jx0HzMf/fSOqxzo+RR5B5TQd+ZMXMyPFz/ww7RlPWBL2nS8eJV0BB2ba/mFZb85wYk6y0SHDGwxfhI9cvUY37qL3IPH/xFDO1OUqci604KyvOqeFxVYkpXFygu30VwjG5fbnBa6vAL6kGcpicMUJx+atYG5IN5DBccPuZei8ZZU1cOcumYuVaUM7fXag8TKKpZ+QaeqaBbBbPigpTxuCe7k/t4CAqc9JMZZqfrwxyE8m/6Ca9e6raOm1b00krNgo3SLetUaP5ua815LZ8FP+7a/Q3nBW8A/v20ZaByfTgv92tPxHiIabMxhUF88KsFG2ew5oyc5LaMuffEiX5lRfnezbjxHmNpF4sf5p1uZwNZudXIea6dn7xa6qcr63a+3k80wkjmWfWuCMx6g3k8675nN5Dpcort45Y5z08yvI7ZZ2viIpbeRNHzjK0WNklxflvONcRSTLnrM+g77QPG+7p3mEkuQKcNzA/8i+6U846+pmhafPl3ze9LdNE7fpd1h0LiVat2Egjmp6ZjZTum0tzhl+GrZadZ090/4YO/WIFZdb8l0pLKRnTULN5w/omanPJC2fvOFdcmk9tqvriKV45Ky9mhIKnZMdRJQp3P0xjOf+rGPPaqkPP5l5jBWCsvPM2dU/njkQjqiPIzBkbKlWl5S+I5eyItYGzrHGOiMe1vImLSjeQDee/VW4dN474vin1TntpuKf7h0ayT3wzKPXlxu3nnF/FmIuublxlRtmmzZ5NRy7vxiZq0rtGZtsWampz/MwQM+p9Wet71HbqB+aqrZRSMdG2rdQ3dw452u2Ks4HMlQCeyjzrkydXdRVrv/JXveZnluPCnPuVLNyD4tFu02A2X4Z5bdXo83BrhZHM4zPckchMx2KURbkRHzXOKdZRWMW6HM6GchzLmzhx1h3zy6FK4X/TzP7yUpeNK9PgtOF+iYayP6jJRZTbRbfv978cnnKs5wcPTxXO0MYVK2jjto20Qv/MiKnHmeHPC01XdpXpo76mRkeDOEPbtjTRSbo1ylOc+XfufvcpNOWji2jMUEN+9B9fTjv7N6nv5+LbRmvMvz1iXrPj886h2L3OGj8qJm4j99H0aUOf8LRsPcqcayC/RW8v3El/MlT4m1i///3vD23d8kDn4ZE48tLl5mFA+SMUZuq47eJUoE5445gR73M+uBKvVYGReFEXFlZHYlhMGYQKVWH5nbHVfp1gECfMm6y2to6IJ4Gz7KxG4zifM4akNZRtvC/mN5TNa6uitpZQFKCR7JPpsfPy5TbiVOjLyf2i20Y9vzuGFpopx/Pzx0xZH61PEy3g77cPVcDWb8g15Lhxt1p/bqYre3oId6gRu6qP5jrnVW/bQOubTtIjtrkpzkdi+h9fpU/etUx9h5m/Y8uqrXSS+pmFNH1LWjc6uYFsPh/6ap9OW1bnT6F24xKTmv49nbiNTNPm0FzaQk9+Sldajn+LDk4/W8XbOPty9W8tXryY2uf2Udpzq3xI2XkY3JnXzVIjE87FxpyVMtvln/82qplUQ/WPj43F3wLh4o7EqD+zVggaykfLbyDbzpQ3ho0j4nEWtQay4YwliSPKNowiOznj5Q5cfhRo5V1f1Z+AgUZyhI286BrpmGP6XJ7FdWqiuQv0tOTGaTS9qY8y/MM88tq3npabUdBVW4ba05niDVK1UBY3Yi8n52O+PGI73EBtpKamLUfFtOQaRwN2yPSF83WjehqdNH0oFhVTZqhJP/T/mpiWrx+KcShe9XMFFIjJTP8+tv8Arf36VnrtpSwdnHJQfe9PPjbOEW9u5JpHkpev5zwp+q+NVE4eCim06rXNTCEax0al+ZuSWFEAd6Zxyfd07kiM6jNrheSPPMDR4nJvNuWN+XueuHqN2kL1RbWBbCStoey8r9vIPPJj3qCz/edHv+c56dBIjpjCF10jHf/+OdSxgGg1N9L8jmJOX5gbATVfl498pngEboxuPWno50zjVnOO2CqNNPvyod/lElPzNU+o7YrhtceO1jR3eDEu9ZX37zkVikmPZvP0b/MKjnfeOIZo8lvU/MHDjni5gZympvbcSHLHwunq//bFTx6GyFRebB1NRuMRkiQujUo0lI9m7sFxaSDns72siQsuM6PeQDaS0lB+4IvX6j175b9Bx5ZHgCqp5on/838GFy4YauV4VF9fr/fCwyN13JApZmBggBoaGnQquF27dtHEiblnP6X4jdF50V3zrfv13rDu7m5qbW0d2vs9bfj+7+hdi+fQ0A797l2Lac7xA/TaMxuI5pxPJ6t/0pGm1+iZ/zv0839qvjfs6Bj5/3uVGs6fQ8frT4yB156hVxvOH/q39Acj5GJKfWgqHb9rE22gOfTrZV+iMbMuoTG9T9HHb8r9Pb8/Ei///HqiubyvvlXQwMCOof/vddeYhr5BzwycQucP/WHP3p6mQ/sO0z9t+AZ1tP8VvVNbQ83zL8r9/gHOg35qHcqzMUPH+sD252g9zaXFQ98cjikXX3fqT9Xvy/0/Ot+K5CGTPh9ZsXPyJze/oPdGviqqmErH6GZgwX69R9SweqzeGxZGjMPXjQyvMZq/1e3vzCd9/4nCsS7FhhhZ0DjNfd3c06MYY75i10z+3+OVdIzVyEdeD+LlJ7dSZnu/KmuMQvdgG451qRhtLWtKCSPGMMoa+vPhZ9u9lCWlVCofS5X1xdhwrB++9ct0MLPT932wkGpcM/uyA/T88gfpzddeOfLWhVJ/j3Sc0tcM8xNjKpXSe+4i20jmkbpiMpkMNTbKjeP19PRQS0uLTsnwG2PxqRvbaEXnKurTqekLO4gfS+aFsbaexPu8yBQ/NGumIueleSSWpwhrTXPb1aujjo6RR1xX0fBPsiaa287DxRuo8XLnSO7In+WY3j+uh475/U9pNS1Qv//rX+mkcb/9F/rSQ7m/aTjeoQQ/58vTrNV3hvBIrcuz1pnMZtqw/DmXmC6nxg0rKDMn9zeO6O0+fif1zxpHCzsuPxIv/9smC6ZPnz70+05S/17BmJqm0/ShvaYSecikz0dW6pz0+yxcNWLMZ3qWC/WEhxFjOp2mtrZcj6kErzH66fmXvv9E4ViXYkOMLEiczhFXc1+PWoxuSl0zxcsqd9IxViMf+b3BzlWsWbF7rw3H2kuMzrKG18bgxST52eVCi5NJx8ik8zKMGKXLmt+89/eUevM4tS81elzJfCx39Dvqx5rvf2Mmt9BXnvih/iS4al8zbmWVG+k4pa8Z5ifGbDar99yhkaxJX5TMT4xeKh1VPZmGGogrMnNKvpPZLR/LqVA5FYyRG7QbGuly3bA2BTkX4rwiJy844laIV/tYe+UlTvM329BI9lJghhFjtRrJrFSngCF9Tlb7WHthQ4wsSJxu976oxejGayOZeb2vS8dYjXx8/MpVajSZX4/Eqz9zWcNrRRRiw7H2GuOITughvLgXP7vsRjpGJp2XYcQoWdZw2dE/ZY9qJEs1kFml89FZ7jMvf0uUj7W598Wtkcy81NWl44x6IxnPJEeAs8JRSTyCunz58txCVPqr4KPO0+aXbCCX4uXvNK9pcn796Jf9+rt5Gmcf1UDmxiJXWmx+BYcfzmfGuALHIx37+w+oz6Kk3B7luMivKED8ealw2Mr5N/HfmZTXh+S/ji9Jr0eK8/v6oyZO5SXH7/wb4lIWSk2zjqJqtUmiCI3kCKl0ZWra/A5qb28fsRiVy2znwPz8XeY1Tc6vD7+/+DMD+T3cScUjHDwVcN29m/Un0ZO0BnISOwQgGZWM1g+dp/coMa8PMVOtucHII6lJej1SkjsIKoUbkKYRyWUHv0Y0LuLQUI5zxyeL698VBBrJVRb3i84wf5905dHZQPYy5TiOot7D7yz0k8j83XHpQQfv4nxf3/5iWm2T8voQZ1mTpNlKBt6fHC5n+RDXstLmhnJSRlfDqqvbCo3kKkrqSRj07+bpxDytmKcXG0ltILMo9/CjYTgS8iP+knJfz399yP69e9U27pJa1uD9yeFJQgPZsLmhzJI02oqG8lAjeXBwUO9CtSTlopP6O837kHl6MXP2bieR6eE3I8qvr3tTbaMk7gV/KUn/+5Mo7vf1RTfcSq1nn09jx4/Xn8SXc80LGIZHnYJLUgPZsK2hbBqLqKsnD0aSqyRpF51h/t4gPVQ7Nu9SWywgkmN6+J2rrEah8mIKPzQQR7Kx9xy8SdJ9ffyERrrijrvpph8/rz+J18iDmbGEhuDR0FkQHJcDSWwgG7Y0lON0TytH0v/+2gP7h1/4DZWR9JPOKDcfsIBIYVGpvKAheDR0FsRbku/rcewUMDOWjKTPWMpnyhp0IviX3zhOatkQ9Yay856e1AGtpKv5zhNPDF64sPB7/vJV6j3JvOpyMf39/ZRKFV/12I/e3l5qbm7WKRnOGN8e6Kf/e/+9tH3j8OImSx5+Uu9509XVRTNmzNApGdXKx2VXXaq2XvIgP8anl6zVe0MN5FmTaNaVJ9OY+jr9SWlhH2sp5cbpzJ+Ll52r9yoXY//p+/QeUeolf6tzhhGj9HUTNEaTP868kT4no3Q+FmJDjMxrnF7vadWM0atyrhnz9zO3PJCOMex8/PHfP0eH3j5Md/zsJrrpg3fQ6GNG0YX/60Pqe17ZcKyDxFjtsiaIMGL0ct34KR+TlI/OfNm3uj8SMRa7p9twPkrEmJ8H0nFWu11TV1e87RDZRjK/+qcY6RdaS7+8nDlj5PdI8msyDH6Wi6eq+VHtl2574ScfTS8dP9PGi8DwM248hS9ffoxBnw8L+1hLCRKnWx5VKkbTI1xO73gYMUpfN0FjdMsf6XMyauejGxtiZF7i9DPiUK0Y/Sj3mjH54JYH0jGGnY/5I6Q8ksyPtfhhw7EOGmM1y5ogwoix1HWTP4JcStLy0eRP7/QddErXVLUvwWuM/K73lXfeplbudy5E6HY/s+F8lIgx/54uHWe12zXZbFbvucMzyRWStNdl+ME3I6/v2QzaQE6Kak2FC9JATgqTN84KE8QDpqjlODsNbJfEdyL7cdmD89WWyxp+hpuf5Yaj+W0gJ5EzX6pRPnIDmeuipRrISWL+/jjd0/1AI7lC8l+XMfUDc9U2ycyqqF47Dird4IsLU3k5kD2oPwkHGn3+Ic/sV2z0NGnikgfOsiaJ70T2g5/dNvgZ7nX3btYpYHyPN/d5bgSigVxcNRvK+YNZpo4KOUlsKKORXCH5U60XXX+LTiVXuR0HGEX25oR5k/VervKy6bHXdCpcqASUhjyKh6T2rhcTp5EHlDWl4W0ThTkbebjne9eweqzeq2xDGYNZ7pLcAYxGcoXxycbPIrs9e5s05j2bRrGOA4wi+5dfedn52m61DYOzpxz8qXRvOcjDKHJ8mLIGDWRv8t82cfCtQ2qbdGggB+PMs0qVkVwnNTCY5W7Zpz6m95IBjeQKwGiDO/OeTeOuS4YbzIWg4uJdfuVl0skT1FYaGnnlQcXJbrivFxan0WQo7szrZqlntvnZbchBA1lGpRvKzjooBrNGSmpHMBrJFYTRBnel8uXpL+ReM4EGsj/5lZc3N8lPgxtYMPyedVQG/DN55sxHsAvu6/GBssY/flabn9nmZ7dNvpl8TILBnYOU/fh+2t38Nu27/SAayMI4D00+ct5WorGMe7o7ky9J6vxEIzlk6En3Jz+/MM26fM7KixFWfqIyEFwlCn+QYe5TqEwVZluFCmUNlGNvxwE6+NRhGuwf1J+MbNiBDGd+hlFWoq4ObtBIrhBUpopz5g+/QoJXY378ylX6E/TsBxVG/qFRJwOVKbugMhVvKGuCMfmXlE6HQ2vfUduZB05R25pUjdqCvLAbygx19eKWPPRdtU1KOVjznSeeGLxw4fBIUyn19fV6LzydnZ20ePFinXI3MDBADQ0NOhXcrl27aOLE3DOcUh688Ut0eO+A2r/mW/erbRDd3d3U2tqqUzKilI8PfPFatf3AvL+nP7ySUfvsnWMO0YKvfEinggvjWEvnI5OOc/XXnqPat3NTry+4/Uy1LZeZHrz7XX104gPHq30JYeSj9HUTRoyvX/N7mvC7JrXvXNmzXDacjzbEyDjOuqF67/OP/Se9+atuOrBvn/q83Hu6DfcfyWvG3Ncv+9rdojFK5uNPbn5BbZNY1oQRoylrgpYzTtJxSuXj2//zIB36Wa6hvL1tC71vzMl0zK11Kh2UDffIasTofDypZjzRqD+upXFfGk01x7l3UJSK0dyjmNf7ehzysRwc5xNf+ZJOBW/bVLtdk0ql9J67yDaSOzo6dMpdJpOhxka5h+p7enqopaVFp2T848Xn06E9GbGeqXQ6TW1tuSXqpUQtH03v1MkTv6ZWZeZFp2onDdIV91+sPpcQxrGWzkcmHSfH+MNrfqb2g46WmF7ct7ftFo9ROh+lr5uwjvUx03ILq0mMLNtyPkY9RsZx/viu20a8xo+Ve1+34f4jec2Ye/rSlc+Ixhg0H3nGEr/jl98CYFZkvuiBD0YqRjfSxzqsGKXKGkM6Tql85GeSd5/wttp/+Yub6IPXz6OaSTKjydLHmkU1H528xJg/kly3aBTVP+7ewVwqRnOP8nNPj0s++mXiLCfP3FS7XZPNZvWeO0y3hsgKe1XmJAsyFc4UTpgmLMvkJ6axR8/2F9Nqe0/6ZbUdO3682kJpphIVtVeHcAOZ3x9vGsi8yCGAX6aBzPfvMR8fJdZAhuLMtHYzzf3Qs7nRfKisuE+7RiM5JFK9LElj8uu1XV9RW664zLriZLUPwUmNIAMkydQzcj3dS9tOU9upH5irtmCv/PfIv7lZfvX/JEvas8lQWaPPzTVfNo95VW1Hn1decwZ19fI48+uOC8+ix25cSnt3Dz8mGRdoJENkcSHLqzOPqZd5vgdyJCovGEUOB0aTo2nRDbfqPaLWs8+nRdffolPghalQRWnUIf898lNmTlJbkBfXhjJmVVXP+M4xaoq1GVE+uPKw2kLltH7oPLXdv3evehxp5V1fVek4QSM5BKYiYFaBA3/4eWQW92kctkGFoLLQUI6Ouy45X225sXfFHXfT+Amyz44lSVTu6/weeYNnLM27bqZOgRSp55EB8vG0dn4GeULvMfoT/zCKHEz+Y0jbf75ebeMEjWSIFEzNqozLHpyvtpzf/LotXsSmGDTYKgedEBBHUes0fuLqNWprZizxe+UhPHEr29FpHB2YgVUdSXgMCY1kYeiZkoXR5HDwojUGL16z7t7NOnU0Z8GDCkFlodCvvqgtOBUHuK8nB0aTIYpQVw+OH0Pix4+MOD6GhEYyRIbpaeZCFTeucJWzaA0ayJWDvI4e3JOCi0oeOssaqJy4jCaj8zK6cGwqhx874sePDPNYUpygkSwIPVPhwEiOPK+L1pgCB422ysMUMogzLi+rsSJq3Kb92iCunREoF6PDz7FAXV1WnPOx5jtPPDF44cKFOllafX293gtPZ2cntbe365S7/v5+SqVSOhVcb28vNTc361R5ll11qdouefhJtZWOsauri2bMmKFTMqKSj08vWau2Fy87V20NztNRDcdRR2euMSdB4ljnk85HJh2nM8YD2YO06dHXaOevMnTo7dyqkPl533/6Pr1HlHppnN4bKcwYpUhfN5U81l6OgRvbzkcp0jEm9f4TZlnzg7u/Tts3Di/wMnXOPPrI0i/rlHfl5mOhsoZJ56MNx7qSMRbL+1Kk4yw3H4vdk20ua8oVpRjNsck/Lvkx5tfVyxHnfCymUJzl5mm12zV1dcXfnhPZRnJHR4dOuctkMtTYKLfCaE9PD7W0tOiUf249U9IxptNpamvLPSgvJSr5WGj6G+fr6OMa6dCejFhvVdBj7UY6H5l0nIViLJT3XkaRKxVjENLXTaWPdTmj+Tafj0FIx2juP//w9DP6k+CkY2TSeRlmWcPv1ORXhvCKqLzgy9jx4+mmHz+vf8q7cvLROYrsNropnY82HOtKxmjyv+7Y0Wo2E68w7nXBNOk4y83HYvdj28uackQtRrfj44zR1NVZkDpl3POxkGJxljNCX+12TTab1XvuMN0aqoZXVOaVlU3BaVZcdorzNI6oMJVFZwWynIYZhMscE6gMU+DjVX6yorAialyn/0bdCfMmq+3Btw6VXDASIEyoW4IXaCQLcPZMgXe8wjIXlEapAhP5XBlojEULOiogTqq1IqqzExCqo5wFI6MEncfRZ46NWz0GdchwmY6HOOVz7eDgoN6FoNAz5Y/XAhMjOeFzG01GRSA6ihX8IA+VqfCYFVFNeRn2iqhmxpLhNmMJKsPrgpEAYUJdHbzCSHJAqEyVDwVm9Fz041yFFQ1kAFSm4sDvjCUIDz+DfOK8KTpFNO+6mXov+jCKbA+3TmXU1SsrLvmNRrIQVKb8MxUXXsSDC85iBabJX9zowmMayBBNGE2GuArzvm77FN844UW6zrlx9pGZS09cvUZtASoFdfVwxS1/0UgOAA02GZ94dKEqOL2ucgnynA2vH14ot5IvhAMN5fCY+zoqU+GrRB5jxhIEhVFke6GshCDQSBaAypR/5tlXP6uMmnxG50R4TCUAi9xEEyppAP74mbEElYeyBsLgLCuXfepjaou6emXEqa6ORrJPe3dn6LEbl6KhBrGBXnI7oYdcHkaRK69SFSrMWIoWW17Dhfus/a7uelTvAfhT8/h3vjP44Qsv1MnS6uvr9V54Ojs7afHixTrlbmBggBoaGnQquF27dtHEiblpWcX8178uo99uHq5AvXvWGfRn116nUyNJx9jd3U2tra06JaMa+fiTm19Q2wtuP1NtS8mP8YEvXqu213zrfrX1y+ux9kM6H5l0nG4xDizYr/eIGlaPVVt+h+XaO3Krwf7RqY102qUnqVEYN5WIMSjp6yYKx9ocN3PM8tl6PgYVNEa3e4t0nNL5yKRjrHRZU8493Us+Bi1rgrLhWFczRnN8WKljJB2n1xhL3Wud4ljWlBLVGPdlB+j5x/6T5n7nr+itpiwdd/8YGlcf3evGhmPN/MTp5b5e7XZNKpXSe+4i20ju6OjQKXeZTIYaGxt1Krienh5qaWnRqcLuuPAs2r93L92TfpmWtp1GY8ePp5t+/Lz+7kjSMabTaWpra9MpGdXIR79TrfNjDDra4/VY+yGdj0w6TrcY3UaR+XUpztVgeYoij8C4qUSMQUlfN1E51sVmANh6PgYVJEbnSKbz3iIdp3Q+MukYK13WFMr7YrzkY9CyJigbjnW1Y/R6jKTj9BKjcxTZy0yruJY1xUQ1Rp7x2f3cs7Q0/TPqn7KHfnblXerVc1KSko/5/MTppa5e7XZNNpvVe+4w3dqnqWfkDiY3kNnUD8xVW/BG8vmjsKfnxV2hRhZWg7ULpgPKKrfzDcoXRp77bSBDdUnWDaThUST7bH8xrbbvpQlqe+H//praQuXZXFdHI9mnRTfcqveIWs8+nxZdf4tOgR9BKi7XPzW8+jL3FvJz4uBPsYYVVoO1AypuctDhBlAdUe3EQOej3fIHtKDy4tDhjEayT3ddMvwuWZ66MX6C7PSIOJPqKV555216j9R0mpV3fVWnwItSU8jOvG6WmmJtvL7uTb0HUYUKnQyMIlePyXuJDosoj0qCXdAZaSeuGxrP/cU31RblJPiFRnKZUJkqX9CeYzONhp8LZ9t/vl5twZ9ChT+v/srPIGOaYvShAgdQGO5hdrjswflqy50bvCbG/v4DKg0QFNfVL1p6g05BpUl2flYDGslgHTwXXj7Tk4rGVXyYY4le8vKYwhsdn9ERpEKFUWT7vHDvJr2Xe6/1uns361R1oJyML5ST4AcayT6gMlU+U3GR6Nnn58L5eXBeWZx1/3T4GWUorP+MfXrPO3O8UPEEgLBJlq0YRbYHFosESW51dXR4VI/No8loJENoeMoUT516/MpV+hMZ/Bw4Pw9e6NVbUBwKi/jBaHJ50PEZD2GVNVAZUVosEqPI8YdyEryK7HuS29vbdcpdf39/yZdA+9Hb20vNzc06dbRlV12q94iWPPyk3itOOsauri6aMWOGTskIMx/T3+6iHZtyPcRsyqxJNOez79cp74rFWM5xKXWsyyGdjyxonIOZQXr7toN0eMM7NJglyk4aoJaf/JH+rj9PL1mrthcvO1dtDem8DCMfpa+bKB5r1n+6Y6bA/zsQyRidopCP5v5R7N4hHad0PjLpGKtd1ng5Ls58rERZUw4bjnUUYjyQPUibHn2Ndv4qQ4fePqw+q1ZZY+6jqZfGqa0fSSlrnKIYY/79wxljkOPrlIR8dFNunIXq6tUua+rq6vSeu5qoNpI7Ojp0yp30i7dLvXS7nBEH6Rir/dJtL5z5yL36B986pKZQcQ9x3bGj6ROPLlTf86NUjH6PTbVfsO5V0DizH99PB5/KVTgYv1D/Pb8+Xqf8KTRdXjovw8hH6esmisfaONJD/vv9kY3RqFY+8ivjeIV85+qnxe4d0nFK5yOTjrHaZY2Xe7ozHytV1vhlw7GOWozVLGuCjiInqawxohaj273DGaPUTIG452MhQeJ0OzbVLmuy2azec4fp1hAavG+3ug6tfUdtZx44RW1rBPq38GyyHcp5/jwp8hvIvL4BRJOpVJWCsiZ+UNZAGPBoEviBRrIHfkcqIYfft2vwe3fnXTdTp2SZ4+K1QpUUo8/NXd6bx7yqtqPayr/csQiOHfAcXWl4hVz0+S1rK1XWQPiqVdag0WQ/1AGjzca6OhrJEJonrl6j90i9d5ffvwuVM75zOL/rFo2iY/6h+LMXXqGHP9rQU14cXiEXPyhrQAo6Gu1XqpMNZWR18KNOxmM3Lh2Rjio0kiF0GIWsjt0nvK33iOofH0s1jTU6VR4cR/ugEnA0foWcwVOtF11/i05BlJQz6oB7VDyY41ipDlncJwHCx486GfzI08q7vqpT0YVGcgmYam0HG6dxVEoYPeO8UA6/coUXy4HoSb0YbOXOOONXyBn8KjlnGgCSC6PI9vJbV8docuXZ+KgTGskQikIrVILdTpg3WW25cfzGuh30ypPbVBqiC5WAkdDxaZ9inZ8oa+INj/cAxIONjzqhkVwERiXthOM23DCS7hnfsTn3LlJ+1Qrr275HbSF6MCoCtkNHRnJVqtMjrLIS7IGO5MrgR534Eaex48erdPdPn1HbKEMj2QMU1P5Uq+cXxyl8+a9aaZp6nNpCNGFK2UjoQIsXjCInA0aToZhyZwehY6Sy+NEmfsTpph8/rz+JvprHv/OdwQ9feKFOllZfL/Cy1RI6Oztp8eLFOuVuYGCAGhoadCq4Xbt20cSJuQaA8cAXr1Xba751v9r6JR1jd3c3tba26pSMMPLxxbt/pfYvuP1MtQ3KT4xejpnbsQ5KOh9ZuXEOLNiv94gaVo/VezIx8jRrnmLd+0qfSs/smEaT39Ws9iWEkY/S102UjnUhzhjN+eA8F8oRZoxSSsVYzj1dOk4b7j9RK2vcjhvnYzXLGi9sONZRj/EnN7+gtmd86X3i9x/689wq6EHvjUbSyxopfmMsdV8vFmO55WMc89ELqTjNMfuTz/9dVcuaVCql99xFtpHc0dGhU+4ymQw1NsotuNLT00MtLS06VX7PlJN0jOl0mtracnP6pYSRj898/kW1L9W77ydG50hRoWOXf6wlSOcjKzfOQtPHJGM0Pfvn33eGaF6GkY/S102UjnUh+TFKTCkMO0YJpWIs574uHacN95+olTVux+3Bz3yXRvXlKrbVKGu8sOFYRz1GU9bUtByid534LvVObIlXfHGMdHzu/JEaUURZI8NPjF7qfKViLKd8jFs+eiUZJx+7+pmz6e/v+zf9iQw/MWazWb3nDtOtQZTp9a3W9LcgnRrgnTm+5niDHZI87bqcBjJEi7NCbGCqdbyZxSIP7TusFotcd+9mlQ6q/4x9aospt/GA+zqEAY1kgBiRGDGE+MH5ADZDBTi5zGKR/7ThG2r75uadagsgxZSPSe5Eria3zs+oQCPZBUYc/Nnff0C9M9dMi7rswflqWy3muEX5wosDM4KDRVXsgooA2CxKZQ2EzywW+YU5X1bbKTMnqW0QuAfGA+rqdrPhuKGRDIG9cO8mNQ3KkJoOBf6g4IdikjyajMqU/cyx+78/zC34wlDWxB8/g3zivCk6RTTvupl6LzjMsAEDo8ngBo3kPBh99C//3bmYDlVdKPihEFQEIA5Q1iQHL9J1zo2zdSqXDgL3vnhAXT1eono80UguACMO3uW/O1diOlRQ5vjhRhou8+oVTLm2DyqLYKvrZr+Ldr61hppOkXl1D0SfdFmTenGc3gObhVFXR9lYOedd8zm9F01oJENgPB3KaD61SXQ6FHhjbuoYRYZSknaOYKp1fJx85jl6j+jtQ7+hHXuf1CmA0tD4gWJQf4J8aCQ7oDJVnieuXqO2vJDTrE+eLPIOQ0kYTQ4XFvCyFyqNYJMt69ap7T3pl9X2N5s2qC0kS9CyBo0hu1Wiro6ysXKiPPOz5vHvfGfwwxdeqJOl1dfX673wdHZ2Unt7u0656+/vp1QqpVPB9fb20uN/+9dqf8nDMr3T0jF2dXXRjBkzdEqGRIxPL1mrthcvO1flY3Nzs0pLCRLjsqsuVVvnMY1ajIV4jbP/9Nz7HlnqpcJTyMKM0XkOBBFGjNLXTTWPtVdeYjTnTbFzxqkaMfqVH6O5/lm593XpOKXzkUnHGNWy5t+v+Tt66+BWtV83qZlOeO9U+sjS3KrHEpJ4rG2IkZk4g5Q1znteGDGirJFRKka3el0xfmP0UjbGIR/LIR2nuWb8HtNi/MRYV1en99zVRLWR3NHRoVPuMpkMNTY26lRwX7vsIjqwo0ftS/VOSceYTqepra1Np2QEjdHZo8sjij09PdTS0qI/kREkRrcex6jFWIjXOL1OtQ4zRnMemFHlcoURo/R1U81j7ZXXGP1M069WjH7kxygx4iAdp3Q+MukYo1rWHHpnr5pivffAKzRmcgstvf8RGj9B7u9O4rG2IUZm4iy3rMm/14URI8oaGaVi9Htf9xujl3IxDvlYDuk4zTUjOTvAT4zZbFbvucN06zxSDeSkCdo4Cos5nlGcxhEnmHINAGEbXTuerv+vx3SKRBvIYAeUNckm2Zgq5EhHCqZcV0xU6+poJANYzM9IIEC+OFcG0DEWX+j8BD9QTgJAOdBIHlKJnqk4kppiC/Fw2YPz1ZbPi7Vf30D7+w+oNNiBK5LZj++nwZ2D+pN4wH3dfihrwA1Gk5Olkp1iGE0GVjs4GK8KkR97d2fosRuX6lQuDfET11GHqN28X7h3k94jemPdDlp372adgiiru2SU3iM6+NRh2vt5dG4AQHT56SzBKHL8oOMznqJYVxcdSc5sXKEW3eKvFRvdG5zb1uS+n/taQQV+rCJW3nkbdT/3rE4Npe/6qt4DsEdUCv8dm3ep7d+s/rTavrl5p9pCtB1a+47azjxwitoeejaXthlmB8VHodHCa751v9rGrfMTAKIFo8nJVfvb3/5W7wa0bQ0t3zKd2js6qKNjITWtX+3SAM5Qpq+J5rbzz/DX5TS7iutubH8xrbbmnYvbf75ebaE0W6e/oUIVnskzJ6rtNxf8h9pOmTlJbSHaRp+b6yvdPOZVtR19Hp7CgejBVGtwMudDsSnXaNzERzU6PjH7AGpXLF+hd4PZtnULTW+bTbk27zSaM5doyza3YeImEl7lvGxTz8gt1b+07TS1nfqBoaChKH7OlJ83NWx57jRuI0pRnEJ25nWz6MR5U3SKaN51M/UeRNn4zjFUt2h4yvX4+8boPYDqsbWsgcpwng+l1sBAY8deUXksEh0ulRG1Kde148aN1btB5EaImxyN38bGJurryz+ZM0OfbaFVJaZkV8qiG27Ve0TvnnUGLbr+Fp2CQvi5U37e1LDxudNHrl+ibrp4Bl3W2NQYOufG2TpF9MTVa/QeRFnNpBqqf3zskYrk7hPeVltbYap1PHgpa6JWoYLKKbUGBho18VDtxyLRwZJsNd/6p38avObTuWcIvaivr9d7ThnauGI10QLH9Olta6hz60nUMX+a/iDfNlrTuYpoYQfl/wg3oOfMmaNT7vbt20fjxo3TqfI8+8A/q+1513yOBgYGqKGhQaWlSMToFMaLwf3G+Mv/s5XeOfgO/Wjr9+jDJ32Uautq6f1/fpL+LkU6H7v+68e087e/plHjG+jw3gGa9O6pNOPPFurvBiN9rFmhvNx3+0G9RzTu5jq9V1olY9y8/FdqO7P9fWrrVRgxSl83lczHcpUbozm33M6rqMRYDMe48YlH1D7f1yVIxymdj0w6RpvKGmc5HlQSj7UNMbL8OEudH8XuZSyMGFHWyHDG+NOH/50OHzxAL/zuD3Tmu/6IRtWNobOv+oz6nldBY3Q7l2zLRynScbpdM+aezsq5r/uJ8dRTT9V77mrmz58/+N3vflcnS5NrJA/9XxtX0GpaQJfnPZjMjWR+ZrmYTCZDjQHnbTtHHMKoFEjE6JROp6mtLTdFXIrfGHlak7N3n6fXOkcPo5yPd1x4Fu3fu5dWZg7SosY6Gjt+PN304+f1d4ORPtasUF6WO9W6kjGW+8x6GDFKXzeVzMdylRujc/Ql//yKSozFfO2yi+jAjh61LzWSLB1nlO+RRhTKmvxnTQuVNZIzB5J4rG2IkeXHWawuUuw+ZoQRI8oaGc4YedafcyS59ezz6Yo77tYpbyRizK932ZaPUqTjLHTNBLmv+4kxm83qPXe1vb29ejeIRmps6iPn7OpMpo+anPOvIRZMoVR37GhVKNn03Kl5Bv2y1veoLZ5BD4+XRVUgeuIytUyqgQzVV6qsMccaU66TxayBwecHe33dm2rrFJf7WZI5H4vkBjIei4RKqv3zP79M7wYz7aTptCW9kXLt5G20YT3R9GncSOZp1WuG/pvP+TOVJ9n7nESfeHSh6rXl51BtwTdbvskaNt5syx1FBgCwkY1lDYTPrIHB5wfE112X5OpsXFfnEeTxE6rTZjB1LucsBQhftTs/a09pzb0bM7Bp82lh03parhbl4meNXV7vlNlIK/SiXQV/BiLL9lFBvrk6p+lU62abNBhNtoutlQGMJMZHufcMnAOAjmQA+0VlAFP0hZjT5pv3HzsX45pG8zvmD/13SONsulx/f+TPgE3wvsrqsK3RgvMEqgGzg+LD6z0ExzzZ8HgPVAJGk5NHtJFsC0y1TrZrvnW/2to66oAecgAAgJEu+nFuai7KyHhAXT3ZzHGvZl09kY1k8M/00GJ0EPxAD7+dbOkx53ed8+qnphD1u+opRE/QssbWzk8AsMfAgv16D2zlpV6KRjKABfCcFcDRVt5524jXgzy//EG9B0mD0aZkM6PIP7zwGbUFCAPqYMmSuEYypm8Ai8I0DoAos2E0efuLabW9J/2y2r752itqCwAA9kJdHVhYdXWvsxtrVjz++OBFH/6wTpZWX1+v98LDq1+3t7frlLv+/n5KpVI65d2yqy5V2yUPP6m2Br8vurm5WadklBtjIV1dXTRjxgydkuElxqeXrFXbi5edq7bF2JCPJsZC50I5pGNkJs7+0/fpT4hSL43Te/6FGWMpXs+hMGKUvm6qmY9eScVozj0+76IY4w/u/jpt37hep4je/cFzadHnl+qUDOnjLZ2PTDpGW8sac09n5dzXk3isbYiRFYvTWUb+vw+tU1uUNe6kj3dYMT7+t3+t9qNaP9u+6A2a+NtJgepkTjYcayYdp5drxm9d3UuMpqy59F8uUNtCIttI5tWvi8lkMtTY6P8VPoV6p3p6eqilpUWnZJQbYyHpdJra2tp0SoaXGP08I2ZDPpoYJXsqpWNkJk6pqdZhxliK13MojBilr5tq5qNXUjE6z70oxsjPJJv3aPI70Od9+nM07WSh1xpq0sdbOh+ZdIw2lzVB7utJPNY2xMiKxem8T6GsKU76eIcV479cfpHaj2r97NUZ26l5y2Sx6dc2HGsmHaeXa8bvPd1LjOY+sfjh4p1piZpuLdkoSgpzIsWROQ/MeQHh4/Np7dc30P7+A/oTiLKoT7l2vuucF+0aV9+gU2CbOJc1EJ4oPw4C5Xngi9eqbZTr6g2rx6otzr/wSdfVvXakMSzcBZ54OZlAnrOH3GYnzJus94jeWLeD1t27WacAyoeOz/iRKmvQ+Zkspow05w86XQAgKDSSASB0OzbvUtu/Wf1ptX1z8061BXvglRdgA3SYAEAlRH2mFQSXmEYyRhy846mwPCXW9MRe9uB8tY0j6WkckuLUKJk8c6LafnPBf6jtlJmT1Baiz/ZZDBB9fqa/ARilZlrxeYXHe+yCujq4kaqr+y1rMJIMR3nh3k1qSqyBqbHVFYdGypnXzaIT503RKaJ5183UewDlQWUKSoli5yeED4/3QKVhNDme0EiGo2BqLEgbmxpD59w4W6dyabAHppWBTdBxEn/FRpFRh4FKwUwre5SzTkEiGskYcfAnaVNjpaZxSCo1jcxWWFQFAJww1Rqk4fEeO5k62DXful9tbYNO5HBJ1dX9lDUYSYaj8NRYg6fIYmosABhRqAig4xNKiWLnJ8go1YmMx3ugkjCaHF81Kx5/fPCiD39YJ0urr6/Xe+Hp7OykxYsX65S7gYEBamjw9k5M8861Yr1Tu3btookTc72PUvzE6EV3dze1trbqlIxCMf7k5hfU9oLbz1Rbr2zIR7cYvZwjxUjGaBbs2v2uPjrxgePVvgTpfGTlHO9i51YYMUpfN1HJx2LCinHMFbn7v3lHZBBBYix0vdp6/wlKOsZKlTXmXsDCKGv83teTeKxtiJE54zRlZKn7EMqao0kfb8kYzfW66NY7IxujkZ+PXs/JQmw41kw6Tr/XjDlH2Ltnnk5nXfEXNK5+ZDzOGA++dYhefnIr/eGVjEqfe9Mcqjt2tNpnqVRK77mLbCO5o6NDp9xlMhlqbGzUqcK8jjj09PRQS0uLTsnwGqNX6XSa2tradEqGW4xBpr/ZkI+FYgwyOiUZo+klf3vbbtG8lM5HVu7xLnSOhRGj9HUTpXwsJKwYj5k2Qe1L9JwHibHQtWrz/ScI6RjjUtb4vacn8VjbECMzcTpnsni5D6GsGUn6eEvF6LxWoxqjk1uMpWY4FGPDsWbScfq9Zh67cSl1P/esThG1nn0+XXHH3TqV44yRV7d3LkTMM0yc6+Nks1m95652cHBQ7wIAABRmCv9qTrk2lSmAUkzjGOdM/GCKK0DybH8xrbb3pF9W2+0/X6+2hQRdxA/PJMMIptcVqiNIT6SNcL5BucqZ8QHREWQUGZKpmp1zAKVEoRM57qaekRt1Xtp2mtpO/cBctS0k6CJ+sW4k+51qBcOSWHHBqEPloGIMkEz7+w+oKXAGpwH88NOJbMoadMhGF+rq4NWiG25VU6yNRdffovfcBV2IGCPJABGB3kewQTV7y9GBZb8X7t004hmxdfdu1nvhuP6pZ9SWzx1+nm3v7twCLmAXszASgA1QnwvH+AmNI55B5nQxY1Nj9B6pZ5GdaS/QSIYj0NMaDUl71grnHfiFEQd7BX1GzK+Vd96m90gt+LLyrq/qFNgoaeUj2AXnZ2WV6jgP+lhPbBvJmL5RviRPhcWU68rBlGv7obcc/Ar6jJhffhd6gfjBlOvoinNdHeVjeCp1vmAkGSACzM0UvZBgg2qcp+i4ioegz4j55XehF4gelI9gE5yn0SDRKYZGMihBpyQAlAM9/OAXZgfZ7Ymr16gtX/vlPCPml9+FXiDeUNYAJEuQdk3N8hUrBj9y0UU6WVp9fb3eC09nZye1t7frlLv+/n5KpVI6NdKyqy5V2yUPP6m2XvT29lJzc7NOySgWYzm6urpoxowZOiXDxPj0krUqffGyc9W2XDbko5cY/Z5DQWLsP32f2qZeGqe2hnReSucjCxrjgexBWv3ln6n9ybMm0rRFLTRxSpNKS5G+bqKYj/kqFWOhc9cLvzF6uSal85FJ56UNMcaxrPFy/iTxWEc9RnOP2be6P3CcznNPOh8Zyhp/Cl2TUYqxEC8x+ikfbTjWTDrOoNeM2zlkYvRS1tTV1ek9d5FtJHd0dOiUu0wmQ42N7qualfOMQ09PD7W0tOiUjGIxliOdTlNbW27qmBQTo9RIsg356CVGv+dQkBgLTSWTzkvpfGRBY+RXwThXum3+4HE0//oP6ZQM6esmivmYr1IxBpkG6SdG51TrYtekdD4y6by0IcY4ljVezqEkHuuox2juMW9v2x04Tue5J52PDGWNP4XqWVGKsRAvMfopH2041kw6zqDXjNs5xDH+8Jrc4AsrVtZks1m95w7TrUGs0gLgV/5Ktztf2622YBdTGQib104riKZqljU4d+wTpBPOzWUPzldbPg/T//pLvKMbQmXO20qVj3C0oGVN7BrJfkcAAdyY88c5+hAG6UqAbfJXup108gS1BTsk9bwFAPvwO7qNHZt2hv6ObigMdXWQEHZdHSPJAFA1vNItr3BrzLriZL0HAHHy9Bdyz4dFQdidnxBcGKNvlX5HNwBGkyvPlDUSM5Zqf/ub3+pdSCLJkwn8SfooMuOVbXmFW3P+rb5x+DkSsEPYlQCMOMRLNcsanEP2kSwfK/2ObgCwW+1vf/sbvWs/VKZAUtjTOAAAAGCksDrc8mcuhf2ObnCX1Lo6RpPDEWZdvXbPnj16FwAAAECWWbALwA/pWVZm5pIR9ju6AViSZwtWmvTikLXHHXec3rXT3t0ZeuzGpXTHhWfpT8ArrGpdHJ9bBp9jznRQmGp9NHMeokJtn7CmXGN2ULxEoazBDCFAWVMdpr5uSNapAJykVq6vueuu/zXY0fE5nSytUu9JXrx4sU65GxgYoIaGBvqvf11Gv908XIF696wz6M+uvU6nvNu1axdNnJh7XkWKiVFKd3c3tba26lRwP7n5BXrnmEO04Cty76W1IR+9xujn3PIb48CC/WrbsHqs2rqRzkvpfGTSMa7+2nNU+/ZouuD2M/UnwUlfNzbkYzVi9HJOO3mJ8YEvXqu213zrfrUtRTofmXRe2hBj3MuaQudVEo911GIsdB+RjhNljQw/MXqtU1UzRq/KibFYGWnDsWbScUpdM7945FX6+br/pfbfNfnTNOW9zTTrk6UXgk2lUnrPXc2/fPvbg1decYVOllapRnJHR4dOuTMvtOYR5P1799I96ZdpadtpNHb8eLrpx8/rn/IuCS/ddjI9qO/UH6RPPfxRtS/Bhnz0GqOfc8tPjF5HkaXzUjofmXSMD131ParN1ql9qVEnyeuG2ZCP1YjROYrsZYaElxj9jiRL5yOTzksbYgyjrLnogQ9GJh8LnVdJPNZRiHFw5yDt7ThAh9a+Q4P9g+qz/HuIdJymrJGc3YCypjivdapqxuhVOTEWq/vZcKyZdJxS18zjV66iX75+g9qf/p7/SWPfOYY+8ehClS4mm83qPXe1jzz8iN6109QzcpnLFxyb+oG5agvueArC2q9v0CmiBV//oN6DfDi3Ku/ifzpX74FtvDSM/cBUawgLplxHCzeQDz51+EgDuW7RKLUNkylrMOW6cpJepzJlpPRjSTC8cr0htXK99e9JXnTDrXqPqPXs82nR9bfoFLjhl+m/sW6HThFteuw1vQf5+Nzic8ro/ukzeg8AAAAk8Agym3ngFLU99GwuDfHS/dyzeg/1dZDFK9cbv979TbGV62tnzbJ7CfzxE4aH/a+44+4RaTha/sv0d762W23haHwu8TklOZLldao15Hr4edaD1AIMED70lAMzM5bMKN1lD85XWwA3o8/NjddsHvOq2o4+z/rxGyiC61RJra+jjAzHE1evoZMnfk2n5Faur01Zvro1+JP/Mv1JJ09QW4CoOGHeZL1HatbDuns36xQkBaZa2y1/xlIUr2FMuY6O8Z3DFVqeaj3+vsq8mgmrXANAMbWbN9tdAUVlyh/nlAR+qf6sK0qv/gYyMIrsTf5shzc371RbsAt6ypML1zD4UTOpRu8R1T8+dkQa4gGdUUdDGRkeqfOt9re/+Y3ehSTgKQmMe1D5pfpj6nMrCUNxGHWonPzZDlILMEBloBMIcA2DH+hATg4MaOE8l2ZmgnC7Rvr8qv38df7fKQwA/qDH0Due7cCzHAypBRjADpgdZL/8GUtRv4bR+ZlcmHIN1YS6YbTVHmfxM8ko2MA26EEsjRdc4FkOhtQCDFA55jxHBSCZnNcsX8tRvYbREVN9uEdAEqEuKCPszq2ax5avGLz4IxfpZGn19fV6LzydnZ3U3t6uU+76+/vpwc//hdpf8vCTahtEb28vNTc365QMjjGVSulUcF1dXTRjxgyd8u/pJWvV9uJlw++ilY7RhnwMEuOyqy5V2/xzrlSM/afvU9vUS+PU1gvpvJTORxZ2jG7nrF9Br5t8NuajBL8xljrnC8VY6BrzQjofmXRe2hBjksoa5/mWxGNd7Ri9lo3ScTpjNOcrQ1njj5cY/d7TqxGjXxIxmnO/ZqhZ9dY5e6n575uoplHuefxqX9tehFXWeG0f1tUVf+Q0so3kjo4OnXKXyWTonkW5d9hK9Ab39PRQS0uLTsngGBsb5Za4T6fT1NaWexl7OZzz9g3pGG3IxyAxFpoKWizGcp+3ks5L6XxkYcfods76FfS6yWdjPkrwG2Op894Z497dGVp5521H3qN5/VPPlPV6EOl8ZNJ5aUOMSSprnDPSlq58JnHHutoxei0fpePMjxFlTXm8xOj3EZpqxOiXRIzZj++ng08dVvv9U/bQxLlNauE6KdW+tr0Iq6zx2j7MZrN6zx1eRgcAAOL8TLl2NpDZyru+qvcAwoUp19VTbgcyQBwcWvuO2s48cIraHno2lwZvTAM5TNY2kpd96mNqiwLOG4leUhg+37w+D++lgQCFmfO1EjdDqJ7tL6bV9p70y2q7/efr1Rbsg7IGbIayRpbfUeQkGX1urgm2ecyrajv6PIxblsOtrPFbVy8ERwSgAtBTDklWqrNo6hm56VZL205T26kfmKu2AACVgE4dqLTxnWOobtEonRpK34dFSqMGjWQAAAiF186hRTfcqveIWs8+nxZdf4tOAYTPjDqYGWoQPky1hqSrmVQz4hlkToM3lZrxYWUjGdM3/MH0t3CUmsaBSoAMTLmOP+ciXVfccXdZi3ZB9aGsgThAWSMj6FTXpDB1RDye51+xskZiyjVGkgF8QucMgHeoAACAU1TvBejcCQfqTGArNJIBQoAGAYB3mB0E1SYx6gD+YJYVwEioOxa2v/8Arf36horO9LCukWwKsCUPfVdtoThMf6suVAJkYMp1PKACEF8oayBO+HzmCjlXzME/dDb5k3pxnN6DQl64dxO9sW6HThGdOG+K3issaOdnzWPLVwxe/JGLdLK0+vp6vReezs5OWrx4sU6N9MAXr1Xby752NzU0NKh9Cbt27aKJEyfqlIyBgQHRGLu7u6m1tVWnvPnJzS+o7QW3n6m2+aRjtCEfpWI05+I137r/qBgHFuxX24bV5b8YXjovpfORVTLGUudyIeVcN8XYno/lChpj/jXhjNF5LQUhnY9MOi9tiDGpZc2DN36JDu8dCHweGjgfj1Zu2SgdZ6EYf/HIq/SHVzI6RdR8ahPN+uTJOlUcypphQe7plYoxiDBipD/PrW4dpN7oVOlruxx+rplnb0/ToX2H6Z82fIO+MOfLNHrcKDrv5tybMZycMe7LDtBjN31J7b975ul01hV/QePqh+NPpVJ6z11kG8kdHR06NZLpDVi68hlqbJRb3KWnp4daWlp0SkYmkxGNMZ1OU1vb0SdEMaV696VjtCEfpWI05yL3VDljNKNlQUeRpfNSOh9ZJWMsd6SqnOumGNvzsVxBY8y/LkyMzusoKOl8ZNJ5aUOMfq8Z5wwP28uaexadr/ZxPpavWIzllo/ScRaK8fErV9HBtw7R36z+NH1zwX9Q3bGj6ROPLtTfLQ5lzbAg9/VKxRhEWDFK1R9Zpa/tcvi5ZnhmR/5I8jk3ztapYc4YH7txKXU/96zaZ/z2DF4c1Mhms3rPnVXTrcsdLk8qTH+DOLnswflqi2lwdjrSOMaU69hCWQO2mzwzN/LGDWQ2ZeYktQWA6jrzull6L9dAnnfdTJ0qbPuLabW9J/2y2m7/+Xq19crKhbskengBgjLnobPzBg2A8PDzKAb3Jq67d7NOAQBA1EmOkoWFK+LOZx29VMRhJMnZQQDG2FRuOjrjEWRnupCpZ+RGqZe2naa2Uz8wV229wurWACGIciXAVjs271JbngbH3ty8U23BXqhM2asaK41WEmauJRNXvJ1TOL1UxAGkYMZVYeXMjl10w61qirWx6Ppb9J43aCTHFKZaQ9xgGpz9UAGIj3JWGrUBOmzCYds1b+pOce0EAkiC8RMaRzyDzGk/rGkkY8QBosicj8s+9TErppLZDNPgAKIDMzugHCgf4w11dTnoTJZjzke/M4QwkgwAVsA0uHjpP2Of3gMbJWFmB6ZcA0CloSPpaNWaHYtGcgxhqnXlXd31qN6DsGEanN3yKwAYcbBTOSuN2gLnpCxbZ1mhrAFINisayZi+4Y1ZSMXAK3IqDz2AAJAEzpkcXlcaBYD4wswLOaYuiSnXcsqZcl3z2PIVgxd/5CKdLK2+vl7vhaezs5Pa29t1imjZVZeq7ZKHn1Rb1t/fT6lUSqeC6+3tpebmZp2SIR1jV1cXzZgxQ6eOlv52F+3YlHtOjE2ZNYnmfPb9OuUuifkYRow9F/yB6nc2UOqlcfqT4KTjlM5HVq0Yn16yVm0vXnau2hZT6rrxK0756Id0jDZcM8yG+490jF6uGXMNMi/XoW356Fbv8AvnY07/6blHK4Jc69Jxes1HlDXFSV8zrFrH2o9KxBj0uqnEtR2Un7LGyzXIisWYf47W1dWpbSGRbSR3dHTolPtIciaTocZGf6uUFdPT00MtLS06JUM6xnQ6TW1tuXd+uXn8ylV08K1DaiEVfk6s7tjR9IlHF+rvuktiPkrHyD19/VP20L+f+GHR2Q7icQrnI6tmjF4fKyh13fgVt3z0SjJGvqd/5vUfUerN40RnX0jnI4v6/YdJx+jlmvH7WI9t+bh3d4buuiT36pDWD52nXiXid2VUnI9D+0JTraXj9JOPKGsKc8YoNeuzmsfaq0rEGPTaCfvallDpsib/HM1ms2pbSOSnW0tddEmAV+QAgG0wnQyiaOWdt+k9ou7nnqWVd31VpwAgn6mrgxxMuZZn2pJez1cs3BUjcV5IJaryb14oKAC8eXDGlXoPbJOEhYy2v5hW23vSL6vt9p+vV1vwDpX75MGAFkjyO4osDY3kGHni6jVqyycTFlKprNSLcs9VgjfmppmECnucmI6kJQ99V23BXtWquFTC1DNyUwCXtp2mtlM/MFdtwT/JRyqqAWUNVBs6nKoj0o1kjMoBAMQXppNBVPEzyK1n555JZouuv0XvAQBUhu0dTFHmpY1pxUgypm9AFJmKvbmJ+X3WAQDANkkZTeNFuq64426dyqXBu/zy0WbO12nyazbxes2RTJ0HdXWQFNZUaz/nKaZbx0S15+0DVAOmwdkFHUjxkZSyBp2f8MK9m/Qe0RvrdtC6ezfrFED4MOOqetBIBigDblYA5XP25KICAABRtmPzLrXl12uyNzfvVFsAiLfINpIxfQNskD+VDKMOABBXmLEBXvSfsU9t4zDVmuH1moUt+9TH1BZ1dZDAjzLwIw2mrLnswflqK83r+Vpzzz3fHPzLv/yMTpZWX1+v98LT2dlJff/1lNq/5lv3q22+gYEBamho0Kngdu3aRRMn5m6EUqRj7O7uptbWVp0a9pObX1DbC24/U239SGI+SsQ4sGC/2jasHqu2zhgf+OK1alvo3PVKOi+l85FFJcZi10Ch66Zccc7HYoLGaK4LxteGM0ZzPTFzTZVDOh+ZdF7aECPKmpHyz12vkno+7mjfRcf21Qe6lvNJx+knHw++dYheeXIb9W3fQ4f2HVafoazJefDGL9HhvQOB6ztO1TzWXlUjxvx6ZylhXNvSeZl/zfzikVfpD69kdIqo+dQmmvXJk3XKG68x8n39b/7jcZ1yV/P5z183eOed39DJ0irVSH7z0X9R+4Va+5lMhhob5RbS6OnpoZaWFp2SIR1jOp2mtrbcaymcgjyPnMR8DBqj24IkzhilZkFI56V0PrKoxFjsGih03ZQrzvlYTNAY86+L/BglFvqRzkcmnZc2xIiy5mjl3NeTeD7yddw/ZQ+l3jxOdCRZPM4y8xFlzUj/ePH5dGhPJnB9xykqx7qYasTot4yUjpFJ52X+NfP4latUpxQ/2sAzN+qOHU2feHSh/q43XmPke/rf/+g5nXJX+9prr+rd6JG86AAqDVOuASAuTOMAwIu4TLWGo+3dnaHHblyKOk6VxHn9jko+2uCljVn7hz/8Qe+CTSo1bx9G8nJzuv6pZ/QeqYKECxQIl+nVR0XeXqZSHecKQByUM4oMEBcoa4hW3nkbdT/3rE7RiPeJQ3iS0PF05nWz9B7RifOm0LzrZupUdUR6dWs0LgrjVxLwqwgMvJKgsordrLgAMbggWXnXV3UKIJnKmaoK0WA6ZI2kviPWnLsYPSvMdHClXhynthBP219Mq+096ZfVdvvP16stQFBjU2P0HtE5N84eka6GWun56pLQuCgMrySILhQgAMFgNDk60CELAE5Tz8g9Q7q07TS1nfqBuWoL4Yv7jKtiz/xXQ+3Jp5yid6MHjYvC8EqCyjM3pVJTXlCAVId55IBvsjzyldQRL5slYTqZbdAhC14kqWMr6VOuF91wq94jmjZ7Hi26/hadAoiX2pNPjm4jGY2LwqI2bx+GcQHifEYHBUhl8IiXwSNfGPGKBky1ths6ZIdhynVp6OiKv/EThlcOvmjpDSPSAHFS29TUpHejhRsZaFwUFrV5+3Hnp5ecC4wr7rhbp0YWKBAejHjFQ9ynk9nGOdUaHbIAANUV1zIyalOtWWQX7uJGBhoXhUXxZEoCP73kGHWoLIx4AYSHyxp0yIKbJHZoJXnKNWYHQVLUfPzjnxj893//N50srb6+Xu+Fp7Ozk9rb23XKXX9/P6VSKZ0Krre3l5qbm3VKhnSMXV1dNGPGDLX/9JK1anvxsnPVtlxJzEevMQ5mBunt2w7S4Q3v0GA291nqJfdVOwvFuOyqS9V2ycNPqq0f0nkpnY8sSjEeyB6kTY++Rm9uyo0gL/jGB2lMfd2I60ZC3POxkHJiNOc/y78GisXYf/o+tS10vRUinY9MOi9tiBFlTWHFzul8STkf869X6RiZdF5KxJh/bSSlrHHWa5JyrPNVO0ZzzbFC5aR0jEw6L6td1tTV1ek9dzXnnHPO4A9+4L0nrFKN5I6ODp1yl8lkqLFRbqS5p6eHpFf6lo4xnU5TW1tuUSipkeQk5qPXGLMf308HnzqsU0MX06JRVP/4WJ0aqVCMQXpcpfNSOh9ZFGPMvzac142EpORjvnJiLHb+l4rRjE75mb0hnY9MOi9tiNFcM85RMpQ1w7ze15NyPuZfq9IxMum8lIgxqWWN8/xPyrHOF4UYS5WR0jEy6bzML2uCljPMT4zZrB4BK6D2cx2f17tgC8mTCQo7tPYdtZ15ILe43aFnc2k/TCXKFCoQPnNdOCv4AFA+lDVQSDmdWXGRxLImSMc/gG0i+0wyQLWNPjd3eWwe86rajj4PlwuAF3t3Z+ixG5fqVC5driQ+7wgAAFDMkZkbKCNDg1o/QAHjO4cXqOGp1uPvw4I1AF6svPM26n7uWZ0aSt/1Vb3nXRJHpqIEMzEKwwyhHFTOASCoKM+ORSPZMphqXTk1k2r0HqlnkZ3pcmDKdeVgynV1bX8xrbb3pF9W2+0/X6+2YB+UNVBKkju0klTWoA4DSVP5RvK2NWphLvW1Zpv+ECB6pJ61wrM7kDRTz8gtXrO07TS1nfqBuWrrF6aTAUCU7e8/oPeIfvNcz4h0XKFOEx0oI8NV2UZyZiOtWEW0sKODOjraaW7fKkI7GQAgXsxU67Hjx1Pr2efToutvUWmww+blv9J7UEjSp1xLdSLb7oV7N+k9ov439tK6ezfrFACUYsqaqM5YqmgjObNtC9HcOTRNpRppdtt02rIVrWSvon4yxQl65exnrhNU+Kvnph8/T1fccTeNnxD8lRG4JisPZQ1AcTs271Lbv1n9abV9c3PuPf0AlYYyUl5lG8l9fdTkfHdVYxM19WWo/HVPAcIl1UuOhV4AypP0kSoAiK7JMyeq7TcX/IfaTpk5SW3jxtRdMNU6elBGhqfm0ceWD15ysffe4vr6er3n37Y1nbT1pA6anxtKHmo1b6QVq4kWXD6bnOMM/LzynDlzdMrdvn37aNy4cToV3MDAADU0NOiUDOkYX1y9mUb3jaOZ7e/TnwSXxHz0EuO+2w+q7bib69S2FC8xPvvAP6vtedd8Tm1Lkc5L6XxkUY+RR5EPNe2jMxbM1J8El8R8ZF5j9Hqe+4nR6/UonY9MOi+jHqO5ZlDWlGbOdeZ2vsf1fCx1PUrHyKTzUirGw/sP0xvpXup/I6uum1nnnkajxo7S3w0mSvlY6L6epGPtFLUY3a5J6RiZZF6GUT9jfmI89dRT9Z67yDaSOzo6dMpdJpOhRueodEA9PT3U0tKiUzIkY+SVE/eftIc+8/+7Un8iI2n5yErFWM6zVl5i9NsTK52X0vnIbIjx3//HozR263FiU0eTmo9eY/R6nvuN0ct1KZ2PTDovox4jyhp/MRY73+N6Ppa6FqVjZNJ5GUaMcS5rCp3nST3WUYwx/7qUjpFJ5mUUyppsNqv33FV0unVjUxP1DQV/RKaP+poaRzSQAeLKFC6msAEAALAJnntMHr8d/ABxUdlG8rTpROs3UG6prgxtTG+h6SeZYWXIx68SWPv1DfT4lav0JxA2VAAAyocOIDuZsgbvFQev8BwkQDTZUI81ZY3kIz1hqB0cHNS7FdA4mxbM7aNV6j3Jy2nL9PbhqddwFH61wBvrdtDBtw6pdOqE8qe6gz+oAMSHuQmjAVA5YYw4mGsSHVnyTFljoKzxDjOEwEBZA9WEequ8yr4neUjj7MvV88b8dflsTLQuJv/VAtkdqBzGBSpUABAVKGvAi/xnHiH+UFcBKTbOjq14Ixm8y3+1QP1kFExhqkQFAM/0AASH0WRZKGsAoBjUXewSxTIyf3bsifOmqG2UoZEcYWdeN0vv5U6mE9qadQoA/DCrjWIaXHgqsbgLRrDCgbImGEy5BgNlDVRTlMvI/BlLb27eqbZRhkZyhI1NjdF7ROfcOFvs3XsAAAAGyhooBVOtASCI/BlLU2ZOUtsoq3nk0ccGF11ysU6WFuQ9yV7xe5Lb29t1yl1/fz+lUimdCq63t5eam2V7zyVifHrJWrW9eNm51NXVRTNmzFBpKUnJRye3GPtP36e2qZfKe0m63xiXXXWp2i55+Em1dSOdl9L5yGyI0Vw3zmspiKTmY6kYvZzTTkFiLHS9Sucjk87LKMZorg2Gsqa8GN3O/zidj37KSOkYmXRehhFj3MoaL/f0pB7rqMfI1+uud++kqStP0J/ICBLngexBWv3ln6n9KbMm0awrT6bXfv1qVcuauro6vecuso1kXtirGOmXg0fxpdtmuo6ZvpNOp6mtrU3tS0lCPuZzizFoL7nfGL1MTY3iy+rz2RCj87rJv6bKkdR8LBZjOVOtg8RY6HqVzkcmnZdRjBFlTU7QGPOvg7icj87nG72UkdIxMum8DCPGuJU1Xu7rST3WUY+Rr9ne6TvolK6p+hMZQeOMWlmTzWb1njtMt4bEwzQyADs5K+8AEC6UkQB2QRkZDBrJAFWAhV4qj18/YPBrCJxpsAsq63JMzz4AgFHO7CCIjiiWkRKzKyoNjeSIsvFkAogyfv2Awa8hWHfvZp2CINDREw8oa+TE6ZrATKvymOsJnVAA9kIjGRINFYDksPH1Azap9IiDuWYxnQyiAqNuABAVDavHqi3KyPKhkQxQZRiJqwwbXz8AECaMcgFAPky1Bmm2zo5FIzmCMNW6Mqrdu4YCqLLOvG4WnThvCtUdO1qlX1/3ptoCJB3KGnCDmVbBYMo1gN3QSIbEQwUgGcamxtA5N86mTzy6UH8CQVV7xGHCG8eoLVfmsx/fT4N7BlUaoFrMtYAZQgBQbXgsKRg0kgEAwEp7O4ZXKD/41GHad88hnYJSMLoFxaBSnUzo3AFpNs+OrXnk0ccGF11ysU6WVl9fr/fC09nZSYsXL9YpdwMDA9TQ0KBTwe3atYsmTsw9syilnBh/cvMLanvB7WeqrVN3dze1trbqlIy45mMxHOOYK3LnsVnYIKggMT7wxWvV9ppv3a+2hnReSucjsyHGQtdNsWutmKTmo1uMhc5dLyRizF66nwb3En3m0Kfo30c/RHtO6qMTOo/X35UhnZfSx5qVEyPKmqNJxWiui0W33hnZGI1C+TiwYL/allNGSsfIbLhHul03B986RGvv2KD2/+jURjrt0pOOPPJTSjXy0e89PanH2qYYzbXMgtZ5y4kzymVNKpXSe+4i20ju6OjQKXeZTIYaGxt1Krienh5qaWnRKRnlxFisxyWdTlNbW5tOyYhrPhbDMR4zbYLal5pqHSTGQlNWpfNSOh+ZDTEWum7K7d1Maj7mxxh0qrVEjDzFmkeQjb6/+AOd9C/v0SkZ0nkpfaxZOTGirDmaZIx8fYyZ3EJfeeKH+hMZlcrHIM8jS8fIbLhHul03/E5+fuWgweti8GM/XlQjH/3e15N6rG2LUWp9gXLijHJZk81m9Z47TLeGxHH2qgGAvcZ3jqG6RaN0imjcUm8jNElnKi0AbqQq1IBXD0KylTsYERVoJEeI7SeTbaJSAcBCL9VhrjM0GOxVM6mG6h8fe+Razn58+BllKA1lDUC4bHr1YNDZQRBdpozEWgP+oJEcAfv7D6gpOQanAQCiCh06AN7gWkk28+pBY951M/UeAEQdGskR8MK9m0Y8s7Lu3s16D6RhGhmAnCiNOKCnvDjTGYuZE5Vh62gcykhZ5tWDBqcBkiAOs2PRSI4APLMCmHJdHZhyDUmR3xnrHN0CgHBFvazBVOv4q1RHcpxmx6KRHAE2PbNiM4wwASQDrvWjoTMWSsF1AwBBxWl2LBrJEcDPrBjcu49nVsIl9W5kgCSK8ogDru3C0BlbeeZds7bNEMJUa4B4C7NDLE4dsmgkR8ATV69RW56Ow8+u4JmVZMOU68rClGtIAnTGAlRXVMsa1DmSoxIdYHHqkK155NHHBhddcrFOllZfX6/3wtPZ2Unt7e065a6/v59SqZROBdfb20vNzc06JcNrjE8vWau2Fy87V20L6erqohkzZuiUjDjlYzH9p+9T29RL4yIb49sD/fRvHX+h9qfOnkuzLm2nE987VaUlSB9rJp2XYcTo5brxeg2ypOajiXHZVZeq9JKHn1TbcoUZo/N6D0o6zmref1DWFBdGjI//7V+r/aDXixFWPkb5mmHSxzuMGG0ra7jO8X/vv5e2b1yv0n/Z+Z90TIO/fy+px9rmGINc617iPJA9SKu//DO1P2XWJJp15ck0pr5OpfNVu6ypq3OPy4hsI7mjo0On3GUyGWpsbNSp4Hp6eqilpUWnZHiN0esKcOl0mtra2nRKRpzysRgztYR70aIa42M3LqXu557VKaLp8z9Cn7rlazoVnPSxZtJ5GUaMXq4br9cgS2o+coz/cvlFal9iqnWY+ei83oOSjrNa9x/n6BXKGndhxSj5iEJYMUb5mmHSxzuMGG0ra/LrHK1nn09X3HG3TnmT1GNte4zlXu9e4vRzjle7rMlms3rPHaZbV5mfkwnKE+azF5K2v5hW23vSL6vtm6+9orYQPnP9ORsSYD9brv1KQlkDUD1RKmvy6xzbf54bUQaAHDSSITEq8SxGEFPPyPWmLW07TW2nnHyq2gKAP1G/1iE59u7O6L3cyJ0zHRWSo8hgj/w6x9QPzFVbAMhBIxkgIhbdcKua7mSc1X613gOovge+eK3a4j2a9sEMiepZeedteo/U1NaVd31VpwCqi+scBtc9Fl1/i05B3JkOMenZVnGbHYtGchVhqnX4bOohHz+hccTzQOPqG/QeVAKmXMdLWJUAm6GsqbyoT2kdWLBf70GlXPbgfLXlsmbt1zfQ/v4DKl1pXOcwuO7hTAMAGskAkWNG6szIHVSGs6JSzYoLAMSHLVNaMdW6cl64d5PeI3pj3Q5ad+9mnaqsKL/zHioHHcmFoZEMADAkKhWXKOHnJ/k5Stvfo5nkSgBmRlRX/mM03T99Ru9BUu3YvEtt/2b1p9X2zc071RagkqQ7xuI4OxaN5CrBVOvw2TTVGqoPFZej8fOU+a8IsQmu/WEoa6rDPEYTxdE6lJHVMXnmRLX95oL/UNspMyepLQBECxrJABFkKlS2j+DZBBWXo+EVIQAAss68bhadOG+KThHNu26m3qscTLUGZjrIMOXaXc0jjz42uOiSi3WytPr6er0Xns7OTlq8eLFOuRsYGKCGBrmFjXbt2kUTJ+YqyVIKxfiTm1/Qe0QX3H6m3iutu7ubWltbdUqGzflYjFmMpGH1WLV1ikqMpTx865fpYGYnXfOt+/UnwYQRo3RehhGj1+vm4FuH6JUnt1HvK30qfe5Nc6ju2NFq3ylJ+fhf/7qMfrs5V4mqa5xEx594Iv3ZtdepdFCVzMdi94NSpOOs5P0HZY0/Ycdo1pkIck+XjJGvi93v6qMTHzhefyJDOh9ZVO+RTn6vG3N9Fro2w8xHiXORJfVYxylGP+VjoThLncuFVLusSaVSes9dZBvJHR0dOuUuk8lQY6PcSnw9PT3U0tKiUzIKxVjuVOt0Ok1tbblFQKTYnI/FFJtGFpUYS/naZRfRgR09Yj29YcQonZdhxFjOdVPsGk1SPvIzyXddkptiPX3+R+hjX/w7sRVQK5mPQaaVSsdZyfsPyhp/KhFj0BE8qRjNNfH2tt2Rz0cW1Xukk01ljdRIclKPdZxi9FM+ForT1rImm83qPXeYbg0QcZhyDdXibBDzCLKtrwjBlDIAgBzUKcApSPnIbwHht4EYcXsrCBrJFWZ6WyA8QUaNokRqmjWUD9cr2Krcnn2IP3QWAcPzyBAUvxWE3wZixO2tIGgkV0h+b4t5mTwARA8aFjlxXNwFDQSoJnMtRWE0z/aO5DgwZQ06ZCEK/JaPcX8rCBrJFRL33paoiGsFGNOjAIJJSoMg7tPfAKB8ZsEuAKdyy8e4vxWkdnBwUO9CmPAO1sqKS4UY06GqDz38YBN0yEIxcXkcCYJB3QIkmLKG3wTCrzWrxuvMwoSR5ArBO1gB7JL0KddxnGptGgZxnnKNDtnoi9KUa6g+TLmGKAhSPn7i0YV0zo2zaWxqjP4kHtBIrhB+ebwRx96WKEAPOQAkHTpkAQAAgqv99r/8s96FMD1x9Rq9R7HsbYHwYNSh+tDDHz9xHU2O+/Q3KB86kpMtjrODoHqS8AaFmnPOOWfwBz/wXgGsr6/Xe+Hp7Oyk9vZ2nXLX399PqVRKp4Lr7e2l5uZmnZLhjPHpJWvV9uJl56ptObq6umjGjBk6JcO2fCyk//R9eo8o9dI4veeuWjH65Yxz2VWXqu2Sh59U23KEHaOEMGIMet3kX7tJyEe3882GY+01RnO/KHWvYNJxSucjc8aIsqZ8lY6xnPt6kBjdznsb8pFJxxlGjFEva/h8q5vUTH99z7/oT4JL6rGOc4zFykdnnHEoa+rq6vSeu5ov33jj4FduukknS6tUI7mjo0On3GUyGWpsbNSp4Hp6eqilpUWnZDhjlOhxSafT1NbWplMybMvHQvz0kFcrRr+ccUr0AIcdo4QwYgx63eRfu0nIR7fzzYZj7TVGP/cL6Til85E5Y0RZU75Kx1jOfb3cGJ0zJ5znvQ35yKTjDCPGqJc1fL6NmdxCX3nih/qT4JJ6rOMcY7Hy0RlnHMqabDar99zV7tqVW+QDwmNOJIByYcp19fF1zK/WOZA9qD8BW5nC39lwiAOJSgvEm5eOIYgfU3e45lv3qy1AKcXKx6SUNbXr163TuxA2VFzC4WdUCMCvE+ZN1nu55z03PfaaTsVTOaNbAFA+dH4CM3VEDKxANaEuPax29uzZehcAAPLlv1Jn52u71RbsFtfRZLBHpTqi0JFsh/39B/QeYdYSRFaSOnFqmycPj5KAPEx/C1eSKriYcl0d+a/UmXTyBLUFiBKUNQB2e+HeTXpPdtYSZgeBX146kZNQ1uA9yRAL6CGHsPA7zvlVOsasK07We/GDDhiA6gjr2sNMCXtg1hJAtKCRDABQBL/TnN9tboypL/7KgDhIyogDplxDtVXqWkNHcvRh1hJE3dNfyL32KSnQSA6ROZkw/S0cSX7OCiN+lWeu46QVEhB9KGsA7Jc/a+nNTTv1Xvkw1RrKVawTOSllDRrJABZBQQdhSWrHC0aTIa6S3JFsIzNrCZ1dANFQ8+Ubbxz8yk036WRp9fX1ei88nZ2dtHjxYp1yNzAwQA0NDToVHL8veuLE3FQXKau/9hzVvj2aLrj9TP1JMN3d3dTa2qpTMmzIx0IxDizYr7YNq8eqrVeVjDGIQnE+8MVr1dbv+w4rGWO5wohR8rr5yc0v0DvHHKIFX/mQ/kRGFPKx1Hllw7EuN8Zi9xLpOKXzkaGskVHNGL3e1/3E6KWMtCEfmXScYcQYxbIm/7yyIR8RowyJGM09hK2b+6I6J+NU1qRSKb3nLrKN5I6ODp1yl8lkqLGxUaeC6+npoZaWFp0Kjlcafaf+IH3q4Y/qT4JLp9PU1tamUzKino/MLcYgPeSVijGoQnE6R/z8jCxXMsZyhRGj9HXz0FXfo9psnWhvfxTysdS0PBuOdbkxOkeR8+8p0nFK5yPKGjnVjNHrtFg/MXopJ23IRyYdZxgxSl435roOUta41RVsyEfEKEMqRnMf+eGFz8SurMlms3rPHaZbA1gGU65BWlKnWhuYjgpxg6nWdpPshEWdAaA8aCSDdVD4A4QDlSk77O8/QGu/vuHIu5HBfubaS3qHFQBEi6lrX/Tj8+nifzpX7ScFGsmC8isuC77+QbUFgPgwhQQaKPFiKgLOqddR9cK9m+iNdTt0imjKrEl6D8COcxhKC1LWoLMFIDg0kgXlV1w2Pfaa3gOQhVEHgOTasXmX2v7N6k+r7c7XdqstgBNmWwFmB4Gk/jP26b1kQCNZECou4cNUawBZpqMFlalhUR+Jmzwzt2LpNxf8h9pOOnmC2oLd0PkJAFHDMxl40a4kQiNZECouAMlgFlXBlOt4saXz7czrZuk9ohPnTaFZV5ysU5B06EiOF5Q1ANWDRrIgVFzCheesRsKoA0AyjU2N0XtE59w4m8bU1+kUACQdZgdBmJJUF4/se5Lb29t1yl1/f3/Jl0D70dvbS83NzTpVnqeXrNV7RBcvO1c8xq6uLpoxY4ZOyYhiPuYzMfafnnsWIvXSOLUtV5gxSvIS57KrLlXbJQ8/qbbFVCtGP8KIUfq6MTE6r/fJsybSH195StmNlWrlo5/zx4ZjLRWj814jHadEjObc43KGSceY9LJGSrkxFrsuS8Xot5y0IR+ZdJxhxBh2WWOu91KKnT825CNilCERY/6513PBH6h+Z0PgerhR7bKmrq54nS2yjeSOjg6dcif94m2Jl26b6TBmeox0jNV+6bYX0i9YZyZGqWlkYcYoyUucfnqMqxWjH2HEKH3dmBh5JXvnQn08e4RH9cpRrXz0c/7YcKylYnTea6TjlIgRZY38+ciiEmOx67JYjOWUkTbkI5OOM4wYwypr+M0pT1y9Rn12wrzJataiczZJvmLnjw35iBhlBImRzznnYsSXPThfnXO/ee/vKfXmcWKPc1S7rMlms3rPHaZbgxWkGshxYwpBUyhC5eQv1Pfm5p1qC/Yz95kkTSsDgGjixorBjZZ1927WqaP56fgEKCT/bT3mnEu9mBtBTkrZiEayECyqAJAs+Qv1TZlp17tqUZmyU/4oMsRPOZ2f6NCJL3TIQqXhnMtBI1kYKi7ykvZeNrADT3njKdbGvOtm6j2IE9x/wCaYbRU/tnfIgn28nHNJ6JhDIxmsgcLf3fVP5d5fx6MOj924lPbuzqg0hIufz3E+g1zsGTGwD+43ABAFXjtkMTsIpOSvt+I855JUNqKRLADT36CaVt55m94j6n7uWVp511d1CirBXPc2PXKBypSdUNYkj5cp11izI97yO2TNIl4Gd4xzB7mBjnKQwmUNn3tJHQRAIxkiDYV/adtfTKvtPemX1Xb7z9erLQAEY+47eN4TKs1LB9bgzkHKfny/TuXSEF+FOse4o5w7yA10lEPYklI2opEMYLmpZ+SWz1/adpraTv3AXLUFgPjA4pCQb2/HATr41GGdGkp//oDegyRBRzlIQlkzDI3kgDD9LTwYvfFm0Q23UuvZ5+vUUPr6W/QeVIpNU64x1bo8UbkfoaxJnkJTrg+tfUdtZx44RW0PPZtLQ3y5lTXoKIcweC1rdje/rWa0xHEmS82Xb7xx8Cs33aSTpdXX1+u98HR2dtLixYt1yt3AwAA1NDToVHC7du2iiRNzq7n58ZObX1DbC24/U22dpGPs7u6m1tZWnZIRlXx0M7BATyP7PwciG6MhnY/Mb5wPfPFatb3mW/erbb4oxFhKGDFKXzeFYix2LyilkvlY6jwpxIZjHda1TX+eex6rYfVYtQ2i3BhR1owU1rGOWoz516szxrf/50E69LPhhvHos2rpmFvrdMobG/KRSccZRozVKmv2ZQfosZu+pPbfPesMOqv9ahpX7/632ZCPiFFGuTF6LWsk7j/VLmtSqZTec1dz8SWXDD726KM6WVqlGskdHR065S6TyVBjY6NOBdfT00MtLS065V2xkWTpGNPpNLW15XoMpUQlH90cGbn5/f7IxmhI5yMrJ85io4RRibGYMGKUvm4KxRhkVkkl87HckWQbjnVY1zYdn2scS6yNUE6MzlEjlDU5YR3rqMWYf706YzRlZE2qhkafV0vj7xtDNZNq1Gde2ZCPTDrOMGKsVlnj555uQz4iRhnlxFiqHuOMk0eQB/sH1UyWzWNeVfehCb3HqO95Ve2yJpvN6j13tf179uhd8CtIpRiKM4U/FuwCW5j7gLNBEzWFpm1CcdVapGR//wFa+/UNOkV02YPz9R4kzR0XnqVWMH57oF9/MowrpvWPj/XdQAY72VDWQPyNPjf3xC43kBl31MVN7Wf/+nN6FwAAkgDPI9vhhXs3jXhf5bp7N+s9SIrWD52ntvv37lUrGD/zb50qjY5kAKim8Z1jqG7RKJ0aSt8Xv9dEYeGuMqEHLzyVHq2JE9P4wYhhdeH+ED/VGE3esXmX2v7N6k+r7Zubd6otJEf+ysVvvLxJbQFYuY/PAOTzOzuWZ67wDBZj9wlv6734QCPZJ0x/qxz0kINtovzoBTpO7DN5Zm7RlW8u+A+1nTJzktpCcuSvXHzCabMwigx4zA8iI873ITSSfcL0NwCwGUYc7HHmdbP0HtGJ86bQvOtm6hQkRf4r/s7/y+KLmgIA+BV09ls1ZlpVAhrJPmH6W7jQQx4cplxXFxZVia9KVwSeuHqN2vI5dc6Ns2lsKn7PfEFx4yc00hV33K1TRAfPyZ0DKCPhtV1fUduTJ35NbQGCwgyFkdBI9gnT3wDAJnt3Z0Z0mHAaAAAAQEocR5NrX3/9t3oXvMD0NwCwyco7b9N7OSvv+qreg3JUqiKAmQjgxDOElqZ/pvYxigwAQZk1llDWFFbzx3/8x4PPPfecTpZWX1+v98LT2dlJ7e3tOuWuv7+fUqmUTgXX29tLzc3NOlXY00vWqu3Fy85V22KkY+zq6qIZM2bolIxq5aOb/tP3qW3qpXFqa0QpxkKkY2RB41x21aVqu+ThJ9U2ijHmCyNG6evGa4x+7hVh5uO3P/tJOvDWW/Rg11a6esZJNObYY+mz335Efc8PG451pa7tQvcqL7zGiLKmuEod6yDEr5mh8y47aYBafvJH+pPgbMhHJp6XIcRYybLGWb5HpayRghhllIox/e0u2rEp9wgpmzJrEs357Pt1yp2XOP2Uj9Uua+rq6vSeu5qvf+Mbg0uuu04nS6tUI7mjo/jiFJlMhhobG3UquJ6eHmppadGpwvwskS4dYzqdpra23EqXUqqVj24KPY8cpRgLkY6RBY0z/9UQUYwxXxgxSl83XmP0c68IMx/zn03nRYCczzh6ZcOxrtS17RxF9juq5zVGlDXFVepYByEZoznnll3wETq0JyO2AJ8N+cik4wwjxkqWNc7yPSpljRTEKKNUjI9fuYoOvnVIrbHEj5DWHTuaPvHoQv1dd17iLFSXd1Ptsiabzeo9d3gm2QdMSQiPn4sKwCZRuW+MHT9eNZAXXX+L/gTKFfZ9yk+lFwAAwK+w1lgy5aOzM9lWtXv27NG74BUqLmADrHJdXc53qPNzP/z8TzXd9OPn1Qgyr5YLAPZAJzI45c8SM3VSDOSAH1hjqTSMJAMAhIDfqW7wu9Wr8U71/MoUyIlTbznYY8lD31VbdH4CQBDOVwpKv2IwLuVjbT9Gkj3B9LfwoJc8fKhQVR7eqQ7lQFkDTigfwalUWc73jyjMXILoQ1lTWi2vLCYls3GFWnSLv1ZsdH8X57Y1ue/nvlZQgR8DAAEYQawevFM9OTCaDGHAeQWF5JftJ8ybrPeqN3MJwCkOo8lyzyRvW0PLt0yn9o4O6uhYSE3rV7s0gDOU6Wuiue38M/x1Oc3G43GJhkoAxBU/78PP+RiVft4HU63DJz26h2cKwU3+eWauacwQAgMzl8APjCJ7UztjhkzFbdvWLTS9bTbl2rzTaM5coi3b3IaJm0h4lfPQ4WQKH6aShW/Zpz6m96AS+Pkefs7H3DeeuHqN2gKUgrIG0IEM+Yp1imDmEkSR7aPJtR++6CK9G0RuhLjJ0fhtbGyivr78RnJm6LMttKrElGwAkIORxORBh0jlxGFKGUQXOpAhn1uZXu2ZSwBxVPPwI48OLl50iU6WVl9fr/ecMrRxxWqiBY7p09vWUOfWk6hj/jT9Qb5ttKZzFdHCDsr/EW5Az5kzR6fc7du3j8aNG6dTwQ0MDFBDQ4NODdu8/Fd6j2hm+/v0njfSMUq/vJxVKh/d7Lv9oNqOu7lObQupZoxeScfIJON89oF/ptqxx9A5V/6F/kSGdF6GkY/S1005MZa6j0jn4/979D/pnf1v03nXfE5/EpwNx7pa17bXexkrFKM5R/yWM0w6L+NW1ngVlRjN+cTyzylnjHxfZ0GucxvykUnHGUaMYZc1Xo53qfuIDfmIGGUUirEaZU2hMrLaZc2pp56q99yV10jObKQVy9dTn/pk+lA7dw5lfDeS+desoNW0gC7PezCZG8n8zHIxmUyGGgXnbRc6UEGmWkvHmE6nqa2tTadkVCof3ZiRl1I95dWM0SvpGJlknDxNa/RxjXRoT0Z0ZFk6L8PIR+nrptwYi91LpPPxHy8+P5HHuprXttf7WaEYUdb4U81j7VW5MRY7l5wxSqw7YEM+Muk4w4gxzLLGOdW61PGuZFmT1GNtc4zVKGucM62c97VqlzXZbFbvuSvvPcmNs+lytfAWf82nadRIjU195Jxdncn0UZNz/rVFeOl8XkL/8StX6U9AGqYmVpZkYwmiDYv5ANirnLIR13xyoCyHIEwDudJsfWykvEayi2knTact6Y2Uaydvow3riaZP40YyT6teM/TffM6fiZYX7t2kltA/+NYhlXY+5wGybL1wAPwyvbaVKqRQmaoOP40c0yFrzonLHpyvtgBeykZc41BMtRpEEH3ljCJLsWmQTKyRTNPm08Km9bRcLcrFzxq7vN6Jp2nrRbsK/kwEYCl9iDOMOgDIK6fDz3TIGni3abJhhhW48TutvpoNIIBCbBwUk2skD5k230zBdi7GNY3mqynZQ0ZM0z56wa6owFL64TIVAYwiV9aSh76r96DawurhN5UpHGs7oEMW3JRTNqLzEwCKMfWOKHSi2NIhKNpIjgteSt/gqdZYSh8AJKCHP95M48ZrBQAdsmCUW2nElGtwU+nHewC8sG1wDI1kF2NTY/Qe0Tk3zh6RhmAwnay6TIUKow4A1YcOWciHGVbg5HeqNYBTlBcitqE9gEayiyhNSYgrVAQgqcLq4UdlKlq8VACeuHqN2vI5gQ7Z5JKqLKLzE9xgNDm5orgQsU31fzSSAQAAhKADEMpV7rmDjjFwg4EeiPq6F/tuP6j3oqnm4UceHVy86BKdLK2+vl7vhYdXv25vb9cpd/39/ZRKpXQquN7eXmpubqanl6zVnxBdvOxcvVce6Ri7urpoxowZOiUjrHx003/6PrVNvTRObb2qZIzlko6RScfpjHHZVZeq7ZKHn1TbcoUZoxTp60Yixvz7TNB8NMeT8TG17XyUEpVru9i9zsSIsiaYqBzrYrzEaM4V5qVsLBRjufd0G/KRSccZRozS101nx6fp8MCeQOW0uc+Ye4wN+YgYZXCMv/leL+3YlGsosymzJtGcz75fp/yTjJPvfb866xWafe8Z+hMZfmKsq6vTe+4i20jm1a+LyWQy1Ngo9/6onp4eamlpEZ1qLR1jOp2mtrY2nZIRVj66MVPK/PaWVzLGcknHyKTjdMYoNTU3zBilSF83UjE67zVB8zH/eNp2PkqJ0rVd6H5nYkRZE0yUjnUhXmL0Wy4Wi7Gc+7oN+cik4wwjRunr5h8vPp8O7ckEKqf5mVTzWMcJ8ybTez/eTO+Z/m6VlpDUY21LjBPrJx05/mbdiyCP9UjGyfe+roUv0YxVp4vOwPITYzab1XvuMN0aKkLqmSsAAIA4QLkIYeNnUg1+NvWVJ7fpFCRBlBcilmwYhwWNZAfJnn1wZ8NFkQSmZxoLvVSPuc8EXVRFalYAhMOtIYSyBpxQLkI+qft6/jOpfdv3qC0kgy1lTVQ7DNFIhtAM7hyk7Mf30+7mt/UnEBV7d2f0HtFjNy4dkQaA4NDwgWLCqBSi8xPy5b+LvWnqcWoLEAXjbi7+THC1oZGs/eTmF/QeSNnbcYAOPnWYBvsHVbpu0Si1hepbeedteo+o+7lnaeVdX9UpqAbcf5IDxxqc0JkCBndWc6f1HReepT8Jjt/F7nztz6mXTtN7EHemrLFlxlIUR5PRSM6D6W9yDq19R21nHjhFbQ89m0tD9W1/Ma2296RfVtvtP1+vtlBZQe83mGodbaYB5Fb4o6xJrqhOLYTq4s5r7rTev3evSk+bPU9tg+BnUPlZVHO/WXvHBrUFiIoodxSikQyhGX1u7vTaPOZVtR19Hk63qJh6Rm4FzqVtp6nt1A/MVVsACAevMrv268MVVE5DsoVROcSUa3vld16/8fLwolsAfgRd66TSinUoVxNaLUOwiEo4xncOr6LHU63H3xedVfWSbtENt1Lr2efrFFH3T5/Re1Bp5r7jt1BDJdgOpvB/q/mQWl3WWHfvZr0HSYJRZCgkv/P6hNNmqa002xpQUD60a4JJdCMZPfvh2n1CbsEuriTWPz6WaibVqDRU3/gJjXTFHXdjmm4EOO87fD/yex/CMbTLP234htq+uXmn2kIyVWKKITrS7MKd1wZ3Yp//lx06JQMNJoiyKI4m1zz8yKODixddopOl1dfX673wdHZ20uLFi3XK3cDAADU0NOhUeX7xyKv0h1dyq/q+kzpIU941mWZ98mSVliARo1N3dze1trbqlAzpGHft2kUTJ06kgQX79SdEDavH6r3yhBWjJOkYmXSchWJ84IvXqu0137pfbf2oVIxBSF830jHyfWjH73qptj+3ymPzqU2e7kPFjpvN52MQUb22nffD/75gvTrWXo+zF9J5aVNZIynsGCXKRa8xer2v25CPzIb7j8R14zxuYcS4+q6fqvvPBbefqT8JJqnHOsoxmgW7zvjS+yJ/bedfM+YeGaTd4CfGVCql99xFtpHc0VG8By2TyVBjY6NOlefxK1fRwbcOqffH/e/2f6Fx+8bTJx5dqL8bnESMTul0mtractNxpEjH2NPTQy0tLUd6giR6y8OKUZJ0jEw6zmIxlrsAVCVjLJf0dSMdI9+H9o3bS3+7/K/Vazrqjh1d8j5U6njZfj6WK8rXtrkn/ugza+iEE0+gedfNVIvqSJDOS5vKGklhxyhRLnqJkVdJvuuS3OM0rR86T41Q8uwhNzbkI7Ph/hP0usm/r4eVj898/kW1LzGynNRjHeUYzXT68+87I/LXtts1E/Q+6SfGbDar99wlerp1/vvjpsycpLYQjGQDGSDucB9KlvNublOrzUo1kMEOplysBLziDyBZzOOjeN5cVqIbyWYRFR654alv3LMPwTink4F98Axb5fF7LPn+w/ch9vq6N9UW4oMrLj+8MLc4Hu6RyVaJzmO84s8+lSx7y10sEqLrhXs3jVgY0vlubNuYe2QlOxYLwerWQ3hqIz8bhp59ORhFtgsWf6oevu/w/cfrox7lTo0HgOqodGUPr/izVyXu60EXi4To2bF5l9ry46MMC0PKSGwj2fSgYbU/OZhmDSADPfzx4VbWRKGHHCqvUmWjecXf2PHjVRqv+AMnHnU0ePQRr6OzX9we24rKaDJGkkEEKn32Mz3YmHJdPaU67XBs7IYOxOSpRuexecXfTT9+Xn8CUVbp2UEYdYwffmzL4KnWeHxURiIbyRilCU/Q1z0BQE6x+xSmWtsBZQ1UGzo/IR8Wi4yfJ65eo7bc0R6XhSGjMJqc6JFkTLWWUY2ecggHKlTVh/tS/DiPqelIxOyb+DOLtKFshEKqUdbyqCOPNmKxSIDiMN0aAkFFD6AyKj0lD8pjXsXB778GiBJ0fkZXJe/rPMrIo41eF4uEaIvzjKVqjybXPPzIo4OLF12ik6XV19frvfB0dnZSe3u7Trnr7++nVCqlU949vWSt2l687Fy1NXp7e6m5uVmnZJQbYyFdXV00Y8YMnZIRNMb+0/epbeqlcWprQz7aECOTjtNrjMuuulRtlzz8pNoWU60Y/ZC+bip1rPPvVX6OS5zORz+icG2nv91FOzblnvljU2ZNojmffb9ODceYf+8MQjovo1jW5IvCsS6Gj++ud++kqStP0J/IKDfGQvePqOejYcP9p5zrpth9vVL5WKhe7EVSj3WUYox7u8ZvWeknxrq6Or3nLrKN5I6ODp1yl8lkqLGxUae8c1tplPX09FBLS4tOySg3xkLS6TS1teVe7SAlSIzOnh3T22NDPtoQI5OO00+MXkctqxmjV9LXTSWONY9GmmeMTpg3WU2Pu+Mjude4eBlxiNv56FUUrm0eQT741iG1KA4/88dTGp0jNiZGycdUpPMyamWNmygc62L4+PZO30GndE3Vn8goN8ZC9/So56Nhw/3H73VTqpytVD4Wqhd7kdRjHZUYnaPIcW7X+Ckv/cSYzWb1nrtETbcOciOAwvC8FYCs/Fd0+GkgQ3X5XRSnWtPIIDzmmEZpIUtz78CUa8hn6sRxnrYbd0lp11S6vMQzyVAWP706YB9UqKor/xUdYA+vr+LAvRMgubzO1gKA6pWXiWkko4dMDkY+AMKVPxoJ9ojjqzjAOxs6kNH5CYWgrmyPpM6OrWQbJHEjyZhqLQcjIcmAClXlOV/R8dqur6jPMOIQPxPeOEZtudDPfnw/De4cVGmAMOAeEg1RLFNRN4aoq0abI9aNZPMqDvSMycE06+RAhap6Dr2zl37X/xBt6fuq/gQ9/Dbwe4z2dhzQe0QHnzpMez8/nAb72FQ+ovOz+qJaxqKsib6kjiIblRpNjnUjmRe/4UVvDB6ZgfJVcooDQJKtvPM26n7uWdq/d6/+BGziteJyaO07ajvzwClqe+jZXBogLOj8hEIwmgxRV+kOyFg3kvMXv3lz8061hWAwipwcpkKFUYfK2v5iWm3vSb+strU10VklF9yVM/oy+txcEbx5zKtqO/q8xD0BFRuYZQVemLIUnRVQrqSPIhuVGLiL7HuSFy9erFPuBgYGqKGhQafc/eKRV+kPr2R0iqj51Caa9cmTdWqkXbt20cSJucVypHiJ0Y/u7m5qbW3VKRleYxxYsF9tS73SwoZ8tCFGJh1nuTE+8MVr1faab92vtk5RibEY6eumEsf6v/51Gf1283Al6t2zzqDBX89W+xfcfqbaFhPn87GYal7bP7n5BbUtdXycMQ7uGaR99xyiwy+9Q4N60kA5rw2SzstqljVeVfNYu3ErI6MWo5O5ry+69c7Ixuhkw/3Hy3VTrDzNV6189HovY0k91tWMsZyyRop0XpZb1hRrk/iJMZVK6T13kW0kd3R06JQ7Ly+L5meSzUqj5lUchVYajdNLt/3wEqOzt6ZUL7kN+WhDjCwqL6t3jiLn935HJcZipK+bShzrvbszdNcl56v91rPPp0XX30Lf+/TPVNpL73Gcz8diqnlte+3dLxSjn/tsPum8rFZZ40c1j3W+QqPIUYoxn7mv//WKH0Y2Ricb7j+lrptiZambauWjn5HKpB7rasXonLFUblkThHRellvWFCsv/cSYzWb1nrtYz+3CqzhkYRpZMmFaWOWNnzB8g7/ijrtV2hSI5UzrhXBJTH9z3l8rMY0MgJmRTaicqJepKGuiL0hZEweVao/UDg7ilRNQWKEecgAID55bSyY0lO1jaxmJewuAXdBp4S7MsjK2I8kSPftJh0oaGKZC5ZwuBpV32YPz1Zbvb/x6O36kBKoj/xWD5tgEhQ5JqDTc18NnW8cnRpOjC+2anEqUlVhKE0pCpQ2gcopVpvi1dga/3m7dvZt1Ciot/xWDksfC3HPRURltto4iGxhNBog20xn7+JWr9CfgJqyyMpaNZIwiB2d74Q/hwahD9eC1dtER9rFAQxkgHmwvMzGaXD2mM/bgW4dUmhchhmFht1EwkgxHQaUM3GDUIXylpuRNnpl7ncM3F/yH2k6ZOUltofIqeSxwT46euHQkm1cRofNTHr+l4LEbl+oU0fVPPaP37OB8hASP91QHOsa9C6OcjF0jGaPIcjCKDIXcceFZqvDflx3Qn0AlnHndrBE9ya+ve1PvQaWZqdZ1x44+8opBac57MBrKAHZZeedt1P3cszo1lL7rq3rPDni8p/rQMV5amG0VjCTDCKiIQTGtHzpPbffv3asK/+eXP6jSEFypUWTGr7Hj19mhEzA6PvHowlBfMYjOyuiJyyhyPowmy9r+Ylpt70m/rLbbf75ebW2BUczqc657EVZnbByYe7F0G6bmoYcfGfzo4kU6WVp9fb3eC09nZye1t7frlLv+/n5KpVI6lfP0krVqe/Gyc9XWj97eXmpubtYpGW4xBtHV1UUzZszQKRn5Mfafvk9tUy+NU1u/bMhHG2Jk0nFKxPjtz36SDrz1Fj3YtZWunnESHdtyIn3mrm/p7wYXRj5KXzdhHevH//av1f6Sh59U21LM/Y7l3/OScj7mq9S1XY2ypti9WTovK1HWBFWpY+3GazlZzRi9MjEuu+pSlfZ6/ylGOkYmnZdhxJh/3fzg7q/T9o3DDeOpc+bRR5Z+WadKq3Y+pr/dRTs25RrKBsqanErFiHaNd+a+TP/vgOcY6+rq9J676DaSv/QXRXtpM5kMNTY2qmckeEoI93iZB9vLGWXp6emhlpYWnZJhYpSSTqepra1Np2Q4Y5ToHbchH22IkUnHKREjT7F2Th+bPv8j9KlbvqZTwYWRj9LXTRgxfu2yi+jAjh7fz30XerwkKedjvkpd20Ee6wkSY6F7tHRehl3WSKjWfdxPOVmtGP0wMXqZyeKVdIxMOi/DiDH/ujF5Onb8eJr6gbm06PpbaPwE7/9mtfOR69c8xZpHkAvVr5N6rCsRo3PBNLRrvOH7c/+UPfSeXx+vPykum83qPXfWT7fOX/kNyiM9RQHiadENt1Lr2efrFNFZ7VfrPagGU3Bi9dHKicK6F7hfgzTTOMaUa3k3/fh5uuKOu301kKPAPN7Dj5QYKGsqr5plTdJFupHspSKQ/8wEL6IC5Qsyigzxx4U8F/amQvXYTV9SWyif5AgOhCMq76p03p/RUK48k+coJ6GUuN3X0VCrLHRGlMfcm6XKx8iPJJf6Q7HyW3Ao+AHshdHk8EXpXZVoKENYMJoMXqCsqRx0TlRXZBvJXhts/EoUAyu/+dd/hn7QHcAnVKiCM3ln3lUK0RS1VV7RoVl5SehM5vf6Grz+hDMN3sV1dhAabJWBTohgUi/mFlSU6ESuramp0bvRVewPfeLqNWrLF2+Yr+GIO1S6AOx12YPz1ZYLV54WfCB7UKVBRhRnLJl7NkaTQQq/19fgBRpte68vVA4acuFDp0T1RXq6NRpu4UpCzziEy4yAYjTZP8nRBp4ObPC04E2PvaZTICHqM5YwIyhcSSkrbX+vbxTEdRTZQMMtXOh8kCHViRz5Z5KL/aHmZMJF6x9GHwDiI3868M7XdqstyIjqjCVnow339HAkKV+nnpF7FcvSttPUdv/evWoL4OScuZT+11+qhQ1BFto10RD5RnIhT38h94JtCMbM3QcoF55N9k86r/KnA086eYLaQnBRL2vQUK6MuI8iM/OKP36vL/j37AP/rLZxHUU2nDOXdmzaqd6lDMFh4E+WxGhyzcOPPDq4eNElOllafX293gtPZ2cnLV68WKdyBhbsV9uG1WPVdvXXnqPat0fTBbefqdJB7dq1iyZOzFU0pQwMDFBDQ4NOBdfd3U2tra06VT5nXkrHaEM+2hAjk44zzBgf+OK1+pNgi1CFEaPUdWNIxGjyy+RV0GPNqy6/8uQ26tu+hw7tO0zvHHOIFnzlQ/q7Mmw6HyXZUtbQn+dGt00ZGYT0NcOkj3dY+eiM0ZSVrJx8rUSMQRWLMf8+5ZUN17Z0jJxXx0w7md7e9prYQoxRzcdnb0+rcuafNnyDrjv772jM4Fg67+bcLAQJUT/WLIwY1935S7WPdk0wzhjz2475UqmU3nMX2UZyR0eHTuU4ewJ+eOEz9E79QarN1on1uPT09FBLS4tOychkMtTYKPfy+HQ6TW1twW5EznzkXhbpGG3IRxtiZNJxhh2jxLNYYcQocd04BY3ROYps8kryWHNvtPT9kdl2PkoIIy+lY2QmL839Peiop/Q1w6SPd5j5aATNz0rEGFSxGMu9p9twbUvHyHlVP3M2/f19/6Y/CS6q+ciLQ/LaF4zvj+95/4nqMRQpUT/WTDrGh676XuTLbCadl5Uoa4rdx7PZrN5zZ810a7c/DlMSyhe0EgVQiPRU4rgKa0oe7ovybMtTZ2colAd5OHyPwj29uKTlDy9kyAsY1h07WqVfX/em2gLEjTWNZOfCABf9+Hy9B35IjTIAuAmr0Rcnla5MmWecwDsua3ikxOTdgq9/UG1t4Ly3o5EnA+VlDhrKpZ13zef0XrzxwoU8cvyJRxfqT1DWlCO/rDELooEscw8vp0y0ppHMCwXwNGtjyqzqv6fSJqgwQSWhQlVc2B0KF//TuXoP/OKyxkwlZLa9TgsN5eCQb8PQ+Vlc0ss6lDXlyy9rsABa9FjTSDavOHlf7XvU9uT7TlJb8Ae94hAmVKgKq3RlykwRRg+/P3F4nRbu8zKQjyOh87OwJJd9KGvKk1/WvLl5p9qCvHJHk61pJOe/4gS8Q684VAMqVO7QkRBtvFI4s/11WuVWCpIO+XU03LPcoYyDIPLLmikzMUO2Evzc461pJJspCbxQwOZbX1H7KMz8Qa84VAIqVEerVmXK2cP/+JWr1PNPzvUdoDAua3hxmllXnKw/sRfKSv9QXo5k7utoGB4NZR5Gk4PgsoYfIZ133Uz9CYShnHu6FY1k50XHCwU4l5pH4V+cyR8U+FBJqFC5q2ZlinutubMRzz0V5lbWjKmv05/Yx3nfR1lZWv8Z+/QeQHEo2wpDQ7k0k0fcucBlzZy/er9aEA0qw2t5aM1IMjM9VSz14ji9B4WgUgRQPXt3Z+ixG5dWvTJlXtOB556Kc1bsnGWN7dBQ9g+dyu7Q+Xk0jCIPi9N9M0zoRKgev/f2mocefmTwo4sX6WRp9fX1ei88nZ2d1N7ervafXrJWbS9eNnIFvf7+fqJzhntdUi8FazT39vZSc3OzTsngGFOplE4F19XVRTNmzNCp0vpPz/WKF8sb6RhtyEcbYmTScVYjxmVXXaq2Sx5+Um1LCSNGv9dNKV5j/MHdX6ftG9frFNHUOfPoI0u/rFMjhXms09/uoh2bcguEMJ7WNeez79cp7+JwPhZTrKyRjFM6H5mXGL2UB4b0NcOino+cP9lJA1S/syFwfcKo1rH2w2+M5p7OCt3Xo3ZtuwkSY6E8qFZZ40fY+Wjuo2zyrIn0x1ee4ns2TpSOdSFBYnQra2w41kw6zmqUNaYsZBN/2aD33EW2kdzR0VG0Zz+TyVBjY6PYdOKenh5qaWnRKRkmRinpdJra2tp0qjiv+SIdow35aEOMTDrOasRoRhy89raHEaOf68YLrzHeceFZtH/vXron/TItbTuNxo4fTzf9+Hn93ZHCPNb8DDJPsX593Zsqzcrp8Y/D+ViIl7JGinQ+Mq8xei0XpK8ZFvV85Lzpn7KH3vPr4/UnwVXzWHtVToyl7utRurYLCRJjob+/WmWNH2HnI6974XytEa/r4HxE0osoHetCyo2xUFljw7Fm0nFWq6wxZWHdznfUthArplsXq9CZwt78wYC8gOhI8vS8qWfkbvzcQGZTPzBXbSuNn3PiSko5DeOkSUoeoYwYCflRniTe1/12/CYNXmt0NO6o5s4DXjzTQHlsh8g2kk1vC06k8gUdXQeA8nU/96za8ghy69nn06Lrb1HpajL3UzwTNSxJZY2zTEDD8GhY68SbpDUQzfoSPDsIist/Xat5zVGSvXDvJjW6bvKCR9ehury2j6xauKsQjCYPM3mABjJEhXM0mSsZXNngSkecOUdYeIr1FXfcTeMnyE6lCgoN5WTmARrKOYM7Byn78f2oNwSUhNHklXfepjo9+fEZxp2e4O7M62apRqBZMJIlvazB6Lq9It1ILqe3JckFHgp7iDquZHBlY+VdX9WfxI+z0hjFEZekz87B1Dd0orK9HQfo4FOHdYqobtEovQdeJGk0efuLabXl9SXY9p8PL8gII5nHe/i1RpgJmpM/uj5l5iS1heryUg5GupHsp7cFhf4w5AVEDU85ZkmqZES5EpnkadeY+pZjyokkdq7y32wayDMPnKK2h54tvoALHM05SyjOorK+hM2SPJpsFjLj0XUub+ZdN1OlIfoi3Ugut7clqYU+QwMZoigplQxTWbRplCVplRdMfTtaUspM/jvz/9bNY15V29HnxeLpMwhBFNeXsIVzNDmJDWXn38yj6zzKzqPtYIfIlgrl9LYktYGYxE4BsMuiG24d8RxX90+f0XvxYdtoSlIrL2YEGVPfRpaZcS5H3BrHE944Rk2xrknVqO34+1BxLcf1T+Xu5Xz/i+N6E877elTXl4i6pE67dparmHpup8g2ksvtbUnyFDKMIkNUcaWCKxfOEda4TtGzaRTZWXDzM7r8rC4/s5sEmPqWE+eGcn7jmP9W81UzqYbqHx9LE3qPUVtOg3+8qJURt/UmnGWUTff1KDJlDTcck1bWoIFsr5qHHn5k8KOLF+lkafX19XovPJ2dnbR48WKdcjcwMEANDQ06NdLAgv16j6hh9Vi9V9yuXbto4sTcw/VSisVYju7ubmptbdWpHPO3ev0780nHaEM+2hAjk44zSjE+8MVr9R7RNd+6X++FE6PbdROEW4zm73H+LX5U81j/5OYX9F5O86lNNOuTJ+vUsDicj+ZvveD2M9XWC+k4pfORScToLEukrxlWqXx0lv+G1/IxKcfaKWiMj1y/hA7s20dPdP+GLmt9j/rssq/dLRojk87LUvlYqIwqphJlTVCVzkcnlDWF2XCsmXSc1S5rUqmU3nMX2UZyR0eHTrnLZDLU2Fh4yovpPfY6utrT00MtLS06JaNUjH6l02lqa8s928nye8jLIR2jDfloQ4xMOs6oxejWSx9GjPnXTVD5MUqMNlTzWHOvPk9B5md0eQoyj7Dys1P5bD8fy536Jh2ndD4yqRhNmbLlp78UvWZY2PnoLA8Nv+Viko61ETRGnmJtntk1Rh/XSP/wtOwjNdJ5WSofzX3dzz097LJGQqXz0SnOZQ2PivOikLzmhXmkh3kta2w41kw6TulrhvmJMZvN6j13sV+pwq3gjJtyG8gA1eSsfNg69ToO0/HyX0/hLODjAs+G+bPv9oN6L/q4jM8v57lMRLlYGWa9CbOolWHrPZ2V00CG0uL8KqT8tyYwlDX2i20jOe4FZBIa/xB/camE2Px3nHndLPVsLvfqxwneh+yfs9yMehnD06qdMZqGMRrHlWXWmzCLWtne+Wlz4z7q8sua19e9qbZxkP/WhLiVp0mViHcecEGa/fh+Gtw5qD+JD1QIwHamUmVb5SQuow28QCIvlMjT3kwjMg6rXeN9yOWJckOZ4zFfBhrG0bPkoe/qPbvu685Y49KBGyVxLWtYnEfJkyzWjeS6S0bpPaKDTx2mvZ+Px0p6poKAigHEhamQLPvUx9Q26uI82hCXygveh1y+cTfX6b1oyG8YM16MC2VgdNk2oowGcvXEoaHMHbKMR5Dx1oT4iHUj+dDad9R25oFT1PbgysNHCtv8r/ypW1FlQ4wAQUS9QuVsyMe1MhWHhrIZQUbPfnlMA7SaZY4pn50wcmwP2xrKDA3kynE+/sJljXk1lG3rYphykv8eHiUv9xW2ED2xbiSPPjf3520e86raemEK5WJfUYBKAsSNbRWqpFSmTOXlF4+8as17LZ2Ne/TsB1fpcs+trEXj2E423NdNXGggV56zocyNYx6RfeXJbfqT6HM2kCF+Yt1IHt85huoWjaKaVI3aTnjjmCMFbf6Xn6lbpgAv9BUWs+Ko1zgBbBP1Z9mSVJnKr7z84ZUMrbt3s/4kupwNZPTsB+Msa8Is25hbGWrKZ5R5dotyQxkN5Oozi1yZR2P6tu9R2ygyC0I+e3t6RFkD8VS7dcuv9G781EyqofrHx9KE3mPUltOlOAvlQl+lmIK+/4x9Iwp+55cXvNAYLzi2u/ltz/8PgO2iVqHauzuj3gUaxUZ72PIrL1F7rte5gjVvf3LzC/o76NmX4izzwiiH3MpEr2Ut2COKDeUk3tOjKH/Rq0P7DqttFJkFIZ0xoqyJr5orP/nJwX/553/WydLq6+v1Xng6Ozupvb1dp9z19/dTKpXSqeB6e3upublZp4LpP32f2mYnDVD9zga1X47R59XSoWdzz1WzX531Cs2+9wydkhHlfDSSGCOTjtO2GJdddanasiUPP6n3/Ovq6qIZM2bolH8/uPvrtH3jep0ieu+ZZ9PFS/5Wp2RE9Vinv91FOzblFsA6fNwBGrVnDF287FyVDkoiRmd8TDpGJn3d2HD/cbtmTLmWemmc2vqVH6P5fU5+frcN+YgYj2bu637v6dJxdnZ8mg4P5EYsg5QvTkHLmnzSx5pJ56NEjAeyB2nTo6/Rzl9l6NDbhyNZ1hhPL1mrtg++cS9dfcJ1NPqYUXTh//qQ+iwIG441k45T+pphfmKsqyu+SGVNx+c/P3jXnXfqZGmVaiR3dHTolLtMJkONjY06FVxPTw+1tLTolIxiMfrpkeeFx/i56q5Fv6CzH/8T/akM2/OxHDbEyKTjtDFGZ09/udPh0uk0tbW16ZR/JoZ70i/T0rbT6NgpLXTDd36oPpMS1WPNI7U8xZpHkPeN20uj+sbq7wTvPZeIkUeQeSo4j3TzKMThpv109b/LrpAufd3YcP8pdM2YcqucUV4To1vZV87vsyEfEaM7c0/1c0+XiJNnBa288zbqfu5ZGn1cIx3akxGdZh20rMknfayZ9PEOI8YHP/PdI2WNxCitVIzO6dVc1nCMvN4FP84TlA3HmknHKX3NMD8xZrNZveeu9oMfPEvvQiWZ6WTFvgyz8Fjte0tPFweIk2pO0eN/z/lvcgOZnXDaLLVNAud7LS+4/cwRFZYoPI+Vv4J186lNagvhMOWSn05exj9vHj8y3Mo6SAZzX6/0Pd00kI3Ws8/XexAlXNYYXM7wl3mkplqLRzrLO24Yjx43CgtCJkCsF+6yHS805lx4bMxHht/7DJAUkj39XuQ3jq9/6hlVmRo7frzanv+XxWe5xF1UGsrOf9usYH3qpdP0JxA2Lw1l/pn8n0PDGFg1Gsqmgcyzgtj2nw8/RgPRwuWMs6wxK19XevFI00g3OCbuOD7v5jYsCJkAaCRHWP7CY4R6BSSUs0J1x4VnqYW0eOqctPwKG/+74yc00hV33E03/fh5tT2mQfa5IRvlN5T5K6ye/vzFudwqLWYFa7PQGITH2cAt1FB2axynXhyHxjGMUKmGMv9+579hZgVN/cBctYXoquTikW5ljZHfaIdkQCMZAKzQ+qHz1Hb/3r1qRGDlXV9VaQn5lSiuvJkKHLjLrzSE1dNvVhM1v99ApaV6nI1dfvsCv4WB38aAkWPwK8wO0Pz7unNW0LTZ82jR9bfo70BU5a98zeWAs/EqqVhZA8kk30jetoY6O9dQwVeBq+935r7W2PPCcACoru0vptXWTJXr/ukzRypB+ZUhP5z/HxrH/uX39L++7s2jeuSDjC7v2Jxbvdr8foZKS/XVXZJ7/Gewf5AOPnWYdp/wtkoz0zBG4xi8kO4AzS8PzH3dOSvooqU3qDRE25nXzVKP0phHagwzo0hyBhPKGsgn2EjeRmu44buVaLr+5CiZjbRiFdHCjg7q6GinuX2rCO1kAPBi6hm5FRDNVDk3pnLk/Hr2gdwr7sz7js1ohfm+gcZxefJ7+tkTV68Z0SNvRpedjef0v/7ySMXGrVFtKkH8O5j5/c6KElTPobW51xPy2xcMNIyhHOV0gObfzzmd/7Po9LSfc/FI3ubPIMovYwyUNSBBsJE8jeZz43f+STp9tMy2LURz5wz9JGuk2W3TactWtJIBoLRFN9w6YgEtnjpnKkGlKkNccbrrkvPVKIUZrTBK/b9QXH5P/2UPztffGTm6zJUQ53S2HZt2HqnY5E9z40a2k/P3YzXRaBh9bq76sFm/fYEXlwQoh5cO0Ae+eO2RRrDb/ZzTBu7p8ec2g8k0dlHWgJSKPpOc6eujJue7qxqbqKkvQ/LL7wBA3OQvoOU2Vc5Ujpxf+cxoBXP7PviT39PP6RPmTVbfc44uM66UsPyKTf7nhhk1yP/9UH3jO8eMePvC+PtwXKA8QTpA8+/nxX4W4sNtBpOTn7LGlDMoayBfzUMPPzL40cWLdLK0+vp6vVcIT7veSid1zNcjxsO2remkrSd10HzzDZ5+vZpoweWzyVnd5eeV58yZo1Pu9u3bR+PGjdOp4AYGBqihoUGnZEjHGMaLwZOYjzbEyKTjTGqM5rrp+q8f087f/lp/SjTp3VNpxp8t1CnvcKxLO7z/ML2R7qXsjreofvKxdEJbM40aO4o2L/+V/gmiwTGHqeaA++hj6oR6es+Hjtcp72y4tm2IEWWNDMQoJz/OoPfzMGKUvm4qkY9BVSvGQmWMYVtZY8OxZtJxVrusOfXUU/Weu/Iaydy4Xb6e+tQn02nhiAaxTCO5o6P4u0gzmQw1OkelAwrjQEnHmE6nqa0tNy1JShLz0YYYmXScSY3RXDf8zBovCMPvxuRXf/DKpuUs3IJjXT5+/ounvfFrPBpPH0/nfG6u6q13fj5l5iQ1za2cXnwbrm0bYkRZIwMxysmPM+j9PIwYpa+bSuRjUFGN0bayxoZjzaTjrHZZk81m9Z678qZbN86my9XiW/x1dGO4kMamJuobCv6ITB/1NTWOaCADAITBy3RtCBdXRsx0tjl/9f4jlRPn55jmBgCl4H4OxaCsAQkVeCaZR5Zzr4RqnDadaP0GtT/UQqaN6S00/SSvTWwAAAAAAACAcFV04S4egV4wt49WqfckL6ct09uHp14DAAAAAAAAVFkIjWR+FZRzCvbIdOPsy/U07Q66fDamxwAAAAAAAEB0VHYkGQAAAAAAACDC0EgGAAAAAAAA0NBIBgAAAAAAANDKe09yyPg9ye3t7Trlrr+/n1KplE4F19vbS83NzTolQzrGrq4umjFjhk7JSGI+2hAjk44zqTFKXzc41jJsiJFJx2lDjChrZCBGOdJxhhEjyhoZiFGGDdd2tcuauro6vecuso1kXtirGOkXWuOl2zJsyEcbYmRJfFl9GDFKXzc41jJsiJFJx2lDjChrZCBGOdJxhhEjyhoZiFGGDdd2tcuabDar99xhujUAAAAAAACAhkYyAAAAAAAAgIZGMgAAAAAAAICGRjIAAAAAAACAhkYyAAAAAAAAgFZ7YP8+vQsAAAAAAACQbLVjxo7TuwAAAAAAAADJhunWAAAAAAAAAFrNQw8/MvjRxYt0srT6+nq9F57Ozk5avHixTrkbGBighoYGnQpu165dNHHiRJ2SIR1jd3c3tba26pSMJOajDTEy6TiTGqP0dYNjLcOGGJl0nDbEiLJGBmKUIx1nGDGirJGBGGXYcG1Xu6xJpVJ6z11kG8kdHR065S6TyVBjY6NOBdfT00MtLS06JUM6xnQ6TW1tbTolI4n5aEOMTDrOpMYofd3gWMuwIUYmHacNMaKskYEY5UjHGUaMKGtkIEYZNlzb1S5rstms3nOH6dYAAAAAAAAAGhrJAAAAAAAAABoayQAAAAAAAAAaGskAAAAAAAAAGhrJAAAAAAAAABoayQAAAAAAAAAaGskAAAAAAAAAGhrJAAAAAAAAAFrNQw8/MvjRxYt0srT6+nq9F57Ozk5qb2/XKXf9/f2USqV0Krje3l5qbm7WKRnSMXZ1ddGMGTN0SkYS89GGGJl0nEmNUfq6wbGWYUOMTDpOG2JEWSMDMcqRjjOMGFHWyECMMmy4tqtd1tTV1ek9d5FtJHd0dOiUu0wmQ42NjToVXE9PD7W0tOiUDOkY0+k0tbW16ZSMJOajDTEy6TiTGqP0dYNjLcOGGJl0nDbEiLJGBmKUIx1nGDGirJGBGGXYcG1Xu6zJZrN6zx2mWwMAAAAAAABoaCQDAAAAAAAAaGgkAwAAAAAAAGhoJAMAAAAAAABoaCQDAAAAAAAAaGgkAwAAAAAAAGhoJAMAAAAAAABoaCQDAAAAAAAAaDUPPfzI4EcXL9LJ0urr6/VeeDo7O2nx4sU65W5gYIAaGhp0Krhdu3bRxIkTdUqGdIzd3d3U2tqqUzKSmI82xMik40xqjNLXDY61DBtiZNJx2hAjyhoZiFGOdJxhxIiyRgZilGHDtV3tsiaVSuk9d5FtJHd0dOiUu0wmQ42NjToVXE9PD7W0tOiUDOkY0+k0tbW16ZSMJOajDTEy6TiTGqP0dYNjLcOGGJl0nDbEiLJGBmKUIx1nGDGirJGBGGXYcG1Xu6zJZrN6zx2mWwMAAAAAAABoaCQDAAAAAAAAaGgkAwAAAAAAAGhoJAMAAAAAAABoaCQDAAAAAAAAaGgkAwAAAAAAAGhoJAMAAAAAAABoaCQDAAAAAAAAaDUPPfzI4EcXL9LJ0urr6/VeeDo7O/UeAAAAAAAAgJxPfepTes9dJBvJAAAAAAAAAGHIZrN6zx2mWwMAAAAAAABoaCQDAAAAAAAAaGgkAwAAAAAAAGh4JtmnbWs6aRUtpI750/QnWmYjrVi+nvp00pi+sIPmT8vQxhXLab3+ZtPcdrp8dmMuwZz/b9Ncar98NvF31b+1hT9kTTS3/XLi/y2zcQUtH/5lR34+mG20pnMV5f656fT/b+/+cttGkgAOl/0QZ3YQwOIRJO4JHPsGto+QuYIuZF/BPoLo950ZWX6YnceheAQqiSdBZoGst4tskt1kU38sCViMfl9gRKLINg1UsbrJFnk9vpTqL3T3o7PvwCrZg5jQ8mKq4se4VcV0sV31oR+TJgucnGpyo/xdTYNNvLrxXeWlfbMFNxe93HD3Y2c5isNRxncaB463rRgvVTmwIs7dbeOqjvn1yc21vdSannrX3o9d5SgOSBHfoVrTjnHL5sDyON+w1nh9QWf9Lbm10ssNag3waqu+kyw6SH5+fl7752DNk5ebm5uXJDH/J3O7cIl89nJ3N3vJ7etZvUn+Mrsz7VTvdb2b5KXboq539zIrGnCZ5U1jZvO79fZnKX+f3DaL19XfYfYyuQntExCi8XJjYikx/4divGueNHE4n1VxZ2j+1XHYyiGHxutdKEDnJgebxnYTx94+OW0WOd20r39TcJ+AgOKYa+InSXpiuU3jsEma/jj34tWl6/XUoJ3XGn+f3NzQ13X7vXURCNG42qTWuP2rZXG+ea3JTd2qV99RHHv75LZJrQG2Ehrnuj9Mt17X8FLG47Fcjuz7FbLZVKJze0ZvcCZn9WnNgQwi+9Io1rvuXmErRTLonBIcyFnTmPncaey1FpmkciHvbbODs3OJ07lk+lGeS1z9HWYv31+IpNmieAcsN5RLkzPjdZNm8SSPeROHwzPnjLiJ8zrSs5lMo+veq0xRN2m0Meds/kCiHaRNNk/DubHIJY/P6983LD8QsgbrGJx9MLXmg7xfK0YX8vSYy0WTND1xbte76rnKZFbsLt9DrcnmkgZzw/zLo+bvMDXzPE5lrkUIWGnDWlPUkCoOl8T5K2rNwNStenXz+fZZs5AslXBuUGuAvWKQvBeZzJ3Ovq/sDETFQU1fxxIt7otnQ+vP/VN1eFtInqcy6Sz3LcxBMiobK+i0oaqt24dADyN76LalB1rTRtOKdq5y07bun13kyHMOwdi9hekJ1CeW2pwY1ZiPo4XcV3F+/1R3CvSkTjrpLvdpbrknoHSKqt3m9l66qWY+77Tl5nFJO1eaG7p/HWa/yBrsnJ7grDv7bW6cm9cSi8yqOL+VujyY43yeT+Wuvbxl01qjn7cXt9soBhFFbug+2GWO3OwbsGvZ3Dmx1OLG6Na1RnPLPQGlU7Grtm4figsRvnCt8euVSRvTpuYGtQbYr+P//PXNvsSuLJ4eJY+Hwc7+4ilxzmDqwS+VaX5eXKUej68lmia2k27PjNbL77qdF3PATaaRnNseknZKErmy24zlWia9HZ71DGQYR5LWp/P1jGbgoAxsLZOZieVRsN9iOg6TplNTdE6muZxXcR5NJbEj2+FllTPl8rtAAmQPE8kv3tuz/TpAnsvIbjP+KZY06Rtcr2cwjCWyMzGUDv7JGuxDMRMpnDR+nNuBcBr9ZOP8QvKJ7aQPzuRDHf+6PHCiaO+1Ziij2OR1PUspk3nzdU9gd4oZS7EMwx00P863qjULeUqcGYU6QE5Eruw2plsnk+2ShloD7Nnxm5O39iV2QweSzUG2oTd/uC07Ft7cHWeKme0odC/U6lTO8sxhpTiLXxxwm6naekDPzWC6Oruv93KottGbPhTLzcJ6nd4rbY3B2ZVc5BPbpvmFsTkou1cCgF3I5s7A1aE3JSkGsf7NTyJn3eEoNgOAbiTr1LNIr+za99rx1ivG89G4uRmSDh6kmbFxqzdcqc7EF79bl08kra+0ha40t5hBx9VFXreZSCxxcDorsI2+GUuBOC/ETV0aDE1M6myh8m2tmMrp16DNak1Z53SZ3gipvtK2xmBgeFmeDC7bnJsc15kaZA12q2/GUijO1atqjQ6Iy8aaqdoLkzPOjI3iZlvVNtQa4P8TN+7akHuTlBC9kULnc/cmEa7ucvfGRS73JhF9N4zo29Zj9r+zre6zd0OXvhu5rPk7AE9/PFXmSSA/enKtE/99OenFdc8+dGI/xGwbWKedC3152bt/wBK98VQJHct7c629vK8m+XG9Ta3RbTvrtHOhN//69w/ot6rWaFx1P++L887ydWpNX0yvVQdCtWb9fuJ6vwNAJTTOdX/4TvK29Aygc5Zcz1J6X1RU2UzS+CrwvTGdziwyndntdRpQGgemnOpUVJG4mB9kXpt1rrqNFd9TSR9fMVVUryrIVJrdeDT7Owpe1Zv0ftcaWJde6XK/j6VTK/3vXJkoFBOGch24Y4pOMTNJY7fX9VKJA1NOdSqqSZrirLrGtGmsG9PFdyKb2N+EXlVo8s3NUZc/VRx4Lb3S5d5PQm8c177S2hvnZskoTuWx2l5vSGSO+p1w9WrQHmrNcCRx+lhfIXNz1OV/LQl4rVatKW5S2r7SuiTOX1FrsplZJ3SDPL35pBP761u/n0itAXaL5yRvSgfF81EzZbr1Xqc16zQ3t2+vnZv6GXyV+hmV5TblY+6cZ+rpdB3nucv1c/Fay0vNcy2bttQGz+hz23Wftad/X9Ugz+DDq2hHRadMV5331nuNPZ2Z5sWWrtM877XkxLMTl83ziXWqp/MszGCONcLPtTSc7VZx222eXenu+wY5CDi0bujXc6op0/57jfUiabzYWhrnXn44zx13j/FLalBpB7XG/X1Ornl1coMcBBorak2rv1ZYEeduvK6uNa3lVl0bvFxz21vFbdfNNWoNsI1Vz0lmkAwAAAAAOBirBslMtwYAAAAAwGKQDAAAAACAxSAZAAAAAACLQTIAAAAAABaDZAAAAAAArI3vbg0AAAAAwN8VV5IBAAAAALCOj46O7EsAAAAAAA4bV5IBAAAAALCOj4+P5Nu3b/YtAAAAAACH6/jk5K18/PjRvgUAAAAA4HCZQfKJGSR/sm8BAAAAADhcx//48Uf5I03ly5cvdhEAAAAAAIfp+OTNGzk9PZXf/v27XQQAAAAAwGEqHgH17t07eX5+lp9/+VX+5IoyAAAAAOAAff36VY7+9cuvL//9/l2+m5/Pnz/L50+fJP5nLIPTUzk9HcgPP7y1qwMAAAAA8PeiT3vSm1nreDjLMvkfLbmG+0bLD0cAAAAASUVORK5CYII=;" parent="1" vertex="1">
                    <mxGeometry x="760" y="10" width="466.8" height="290" as="geometry"/>
                </mxCell>
                <mxCell id="5" value="" style="rounded=0;whiteSpace=wrap;html=1;" parent="1" vertex="1">
                    <mxGeometry x="760" y="300" width="290" height="80" as="geometry"/>
                </mxCell>
                <mxCell id="6" value="id" style="rounded=0;whiteSpace=wrap;html=1;fillColor=#dae8fc;strokeColor=#6c8ebf;" parent="1" vertex="1">
                    <mxGeometry x="760" y="300" width="100" height="13" as="geometry"/>
                </mxCell>
                <mxCell id="7" value="color" style="rounded=0;whiteSpace=wrap;html=1;fillColor=#dae8fc;strokeColor=#6c8ebf;" parent="1" vertex="1">
                    <mxGeometry x="860" y="300" width="70" height="13" as="geometry"/>
                </mxCell>
                <mxCell id="8" value="update rate:100ms" style="rounded=0;whiteSpace=wrap;html=1;fillColor=#dae8fc;strokeColor=#6c8ebf;" parent="1" vertex="1">
                    <mxGeometry x="770" y="30" width="130" height="13" as="geometry"/>
                </mxCell>
                <mxCell id="10" value="auto scroll" style="rounded=0;whiteSpace=wrap;html=1;fillColor=#d5e8d4;strokeColor=#82b366;" parent="1" vertex="1">
                    <mxGeometry x="900" y="30" width="70" height="13" as="geometry"/>
                </mxCell>
                <mxCell id="11" value="range: last 10s" style="rounded=0;whiteSpace=wrap;html=1;fillColor=#d5e8d4;strokeColor=#82b366;" parent="1" vertex="1">
                    <mxGeometry x="970" y="30" width="110" height="13" as="geometry"/>
                </mxCell>
                <mxCell id="13" value="clear points" style="rounded=0;whiteSpace=wrap;html=1;fillColor=#dae8fc;strokeColor=#6c8ebf;" parent="1" vertex="1">
                    <mxGeometry x="1080" y="30" width="130" height="13" as="geometry"/>
                </mxCell>
                <mxCell id="14" value="" style="rounded=0;whiteSpace=wrap;html=1;" parent="1" vertex="1">
                    <mxGeometry x="1050" y="300" width="180" height="80" as="geometry"/>
                </mxCell>
                <mxCell id="16" value="color" style="rounded=0;whiteSpace=wrap;html=1;fillColor=#dae8fc;strokeColor=#6c8ebf;" parent="1" vertex="1">
                    <mxGeometry x="1070" y="310" width="70" height="13" as="geometry"/>
                </mxCell>
                <mxCell id="17" value="value" style="rounded=0;whiteSpace=wrap;html=1;fillColor=#dae8fc;strokeColor=#6c8ebf;" parent="1" vertex="1">
                    <mxGeometry x="1140" y="310" width="70" height="13" as="geometry"/>
                </mxCell>
                <mxCell id="18" value="aggregate.size" style="rounded=0;whiteSpace=wrap;html=1;fillColor=#dae8fc;strokeColor=#6c8ebf;" parent="1" vertex="1">
                    <mxGeometry x="760" y="313" width="100" height="13" as="geometry"/>
                </mxCell>
                <mxCell id="19" value="" style="rounded=0;whiteSpace=wrap;html=1;fillColor=#f8cecc;strokeColor=#b85450;" parent="1" vertex="1">
                    <mxGeometry x="860" y="313" width="70" height="13" as="geometry"/>
                </mxCell>
                <mxCell id="20" value="show/hide" style="rounded=0;whiteSpace=wrap;html=1;fillColor=#dae8fc;strokeColor=#6c8ebf;" parent="1" vertex="1">
                    <mxGeometry x="930" y="300" width="70" height="13" as="geometry"/>
                </mxCell>
                <mxCell id="21" value="" style="rhombus;whiteSpace=wrap;html=1;" vertex="1" parent="1">
                    <mxGeometry x="810" y="550" width="80" height="80" as="geometry"/>
                </mxCell>
            </root>
        </mxGraphModel>
    </diagram>
</mxfile>